<svg width="643" height="826" viewBox="0 0 643 826" fill="none" xmlns="http://www.w3.org/2000/svg">
<g clip-path="url(#clip0_2385_8833)">
<path d="M432.865 413.19C432.825 424.02 424.285 432.49 413.445 432.45C402.615 432.41 394.145 423.87 394.185 413.03C394.225 402.2 402.765 393.73 413.605 393.77C424.435 393.81 432.905 402.35 432.865 413.19Z" fill="#F04100"/>
<path d="M368.405 393.96C379.275 393.91 387.725 402.36 387.665 413.24C387.615 423.87 379.265 432.21 368.635 432.25C357.765 432.3 349.315 423.85 349.375 412.97C349.425 402.34 357.775 394 368.405 393.96Z" fill="#F04100"/>
<path d="M432.665 368.3C432.585 379.12 423.995 387.43 413.075 387.26C402.495 387.09 394.295 378.61 394.365 367.92C394.445 357.1 403.035 348.79 413.955 348.96C424.535 349.13 432.735 357.61 432.665 368.3Z" fill="#F04100"/>
<path d="M368.145 387.16C357.655 387.01 349.365 378.44 349.475 367.85C349.575 357.14 358.315 348.79 369.155 349.06C379.605 349.32 387.785 358 387.575 368.61C387.375 379.08 378.745 387.31 368.145 387.16Z" fill="#F04100"/>
<path d="M477.075 412.88C477.235 423.14 468.795 431.67 458.505 431.66C448.395 431.65 440.135 423.48 439.975 413.34C439.815 403.08 448.255 394.55 458.545 394.56C468.655 394.57 476.915 402.74 477.075 412.88Z" fill="#F04100"/>
<path d="M413.315 476.66C402.995 476.51 394.665 467.88 394.985 457.65C395.295 447.49 403.675 439.42 413.745 439.56C424.065 439.71 432.395 448.34 432.075 458.57C431.765 468.73 423.385 476.8 413.315 476.66Z" fill="#F04100"/>
<path d="M386.925 458.24C386.845 468.5 378.655 476.58 368.395 476.5C358.135 476.42 350.055 468.23 350.135 457.97C350.215 447.71 358.405 439.63 368.665 439.71C378.925 439.79 387.005 447.98 386.925 458.24Z" fill="#F04100"/>
<path d="M476.925 368.2C476.865 378.47 468.695 386.56 458.435 386.5C448.165 386.44 440.075 378.27 440.135 368.01C440.195 357.74 448.365 349.65 458.625 349.71C468.895 349.77 476.985 357.94 476.925 368.2Z" fill="#F04100"/>
<path d="M323.605 431.28C313.275 431.31 305.285 423.29 305.355 412.94C305.425 402.85 313.335 394.97 323.445 394.94C333.775 394.91 341.765 402.93 341.695 413.28C341.625 423.37 333.715 431.25 323.605 431.28Z" fill="#F04100"/>
<path d="M341.635 368.33C341.545 378.4 333.555 386.26 323.425 386.22C313.135 386.18 305.225 378.01 305.415 367.64C305.595 357.62 313.715 349.86 323.875 350C333.915 350.13 341.725 358.2 341.635 368.33Z" fill="#F04100"/>
<path d="M413.545 341.28C403.225 341.28 395.265 333.23 395.355 322.88C395.445 312.8 403.385 304.95 413.505 304.94C423.825 304.94 431.785 312.99 431.695 323.34C431.605 333.43 423.665 341.27 413.545 341.28Z" fill="#F04100"/>
<path d="M386.635 322.68C386.805 332.85 379.085 341 369.075 341.22C358.685 341.45 350.475 333.57 350.405 323.29C350.335 313.15 358.155 305.12 368.215 305C378.365 304.88 386.465 312.65 386.635 322.68Z" fill="#F04100"/>
<path d="M458.435 476.06C448.495 476.01 440.375 467.71 440.565 457.77C440.745 448.03 448.855 440.1 458.605 440.15C468.545 440.2 476.665 448.5 476.475 458.44C476.295 468.18 468.185 476.11 458.435 476.06Z" fill="#F04100"/>
<path d="M323.755 475.93C314.155 476.09 305.865 468.01 305.705 458.34C305.545 448.73 313.625 440.45 323.295 440.29C332.905 440.13 341.185 448.21 341.345 457.88C341.505 467.49 333.435 475.77 323.755 475.93Z" fill="#F04100"/>
<path d="M476.345 323.16C476.305 332.81 468.105 340.97 458.475 340.93C448.825 340.89 440.665 332.69 440.705 323.06C440.745 313.41 448.945 305.25 458.575 305.29C468.225 305.33 476.385 313.53 476.345 323.16Z" fill="#F04100"/>
<path d="M341.085 323.16C341.045 332.75 333.175 340.62 323.595 340.67C313.835 340.72 305.745 332.52 305.965 322.8C306.175 313.18 314.165 305.42 323.705 305.54C333.305 305.66 341.125 313.59 341.085 323.16Z" fill="#F04100"/>
<path d="M521.825 412.91C521.925 422.7 514.365 430.37 504.595 430.41C494.815 430.45 487.195 422.83 487.225 413.06C487.255 403.48 494.655 395.96 504.205 395.81C513.995 395.66 521.735 403.16 521.825 412.91Z" fill="#F04100"/>
<path d="M413.555 521.41C403.785 521.43 396.175 513.8 396.215 504.02C396.255 494.25 403.945 486.71 413.725 486.81C423.285 486.91 430.735 494.38 430.815 503.95C430.895 513.73 423.315 521.39 413.555 521.41Z" fill="#F04100"/>
<path d="M385.755 503.9C385.845 513.74 378.295 521.36 368.485 521.34C358.875 521.32 351.385 513.91 351.295 504.32C351.205 494.48 358.745 486.86 368.565 486.88C378.175 486.9 385.665 494.31 385.755 503.9Z" fill="#F04100"/>
<path d="M504.495 385.34C494.685 385.33 487.165 377.68 487.285 367.84C487.405 358.26 494.925 350.87 504.535 350.88C514.345 350.89 521.865 358.54 521.745 368.38C521.625 377.96 514.105 385.35 504.495 385.34Z" fill="#F04100"/>
<path d="M260.475 412.68C260.655 403.21 268.475 395.82 278.065 396.06C287.525 396.3 294.855 404.18 294.555 413.78C294.265 423.03 286.585 430.28 277.215 430.15C267.725 430.02 260.285 422.26 260.465 412.68H260.475Z" fill="#F04100"/>
<path d="M430.565 277.13C430.555 286.67 422.925 294.22 413.365 294.15C403.845 294.08 396.355 286.4 396.475 276.83C396.595 267.52 404.095 260.1 413.425 260.06C422.975 260.02 430.585 267.59 430.565 277.13Z" fill="#F04100"/>
<path d="M458.505 487.13C467.945 487.13 475.615 494.89 475.495 504.35C475.375 513.58 467.775 521.09 458.525 521.09C449.085 521.09 441.415 513.33 441.535 503.87C441.655 494.64 449.255 487.13 458.505 487.13Z" fill="#F04100"/>
<path d="M504.435 475.09C494.995 475.05 487.375 467.23 487.545 457.78C487.715 448.55 495.355 441.09 504.615 441.14C514.055 441.18 521.675 449 521.505 458.45C521.335 467.68 513.695 475.14 504.435 475.09Z" fill="#F04100"/>
<path d="M277.345 385.13C267.875 385.05 260.365 377.33 260.495 367.81C260.635 358.35 268.415 350.89 277.945 351.09C287.195 351.28 294.565 358.86 294.545 368.17C294.525 377.66 286.855 385.22 277.345 385.14V385.13Z" fill="#F04100"/>
<path d="M368.305 294.13C358.835 294.03 351.345 286.28 351.505 276.76C351.665 267.31 359.465 259.87 368.995 260.08C378.235 260.29 385.595 267.9 385.545 277.2C385.505 286.68 377.815 294.23 368.305 294.13Z" fill="#F04100"/>
<path d="M340.405 504.03C340.455 513.18 332.755 520.94 323.595 520.99C314.445 521.04 306.685 513.34 306.635 504.18C306.585 495.03 314.285 487.27 323.445 487.22C332.595 487.17 340.355 494.87 340.405 504.03Z" fill="#F04100"/>
<path d="M521.405 322.99C521.485 332.14 513.805 339.92 504.635 339.99C495.485 340.07 487.705 332.39 487.635 323.22C487.555 314.07 495.235 306.29 504.405 306.22C513.555 306.14 521.335 313.82 521.405 322.99Z" fill="#F04100"/>
<path d="M277.435 441.32C286.535 441.26 294.335 449.04 294.305 458.14C294.275 467.27 286.455 475 277.355 474.88C268.405 474.76 260.885 467.26 260.735 458.31C260.585 449.22 268.285 441.38 277.435 441.32Z" fill="#F04100"/>
<path d="M475.305 276.94C475.425 286.03 467.695 293.86 458.565 293.89C449.465 293.92 441.685 286.12 441.745 277.02C441.805 268.08 449.265 260.53 458.235 260.32C467.305 260.11 475.185 267.79 475.305 276.94Z" fill="#F04100"/>
<path d="M277.515 339.69C268.465 339.69 261.025 332.29 260.945 323.23C260.865 314.01 268.585 306.35 277.785 306.53C286.865 306.71 294.195 314.22 294.105 323.24C294.015 332.31 286.565 339.69 277.515 339.69Z" fill="#F04100"/>
<path d="M322.835 293.66C313.705 293.19 306.575 285.51 306.955 276.54C307.355 267.23 315.335 259.94 324.455 260.57C333.625 261.2 340.605 268.97 340.065 277.92C339.515 287.08 331.795 294.12 322.835 293.66Z" fill="#F04100"/>
<path d="M429.595 549.17C429.565 558.19 422.395 565.26 413.345 565.18C404.355 565.1 397.325 557.86 397.465 548.8C397.595 540.03 404.665 533.07 413.465 533.04C422.495 533.01 429.625 540.13 429.595 549.17Z" fill="#F04100"/>
<path d="M520.635 504.31C520.555 513.31 513.385 520.3 504.315 520.22C495.315 520.14 488.325 512.97 488.405 503.9C488.485 494.9 495.655 487.91 504.725 487.99C513.725 488.07 520.715 495.24 520.635 504.31Z" fill="#F04100"/>
<path d="M565.595 413.31C565.505 422.3 558.255 429.32 549.205 429.18C540.235 429.04 533.265 421.73 533.465 412.66C533.655 403.9 540.775 397.01 549.605 397.04C558.625 397.07 565.685 404.26 565.595 413.31Z" fill="#F04100"/>
<path d="M565.585 367.96C565.645 376.99 558.555 384.16 549.555 384.17C540.555 384.18 533.425 377.02 533.475 368.01C533.515 359.23 540.495 352.17 549.265 352.05C558.305 351.93 565.535 358.98 565.595 367.96H565.585Z" fill="#F04100"/>
<path d="M368.385 533.05C377.405 532.99 384.575 540.09 384.575 549.1C384.575 558.1 377.415 565.22 368.405 565.17C359.625 565.12 352.575 558.13 352.465 549.37C352.355 540.33 359.405 533.11 368.385 533.05Z" fill="#F04100"/>
<path d="M293.495 504.03C293.535 512.77 286.455 519.98 277.725 520.08C268.785 520.19 261.455 512.88 261.555 503.93C261.645 495.2 268.835 488.11 277.575 488.13C286.315 488.16 293.455 495.29 293.495 504.03Z" fill="#F04100"/>
<path d="M520.495 276.88C520.615 285.63 513.595 292.9 504.875 293.08C495.935 293.27 488.535 286.02 488.555 277.08C488.565 268.34 495.685 261.18 504.425 261.13C513.175 261.08 520.385 268.14 520.505 276.88H520.495Z" fill="#F04100"/>
<path d="M232.345 383.97C223.715 383.85 216.465 376.37 216.665 367.81C216.865 359.16 224.395 351.97 232.955 352.25C241.425 352.53 248.425 359.75 248.385 368.16C248.345 376.77 240.925 384.09 232.345 383.97Z" fill="#F04100"/>
<path d="M232.925 397.23C241.585 397.5 248.735 405.08 248.385 413.63C248.035 422.29 240.395 429.39 231.865 428.96C223.355 428.53 216.465 421.23 216.645 412.82C216.825 404.16 224.345 396.96 232.925 397.23Z" fill="#F04100"/>
<path d="M429.395 232.09C429.395 240.72 422.035 248.05 413.415 247.98C404.785 247.91 397.495 240.46 397.655 231.87C397.805 223.4 404.935 216.32 413.385 216.23C422.005 216.14 429.385 223.45 429.395 232.09Z" fill="#F04100"/>
<path d="M549.355 473.98C540.715 473.87 533.455 466.4 533.655 457.82C533.845 449.16 541.375 441.97 549.945 442.24C558.415 442.51 565.425 449.73 565.395 458.15C565.365 466.78 557.965 474.09 549.355 473.98Z" fill="#F04100"/>
<path d="M368.325 216.25C376.895 216.12 384.335 223.43 384.385 232.04C384.435 240.65 377.085 248.01 368.475 247.97C360.045 247.94 352.875 240.9 352.665 232.43C352.445 223.87 359.695 216.38 368.325 216.25Z" fill="#F04100"/>
<path d="M277.765 261.31C286.425 261.48 293.655 269.07 293.315 277.6C292.965 286.11 285.675 293.07 277.275 292.9C268.615 292.73 261.385 285.14 261.725 276.61C262.065 268.1 269.375 261.14 277.765 261.31Z" fill="#F04100"/>
<path d="M458.335 533.24C466.955 533.12 474.355 540.4 474.395 549.05C474.435 557.67 467.075 565.02 458.455 564.98C450.005 564.94 442.845 557.89 442.645 549.42C442.445 540.84 449.695 533.36 458.335 533.24Z" fill="#F04100"/>
<path d="M549.535 307.35C558.125 307.36 565.465 314.83 565.275 323.37C565.085 331.83 557.925 338.87 549.505 338.86C540.905 338.85 533.575 331.39 533.765 322.84C533.955 314.38 541.115 307.34 549.535 307.35Z" fill="#F04100"/>
<path d="M339.275 549.2C339.205 557.81 331.705 565.11 323.175 564.86C314.705 564.62 307.695 557.41 307.765 549.01C307.835 540.4 315.335 533.1 323.865 533.35C332.335 533.59 339.345 540.8 339.275 549.2Z" fill="#F04100"/>
<path d="M474.035 232.01C474.095 240.59 467.075 247.64 458.495 247.63C449.905 247.61 442.905 240.54 443.005 231.96C443.095 223.55 449.885 216.73 458.295 216.59C466.865 216.45 473.975 223.41 474.035 232.01Z" fill="#F04100"/>
<path d="M232.615 473.62C224.035 473.68 216.985 466.66 217.005 458.07C217.025 449.48 224.105 442.49 232.685 442.59C241.095 442.69 247.905 449.48 248.045 457.89C248.185 466.46 241.215 473.56 232.615 473.62Z" fill="#F04100"/>
<path d="M323.515 216.79C332.225 216.79 338.955 223.62 338.835 232.35C338.715 240.85 332.045 247.42 323.525 247.42C314.815 247.42 308.085 240.59 308.205 231.86C308.325 223.36 314.995 216.79 323.515 216.79Z" fill="#F04100"/>
<path d="M247.835 322.92C247.925 331.64 241.175 338.45 232.465 338.42C223.955 338.39 217.305 331.8 217.215 323.3C217.125 314.58 223.875 307.77 232.585 307.8C241.095 307.83 247.745 314.42 247.835 322.92Z" fill="#F04100"/>
<path d="M519.605 549.34C519.505 557.82 512.715 564.34 504.165 564.18C495.705 564.02 489.235 557.18 489.455 548.61C489.665 540.36 496.315 533.97 504.645 534.02C513.145 534.07 519.715 540.79 519.615 549.34H519.605Z" fill="#F04100"/>
<path d="M564.605 503.97C564.665 512.5 558.055 519.18 549.535 519.19C541.015 519.19 534.395 512.53 534.445 504C534.495 495.69 540.975 489.14 549.265 489.03C557.815 488.92 564.545 495.48 564.605 503.97Z" fill="#F04100"/>
<path d="M277.695 534.13C285.855 534.22 292.525 540.98 292.495 549.15C292.465 557.5 285.455 564.31 277.105 564.08C268.955 563.85 262.395 556.97 262.555 548.81C262.715 540.65 269.525 534.04 277.695 534.13Z" fill="#F04100"/>
<path d="M549.595 262.13C557.755 262.17 564.465 268.89 564.495 277.05C564.525 285.41 557.565 292.25 549.205 292.07C541.045 291.9 534.445 285.07 534.555 276.9C534.665 268.74 541.435 262.09 549.605 262.12L549.595 262.13Z" fill="#F04100"/>
<path d="M504.475 247.03C496.365 247 489.575 240.16 489.605 232.06C489.635 223.96 496.475 217.16 504.575 217.19C512.685 217.22 519.475 224.06 519.445 232.16C519.415 240.26 512.575 247.06 504.475 247.03Z" fill="#F04100"/>
<path d="M232.335 519.03C224.225 518.92 217.485 512.01 217.595 503.93C217.705 495.82 224.615 489.08 232.695 489.19C240.805 489.3 247.545 496.21 247.435 504.29C247.325 512.41 240.425 519.14 232.335 519.03Z" fill="#F04100"/>
<path d="M368.125 608.94C359.985 608.66 353.265 601.46 353.705 593.46C354.145 585.48 361.085 579.01 368.925 579.28C377.065 579.56 383.785 586.76 383.345 594.76C382.905 602.74 375.965 609.21 368.125 608.94Z" fill="#F04100"/>
<path d="M428.375 593.92C428.495 601.96 421.645 608.92 413.575 608.96C405.525 609 398.615 602.09 398.665 594.04C398.705 586.16 405.305 579.45 413.215 579.25C421.235 579.05 428.255 585.84 428.375 593.92Z" fill="#F04100"/>
<path d="M609.375 413.22C609.295 421.29 602.315 428.12 594.285 427.96C586.195 427.8 579.425 420.76 579.665 412.74C579.905 404.83 586.635 398.25 594.505 398.25C602.565 398.25 609.445 405.17 609.375 413.22Z" fill="#F04100"/>
<path d="M594.755 353.27C602.885 353.43 609.675 360.56 609.345 368.59C609.015 376.55 602.145 383.09 594.285 382.94C586.155 382.78 579.365 375.65 579.695 367.62C580.025 359.66 586.895 353.12 594.755 353.27Z" fill="#F04100"/>
<path d="M232.475 291.85C224.555 291.81 217.835 285.11 217.785 277.18C217.735 269.09 224.775 262.15 232.825 262.37C240.785 262.58 247.385 269.4 247.265 277.28C247.145 285.22 240.375 291.88 232.475 291.85Z" fill="#F04100"/>
<path d="M277.355 246.85C269.415 246.73 262.755 239.97 262.785 232.07C262.815 223.96 269.905 217.08 277.945 217.37C285.915 217.66 292.475 224.54 292.265 232.4C292.065 240.36 285.245 246.96 277.355 246.85Z" fill="#F04100"/>
<path d="M473.045 594.13C473.025 602.19 466.425 608.72 458.375 608.63C450.305 608.54 443.835 601.87 444.005 593.83C444.175 585.95 450.555 579.64 458.425 579.58C466.475 579.52 473.065 586.07 473.045 594.13Z" fill="#F04100"/>
<path d="M609.045 458.05C609.085 466.1 602.515 472.67 594.465 472.63C586.405 472.59 579.885 465.97 580.005 457.92C580.125 450.05 586.465 443.7 594.345 443.59C602.395 443.47 609.015 449.98 609.055 458.05H609.045Z" fill="#F04100"/>
<path d="M413.765 172.74C421.925 172.87 428.135 179.41 427.875 187.6C427.625 195.55 421.265 201.59 413.275 201.47C405.115 201.34 398.905 194.8 399.165 186.61C399.415 178.66 405.775 172.62 413.765 172.74Z" fill="#F04100"/>
<path d="M382.845 186.96C382.915 195 376.805 201.3 368.795 201.43C360.555 201.57 354.145 195.24 354.195 187C354.245 178.97 360.465 172.79 368.495 172.78C376.525 172.77 382.775 178.93 382.845 186.96Z" fill="#F04100"/>
<path d="M594.295 337.38C586.295 337.28 580.195 331.04 580.245 323.01C580.295 314.81 586.735 308.61 594.995 308.84C602.965 309.06 608.955 315.41 608.795 323.46C608.635 331.44 602.345 337.49 594.295 337.38Z" fill="#F04100"/>
<path d="M337.795 594.41C337.655 602.4 331.385 608.46 323.345 608.38C315.145 608.29 308.995 601.82 309.255 593.56C309.515 585.6 315.885 579.64 323.945 579.84C331.915 580.04 337.935 586.37 337.795 594.41Z" fill="#F04100"/>
<path d="M201.885 413.15C201.865 421.33 195.425 427.62 187.235 427.47C179.265 427.33 173.135 421.05 173.155 413.07C173.175 404.89 179.615 398.6 187.805 398.75C195.775 398.89 201.905 405.17 201.885 413.15Z" fill="#F04100"/>
<path d="M201.845 368.35C201.725 376.37 195.445 382.49 187.405 382.44C179.185 382.38 172.955 375.88 173.195 367.63C173.435 359.64 179.825 353.61 187.885 353.79C195.885 353.97 201.965 360.31 201.845 368.35Z" fill="#F04100"/>
<path d="M563.635 549.06C563.655 557.04 557.435 563.25 549.445 563.22C541.475 563.19 535.325 556.91 535.415 548.91C535.505 541.15 541.595 535.08 549.355 535C557.355 534.93 563.615 541.09 563.635 549.06Z" fill="#F04100"/>
<path d="M201.615 458.11C201.615 466.06 195.355 472.26 187.385 472.2C179.435 472.14 173.305 465.84 173.415 457.85C173.525 450.12 179.645 444.06 187.395 444.01C195.365 443.96 201.615 450.16 201.605 458.11H201.615Z" fill="#F04100"/>
<path d="M458.475 201.2C450.525 201.18 444.345 194.91 444.425 186.93C444.495 178.99 450.815 172.88 458.815 173C466.545 173.12 472.585 179.26 472.615 187.02C472.645 194.98 466.435 201.22 458.475 201.19V201.2Z" fill="#F04100"/>
<path d="M187.585 309.07C195.335 309.1 201.535 315.3 201.555 323.05C201.585 331 195.175 337.3 187.205 337.15C179.495 337.01 173.395 330.68 173.485 322.92C173.575 315.18 179.825 309.04 187.585 309.07Z" fill="#F04100"/>
<path d="M337.565 187.02C337.605 194.78 331.475 201.05 323.745 201.15C315.775 201.25 309.415 194.91 309.495 186.95C309.565 179.21 315.815 173.06 323.565 173.07C331.315 173.09 337.525 179.28 337.565 187.02Z" fill="#F04100"/>
<path d="M549.695 218.12C557.375 218.21 563.605 224.59 563.515 232.27C563.425 239.95 557.045 246.17 549.355 246.09C541.675 246 535.455 239.62 535.535 231.94C535.625 224.26 542.005 218.04 549.685 218.12H549.695Z" fill="#F04100"/>
<path d="M232.375 535.12C240.065 535.04 246.425 541.28 246.505 548.96C246.575 556.65 240.345 563.01 232.665 563.09C224.975 563.17 218.615 556.93 218.535 549.25C218.455 541.56 224.695 535.2 232.375 535.12Z" fill="#F04100"/>
<path d="M291.325 594.31C291.185 601.72 284.815 607.96 277.445 607.9C269.865 607.84 263.415 601.14 263.725 593.65C264.035 586.23 270.535 580.08 277.855 580.3C285.275 580.53 291.465 586.96 291.325 594.31Z" fill="#F04100"/>
<path d="M504.575 580.16C512.185 580.19 518.495 586.55 518.475 594.15C518.445 601.76 512.085 608.07 504.485 608.05C496.875 608.02 490.565 601.66 490.585 594.06C490.615 586.45 496.975 580.14 504.575 580.16Z" fill="#F04100"/>
<path d="M608.465 503.95C608.555 511.55 602.285 517.96 594.675 518.05C587.075 518.14 580.665 511.87 580.575 504.26C580.485 496.66 586.755 490.25 594.365 490.16C601.965 490.07 608.375 496.34 608.465 503.95Z" fill="#F04100"/>
<path d="M594.275 290.91C586.855 290.74 580.635 284.36 580.715 276.99C580.795 269.4 587.515 262.98 595.005 263.32C602.445 263.66 608.555 270.17 608.315 277.48C608.065 284.9 601.605 291.08 594.275 290.91Z" fill="#F04100"/>
<path d="M246.305 232.18C246.255 239.56 239.955 245.85 232.575 245.89C225.035 245.93 218.515 239.28 218.735 231.79C218.955 224.38 225.375 218.2 232.715 218.33C240.105 218.46 246.355 224.83 246.305 232.18Z" fill="#F04100"/>
<path d="M187.355 490.44C194.715 490.33 201.075 496.54 201.185 503.94C201.295 511.3 195.085 517.66 187.685 517.77C180.325 517.88 173.965 511.67 173.855 504.27C173.745 496.91 179.955 490.55 187.355 490.44Z" fill="#F04100"/>
<path d="M518.195 187.12C518.185 194.51 511.895 200.79 504.515 200.78C497.125 200.77 490.845 194.48 490.855 187.1C490.865 179.71 497.155 173.43 504.535 173.44C511.925 173.45 518.205 179.73 518.195 187.12Z" fill="#F04100"/>
<path d="M200.875 277.06C200.905 284.51 195.135 290.37 187.705 290.46C180.065 290.55 174.075 284.56 174.175 276.91C174.275 269.48 180.155 263.72 187.595 263.76C195.045 263.8 200.845 269.61 200.875 277.06Z" fill="#F04100"/>
<path d="M290.875 187.13C290.865 194.57 285.065 200.41 277.625 200.46C269.985 200.52 264.035 194.49 264.165 186.84C264.295 179.42 270.215 173.68 277.665 173.76C285.105 173.83 290.885 179.69 290.875 187.13Z" fill="#F04100"/>
<path d="M426.705 639.33C426.605 646.82 420.725 652.45 413.165 652.29C405.695 652.14 400.115 646.21 400.325 638.63C400.525 631.36 406.265 625.87 413.605 625.92C421.115 625.96 426.795 631.78 426.695 639.33H426.705Z" fill="#F04100"/>
<path d="M639.705 426.29C632.155 426.37 626.355 420.68 626.335 413.16C626.305 405.63 632.055 399.88 639.585 399.91C646.905 399.94 652.575 405.51 652.705 412.79C652.845 420.34 647.195 426.21 639.705 426.29Z" fill="#F04100"/>
<path d="M639.765 381.27C632.235 381.38 626.415 375.71 626.355 368.23C626.305 360.71 632.025 354.95 639.525 354.95C646.825 354.95 652.525 360.5 652.685 367.74C652.845 375.28 647.225 381.16 639.765 381.27Z" fill="#F04100"/>
<path d="M381.685 639.3C381.595 646.77 375.735 652.41 368.205 652.27C360.755 652.13 355.175 646.21 355.365 638.66C355.555 631.42 361.285 625.91 368.595 625.94C376.085 625.97 381.775 631.77 381.685 639.3Z" fill="#F04100"/>
<path d="M562.545 594.29C562.455 601.46 556.645 607.15 549.465 607.12C542.095 607.09 536.285 601.05 536.505 593.66C536.725 586.51 542.635 580.92 549.835 581.08C556.995 581.23 562.635 587.09 562.545 594.29Z" fill="#F04100"/>
<path d="M458.735 652.13C451.545 652.24 445.665 646.61 445.495 639.45C445.325 632.06 451.165 626.07 458.545 626.09C465.725 626.11 471.485 631.84 471.535 639.02C471.585 646.21 465.905 652.02 458.735 652.13Z" fill="#F04100"/>
<path d="M652.545 457.9C652.645 465.09 647.015 470.96 639.855 471.13C632.465 471.3 626.485 465.45 626.505 458.07C626.525 450.89 632.265 445.13 639.445 445.09C646.635 445.05 652.445 450.73 652.545 457.9Z" fill="#F04100"/>
<path d="M607.545 548.88C607.665 556.07 602.045 561.95 594.885 562.13C587.495 562.31 581.505 556.47 581.505 549.09C581.505 541.91 587.235 536.14 594.415 536.09C601.605 536.04 607.425 541.71 607.545 548.88Z" fill="#F04100"/>
<path d="M426.445 142.81C426.015 149.9 419.705 155.51 412.695 155.01C405.595 154.51 400.055 148.14 400.625 141.14C401.185 134.23 407.275 128.83 414.115 129.17C421.215 129.52 426.875 135.78 426.455 142.8L426.445 142.81Z" fill="#F04100"/>
<path d="M142.285 400.17C149.345 400.03 155.385 405.91 155.455 413C155.525 420.08 149.585 426.05 142.505 426.04C135.615 426.04 129.795 420.36 129.585 413.46C129.375 406.41 135.205 400.31 142.285 400.17Z" fill="#F04100"/>
<path d="M652.485 322.98C652.555 330.12 646.665 336.07 639.525 336.07C632.385 336.07 626.485 330.13 626.555 322.98C626.625 316.03 632.315 310.28 639.265 310.14C646.405 310 652.405 315.83 652.485 322.98Z" fill="#F04100"/>
<path d="M323.565 626.14C330.715 626.16 336.585 632.13 336.485 639.27C336.385 646.42 330.365 652.23 323.225 652.07C316.275 651.91 310.595 646.14 310.555 639.19C310.505 632.05 316.415 626.12 323.565 626.14Z" fill="#F04100"/>
<path d="M187.455 561.92C180.625 561.87 174.745 555.99 174.705 549.16C174.665 542.16 180.875 536.07 187.835 536.29C194.685 536.5 200.465 542.51 200.335 549.3C200.205 556.14 194.265 561.97 187.455 561.92Z" fill="#F04100"/>
<path d="M232.405 581.25C239.245 581.17 245.225 586.99 245.385 593.87C245.545 600.88 239.415 607.06 232.395 606.98C225.525 606.9 219.665 600.96 219.665 594.11C219.665 587.25 225.535 581.33 232.405 581.25Z" fill="#F04100"/>
<path d="M549.445 174.29C556.245 174.24 562.205 180.06 562.345 186.9C562.485 193.88 556.355 200.03 549.365 199.92C542.525 199.81 536.685 193.87 536.715 187.06C536.745 180.23 542.615 174.34 549.455 174.29H549.445Z" fill="#F04100"/>
<path d="M594.555 219.25C601.415 219.27 607.325 225.15 607.385 232.02C607.445 239.05 601.245 245.16 594.235 244.97C587.355 244.78 581.555 238.78 581.655 231.95C581.755 225.08 587.705 219.23 594.555 219.25Z" fill="#F04100"/>
<path d="M142.525 355.19C149.605 355.19 155.595 361.29 155.435 368.36C155.285 375.26 149.405 381.02 142.515 381.02C135.425 381.02 129.445 374.92 129.605 367.85C129.755 360.95 135.635 355.19 142.525 355.19Z" fill="#F04100"/>
<path d="M381.435 142.31C381.315 149.4 375.115 155.3 368.075 155.02C361.165 154.75 355.495 148.78 355.615 141.91C355.735 134.82 361.935 128.92 368.975 129.2C375.885 129.47 381.555 135.44 381.435 142.31Z" fill="#F04100"/>
<path d="M155.225 457.93C155.345 464.8 149.475 470.77 142.575 470.81C135.695 470.85 129.775 464.92 129.825 458.04C129.875 451.33 135.495 445.61 142.225 445.41C149.065 445.21 155.105 451.03 155.225 457.94V457.93Z" fill="#F04100"/>
<path d="M458.655 129.41C465.565 129.5 471.395 135.52 471.225 142.37C471.045 149.29 464.975 155.07 458.135 154.81C451.395 154.55 445.815 148.79 445.815 142.1C445.815 135.21 451.775 129.32 458.655 129.41Z" fill="#F04100"/>
<path d="M336.075 142.14C336.055 149.11 330.185 154.84 323.245 154.66C316.455 154.49 310.955 148.85 310.975 142.08C310.995 135.11 316.865 129.38 323.805 129.56C330.595 129.73 336.095 135.37 336.075 142.14Z" fill="#F04100"/>
<path d="M142.495 310.56C149.455 310.54 155.215 316.38 155.075 323.33C154.945 330.12 149.325 335.64 142.555 335.66C135.595 335.68 129.835 329.84 129.975 322.89C130.105 316.1 135.725 310.58 142.495 310.56Z" fill="#F04100"/>
<path d="M651.915 504.16C651.885 511.07 646.505 516.47 639.595 516.5C632.505 516.54 626.965 510.9 627.125 503.8C627.285 496.92 632.795 491.61 639.695 491.7C646.595 491.79 651.945 497.25 651.915 504.15V504.16Z" fill="#F04100"/>
<path d="M232.675 199.55C225.795 199.64 220.225 194.26 220.075 187.39C219.915 180.32 225.545 174.61 232.615 174.66C239.505 174.71 244.955 180.19 244.965 187.07C244.985 193.96 239.565 199.46 232.675 199.55Z" fill="#F04100"/>
<path d="M639.645 289.35C632.635 289.41 627.285 284.11 627.285 277.11C627.285 270.11 632.645 264.82 639.655 264.88C646.445 264.94 651.655 270.1 651.765 276.87C651.875 283.9 646.635 289.3 639.645 289.35Z" fill="#F04100"/>
<path d="M187.095 244.55C180.225 244.32 174.905 238.68 175.075 231.8C175.245 224.73 181.125 219.3 188.195 219.68C195.075 220.05 200.265 225.77 199.955 232.65C199.655 239.53 193.975 244.78 187.095 244.55Z" fill="#F04100"/>
<path d="M277.275 651.35C270.305 651.24 265.115 645.78 265.285 638.74C265.455 631.79 270.975 626.65 278.015 626.88C284.765 627.1 289.815 632.41 289.755 639.23C289.695 646.22 284.305 651.46 277.275 651.35Z" fill="#F04100"/>
<path d="M504.585 651.5C497.685 651.53 492.225 646.18 492.125 639.29C492.025 632.19 497.615 626.61 504.705 626.71C511.605 626.81 516.945 632.27 516.915 639.17C516.885 646.08 511.495 651.47 504.575 651.5H504.585Z" fill="#F04100"/>
<path d="M154.585 504.12C154.585 510.84 149.335 516.12 142.635 516.18C135.715 516.23 130.335 510.79 130.455 503.85C130.575 497.16 135.925 491.98 142.655 492.04C149.355 492.1 154.595 497.4 154.585 504.12Z" fill="#F04100"/>
<path d="M492.455 141.7C492.645 135.03 498.075 129.91 504.805 130.04C511.685 130.17 516.895 135.81 516.575 142.77C516.275 149.41 510.735 154.42 503.985 154.17C497.335 153.92 492.265 148.44 492.455 141.7Z" fill="#F04100"/>
<path d="M606.465 594.34C606.325 600.93 600.585 606.33 594.035 606.05C587.645 605.77 582.445 600.24 582.575 593.87C582.715 587.28 588.455 581.88 595.005 582.17C601.395 582.45 606.595 587.98 606.465 594.35V594.34Z" fill="#F04100"/>
<path d="M289.465 142.04C289.505 148.62 283.915 154.16 277.335 154.05C270.945 153.95 265.615 148.56 265.575 142.17C265.535 135.59 271.125 130.05 277.705 130.16C284.095 130.26 289.425 135.65 289.465 142.04Z" fill="#F04100"/>
<path d="M154.465 277.35C154.315 283.94 148.575 289.34 142.025 289.04C135.635 288.76 130.435 283.22 130.575 276.85C130.725 270.26 136.465 264.87 143.015 265.16C149.405 265.44 154.605 270.97 154.465 277.35Z" fill="#F04100"/>
<path d="M582.825 186.87C582.985 180.5 588.595 175.17 594.885 175.41C601.275 175.65 606.535 181.31 606.215 187.6C605.895 193.83 600.565 198.89 594.415 198.81C588.055 198.73 582.675 193.18 582.825 186.87Z" fill="#F04100"/>
<path d="M651.225 549.3C651.095 555.66 645.505 561.02 639.205 560.81C632.815 560.6 627.535 554.96 627.825 548.67C628.115 542.46 633.435 537.37 639.585 537.41C645.935 537.46 651.345 542.98 651.215 549.3H651.225Z" fill="#F04100"/>
<path d="M549.325 627.41C555.645 627.28 561.175 632.69 561.215 639.04C561.265 645.39 555.815 650.85 549.455 650.81C543.285 650.77 538.015 645.63 537.815 639.43C537.605 633.14 542.965 627.54 549.325 627.41Z" fill="#F04100"/>
<path d="M425.145 685.11C425.145 691.53 419.665 696.9 413.265 696.73C407.015 696.57 401.895 691.33 401.895 685.1C401.895 678.68 407.375 673.31 413.775 673.48C420.025 673.64 425.145 678.88 425.145 685.11Z" fill="#F04100"/>
<path d="M199.225 594.12C199.225 600.47 193.715 605.9 187.385 605.81C181.025 605.72 175.645 600.16 175.825 593.85C175.995 587.66 181.245 582.49 187.415 582.41C193.755 582.33 199.235 587.77 199.225 594.12Z" fill="#F04100"/>
<path d="M380.055 685.16C380.025 691.45 374.885 696.6 368.595 696.65C362.125 696.7 356.795 691.27 356.985 684.81C357.165 678.51 362.415 673.47 368.695 673.57C374.995 673.68 380.085 678.87 380.055 685.16Z" fill="#F04100"/>
<path d="M639.505 220.76C645.905 220.75 650.855 225.68 650.865 232.08C650.875 238.48 645.945 243.43 639.545 243.44C633.145 243.45 628.195 238.52 628.185 232.12C628.175 225.72 633.105 220.77 639.505 220.76Z" fill="#F04100"/>
<path d="M243.865 639.3C243.765 645.68 238.735 650.55 232.335 650.46C225.955 650.36 221.085 645.33 221.185 638.93C221.285 632.55 226.315 627.68 232.715 627.78C239.095 627.88 243.965 632.91 243.875 639.31L243.865 639.3Z" fill="#F04100"/>
<path d="M379.545 96.8199C379.195 102.91 373.985 107.49 367.805 107.13C361.715 106.78 357.135 101.57 357.495 95.3899C357.845 89.2999 363.055 84.7199 369.235 85.0799C375.325 85.4299 379.905 90.6399 379.545 96.8199Z" fill="#F04100"/>
<path d="M413.375 107.18C407.175 107.11 402.385 102.18 402.455 95.9601C402.525 89.7601 407.455 84.9701 413.675 85.0401C419.875 85.1101 424.665 90.0401 424.595 96.2601C424.525 102.46 419.595 107.25 413.375 107.18Z" fill="#F04100"/>
<path d="M153.685 548.87C153.795 555.32 148.935 560.27 142.515 560.26C136.285 560.26 131.475 555.54 131.365 549.34C131.255 542.89 136.115 537.94 142.535 537.95C148.765 537.95 153.575 542.67 153.685 548.87Z" fill="#F04100"/>
<path d="M97.2349 357.08C103.325 357.43 107.905 362.64 107.545 368.82C107.195 374.91 101.985 379.49 95.8049 379.13C89.7149 378.78 85.1349 373.57 85.4949 367.39C85.8449 361.3 91.0549 356.72 97.2349 357.08Z" fill="#F04100"/>
<path d="M334.635 685.52C334.445 691.69 329.485 696.35 323.235 696.22C316.845 696.09 312.105 690.92 312.425 684.45C312.725 678.31 317.795 673.75 324.055 674C330.205 674.24 334.825 679.26 334.635 685.52Z" fill="#F04100"/>
<path d="M198.735 187.02C198.775 193.5 193.855 198.39 187.365 198.32C181.115 198.25 176.355 193.46 176.315 187.2C176.275 180.72 181.195 175.83 187.685 175.9C193.935 175.97 198.695 180.76 198.735 187.02Z" fill="#F04100"/>
<path d="M549.585 130.95C555.995 130.98 560.825 135.97 560.685 142.42C560.545 148.61 555.705 153.3 549.465 153.27C543.055 153.24 538.225 148.25 538.365 141.8C538.505 135.61 543.345 130.92 549.585 130.95Z" fill="#F04100"/>
<path d="M96.3749 424.18C90.1749 424.11 85.3849 419.18 85.4549 412.96C85.5249 406.76 90.4549 401.97 96.6749 402.04C102.875 402.11 107.665 407.04 107.595 413.26C107.525 419.46 102.595 424.25 96.3749 424.18Z" fill="#F04100"/>
<path d="M458.575 673.9C465.035 673.92 469.875 678.92 469.735 685.41C469.605 691.64 464.745 696.34 458.475 696.32C452.015 696.3 447.175 691.3 447.315 684.81C447.445 678.58 452.305 673.88 458.575 673.9Z" fill="#F04100"/>
<path d="M142.265 243.12C136.145 242.98 131.305 237.86 131.515 231.73C131.715 225.62 136.905 220.84 143.035 221.11C148.945 221.37 153.605 226.32 153.535 232.25C153.465 238.37 148.395 243.26 142.265 243.13V243.12Z" fill="#F04100"/>
<path d="M243.535 142.26C243.455 148.38 238.375 153.26 232.245 153.12C226.125 152.97 221.295 147.84 221.515 141.71C221.725 135.8 226.625 131.09 232.555 131.1C238.685 131.11 243.615 136.13 243.535 142.26Z" fill="#F04100"/>
<path d="M323.555 85.2601C329.355 85.2801 334.395 90.3401 334.375 96.1401C334.355 101.94 329.295 106.98 323.495 106.96C317.695 106.94 312.655 101.88 312.675 96.0801C312.695 90.2801 317.755 85.2401 323.555 85.2601Z" fill="#F04100"/>
<path d="M504.425 674.26C510.215 674.2 515.315 679.21 515.375 685.02C515.435 690.81 510.425 695.91 504.615 695.97C498.825 696.03 493.725 691.02 493.665 685.21C493.605 679.43 498.615 674.32 504.425 674.26Z" fill="#F04100"/>
<path d="M458.575 107.01C452.755 107.04 447.735 102.12 447.625 96.29C447.515 90.3 452.725 85.09 458.725 85.21C464.555 85.33 469.475 90.37 469.425 96.18C469.385 102.03 464.425 106.97 458.575 107.01Z" fill="#F04100"/>
<path d="M96.5749 447.21C102.425 447.24 107.375 452.18 107.425 458.03C107.475 464.04 102.215 469.19 96.2249 469.01C90.3949 468.83 85.5149 463.73 85.6249 457.94C85.7349 452.1 90.7549 447.18 96.5749 447.21Z" fill="#F04100"/>
<path d="M107.375 323.16C107.345 328.98 102.285 334 96.475 333.96C90.655 333.93 85.635 328.87 85.675 323.06C85.705 317.25 90.775 312.22 96.575 312.26C102.395 312.29 107.415 317.35 107.375 323.16Z" fill="#F04100"/>
<path d="M288.145 685.29C288.035 690.99 283.155 695.76 277.475 695.73C271.585 695.69 266.645 690.52 266.925 684.68C267.195 678.96 272.185 674.3 277.845 674.49C283.545 674.68 288.265 679.63 288.155 685.29H288.145Z" fill="#F04100"/>
<path d="M594.455 649.67C588.755 649.63 583.995 644.87 583.955 639.17C583.915 633.28 588.965 628.36 594.825 628.55C600.535 628.74 605.185 633.61 605.075 639.3C604.965 645.01 600.145 649.71 594.455 649.67Z" fill="#F04100"/>
<path d="M639.735 583.55C645.445 583.68 650.135 588.5 650.085 594.2C650.025 600.1 644.925 604.94 639.065 604.66C633.345 604.38 628.765 599.45 628.965 593.77C629.165 588.06 634.055 583.42 639.735 583.55Z" fill="#F04100"/>
<path d="M96.3949 514.31C90.4949 514.25 86.1349 509.68 86.3149 503.73C86.4849 498.04 90.8949 493.84 96.6449 493.9C102.545 493.96 106.905 498.53 106.725 504.48C106.555 510.17 102.145 514.37 96.3949 514.31Z" fill="#F04100"/>
<path d="M277.485 106.17C271.825 106.15 267.445 101.74 267.465 96.0701C267.485 90.4101 271.895 86.0301 277.565 86.0501C283.225 86.0701 287.605 90.4801 287.585 96.1501C287.565 101.81 283.155 106.19 277.485 106.17Z" fill="#F04100"/>
<path d="M96.6852 267.05C102.335 267.13 106.655 271.61 106.575 277.28C106.495 282.93 102.015 287.25 96.3452 287.17C90.6952 287.09 86.3752 282.61 86.4552 276.94C86.5352 271.29 91.0152 266.97 96.6852 267.05Z" fill="#F04100"/>
<path d="M177.415 638.39C177.745 632.77 182.365 628.71 188.125 628.99C193.955 629.27 198.105 634.12 197.625 640.08C197.175 645.66 192.445 649.61 186.685 649.21C181.085 648.82 177.085 644.15 177.425 638.39H177.415Z" fill="#F04100"/>
<path d="M604.625 142.14C604.605 147.87 600.225 152.22 594.485 152.2C588.755 152.18 584.405 147.8 584.425 142.06C584.445 136.33 588.825 131.98 594.565 132C600.295 132.02 604.645 136.4 604.625 142.14Z" fill="#F04100"/>
<path d="M152.625 594.28C152.545 599.99 148.095 604.29 142.355 604.21C136.645 604.13 132.345 599.68 132.425 593.94C132.505 588.23 136.955 583.93 142.695 584.01C148.405 584.09 152.705 588.54 152.625 594.28Z" fill="#F04100"/>
<path d="M649.645 187.03C649.685 192.75 645.415 197.14 639.725 197.24C633.805 197.34 629.315 192.86 629.395 186.94C629.475 181.24 633.845 176.96 639.565 176.98C645.275 177 649.615 181.32 649.645 187.03Z" fill="#F04100"/>
<path d="M504.715 106.31C498.755 106.4 494.295 101.99 494.325 96.05C494.355 90.33 498.635 85.99 504.345 85.91C510.305 85.82 514.765 90.23 514.735 96.18C514.705 101.9 510.425 106.24 504.715 106.32V106.31Z" fill="#F04100"/>
<path d="M549.635 695.06C544.295 695.12 539.705 690.7 539.575 685.35C539.435 679.82 544.125 675.08 549.665 675.17C555.025 675.25 559.485 679.78 559.475 685.13C559.475 690.48 554.995 695 549.635 695.06Z" fill="#F04100"/>
<path d="M187.355 152C182.055 151.9 177.525 147.22 177.635 141.95C177.735 136.65 182.415 132.12 187.685 132.23C192.985 132.33 197.515 137.01 197.405 142.28C197.305 147.58 192.625 152.1 187.355 152Z" fill="#F04100"/>
<path d="M132.635 186.72C132.875 181.42 137.665 176.98 142.915 177.22C148.215 177.46 152.655 182.25 152.415 187.5C152.175 192.8 147.385 197.24 142.135 197C136.835 196.76 132.395 191.97 132.635 186.72Z" fill="#F04100"/>
<path d="M242.245 685.1C242.245 690.38 237.525 694.99 232.275 694.83C227.165 694.67 222.795 690.19 222.795 685.11C222.795 679.83 227.515 675.22 232.765 675.38C237.875 675.54 242.245 680.02 242.245 685.1Z" fill="#F04100"/>
<path d="M368.395 720.58C373.645 720.5 377.975 724.71 378.055 729.97C378.135 735.22 373.925 739.55 368.665 739.63C363.415 739.71 359.085 735.5 359.005 730.24C358.925 724.99 363.135 720.66 368.395 720.58Z" fill="#F04100"/>
<path d="M413.665 739.7C408.505 739.78 404.095 735.56 403.935 730.37C403.775 725.02 408.265 720.45 413.635 720.52C418.815 720.59 423.105 724.92 423.115 730.09C423.115 735.26 418.845 739.61 413.665 739.69V739.7Z" fill="#F04100"/>
<path d="M96.4453 558.47C91.0953 558.43 87.0553 554.26 87.1653 548.9C87.2753 543.56 91.4953 539.57 96.8553 539.74C101.995 539.91 105.865 543.89 105.885 549.06C105.905 554.42 101.805 558.51 96.4453 558.46V558.47Z" fill="#F04100"/>
<path d="M458.455 720.91C463.675 720.88 467.625 724.73 467.715 729.92C467.805 735.33 463.745 739.4 458.335 739.31C453.145 739.22 449.295 735.27 449.325 730.06C449.355 724.85 453.245 720.95 458.455 720.92V720.91Z" fill="#F04100"/>
<path d="M558.885 95.9799C558.955 101.34 554.885 105.47 549.525 105.47C544.165 105.47 540.095 101.35 540.165 95.9899C540.225 90.8299 544.125 86.8799 549.275 86.7499C554.635 86.6199 558.815 90.6399 558.885 95.9799Z" fill="#F04100"/>
<path d="M241.625 96.26C241.555 101.39 237.525 105.29 232.365 105.21C227.235 105.14 223.335 101.11 223.415 95.95C223.485 90.82 227.515 86.92 232.675 87C237.815 87.07 241.705 91.1 241.625 96.26Z" fill="#F04100"/>
<path d="M332.625 730.32C332.525 735.44 328.465 739.32 323.305 739.21C318.185 739.11 314.305 735.05 314.415 729.89C314.515 724.77 318.575 720.89 323.735 721C328.855 721.1 332.735 725.16 332.625 730.32Z" fill="#F04100"/>
<path d="M105.625 232.26C105.555 237.4 101.535 241.29 96.375 241.22C91.235 241.15 87.345 237.13 87.415 231.97C87.485 226.83 91.515 222.94 96.665 223.01C101.805 223.08 105.695 227.1 105.625 232.26Z" fill="#F04100"/>
<path d="M42.5449 368.12C42.5449 363.26 46.5149 359.2 51.3849 359.13C56.4449 359.05 60.6349 363.28 60.5049 368.34C60.3749 373.2 56.2849 377.14 51.4149 377.08C46.5549 377.02 42.5549 372.98 42.5449 368.12Z" fill="#F04100"/>
<path d="M60.5249 413.09C60.5349 418.14 56.3449 422.24 51.2949 422.11C46.4449 421.99 42.5349 417.98 42.5249 413.12C42.5149 408.07 46.7049 403.97 51.7549 404.1C56.6049 404.22 60.5149 408.23 60.5249 413.09Z" fill="#F04100"/>
<path d="M422.525 51.0201C422.575 55.8701 418.705 59.9401 413.865 60.1101C408.815 60.2901 404.575 56.2501 404.525 51.2001C404.475 46.1501 408.635 42.0201 413.685 42.1101C418.545 42.1901 422.485 46.1601 422.535 51.0201H422.525Z" fill="#F04100"/>
<path d="M377.495 51.3101C377.385 56.1701 373.295 60.1301 368.435 60.0801C363.375 60.0301 359.285 55.6901 359.545 50.6501C359.795 45.8001 364.005 41.9501 368.845 42.1301C373.705 42.3101 377.605 46.4501 377.495 51.3101Z" fill="#F04100"/>
<path d="M648.585 639.06C648.605 644.18 644.575 648.21 639.445 648.17C634.325 648.13 630.365 644.04 630.465 638.91C630.565 634 634.445 630.14 639.355 630.05C644.485 629.96 648.565 633.95 648.585 639.06Z" fill="#F04100"/>
<path d="M513.315 729.94C513.425 734.68 509.185 738.96 504.435 738.9C499.865 738.85 495.825 734.85 495.725 730.27C495.615 725.53 499.855 721.25 504.605 721.31C509.185 721.36 513.215 725.36 513.315 729.94Z" fill="#F04100"/>
<path d="M458.305 59.9001C453.525 59.7601 449.445 55.3401 449.735 50.6301C450.025 46.0301 454.205 42.1701 458.745 42.3001C463.525 42.4401 467.605 46.8601 467.315 51.5701C467.025 56.1701 462.845 60.0301 458.305 59.9001Z" fill="#F04100"/>
<path d="M594.275 676.31C599.005 676.16 603.315 680.35 603.315 685.11C603.315 689.67 599.345 693.75 594.765 693.9C590.025 694.05 585.725 689.86 585.725 685.1C585.725 680.54 589.695 676.46 594.275 676.31Z" fill="#F04100"/>
<path d="M60.315 458.07C60.345 462.83 56.045 467.04 51.305 466.91C46.725 466.78 42.745 462.73 42.715 458.15C42.685 453.39 46.985 449.18 51.725 449.31C56.315 449.44 60.285 453.49 60.315 458.07Z" fill="#F04100"/>
<path d="M151.275 639.08C151.295 643.81 147.015 648 142.305 647.86C137.755 647.72 133.795 643.68 133.775 639.14C133.755 634.41 138.035 630.22 142.745 630.36C147.295 630.5 151.255 634.54 151.275 639.08Z" fill="#F04100"/>
<path d="M648.275 141.88C648.415 146.59 644.235 150.87 639.505 150.86C634.965 150.85 630.915 146.89 630.775 142.34C630.635 137.63 634.815 133.35 639.545 133.37C644.085 133.38 648.135 137.34 648.275 141.89V141.88Z" fill="#F04100"/>
<path d="M323.465 59.7601C318.885 59.7301 314.905 55.7601 314.865 51.1801C314.815 46.4201 319.085 42.2601 323.825 42.4501C328.425 42.6301 332.285 46.7201 332.175 51.2801C332.065 55.8701 328.035 59.7901 323.465 59.7601Z" fill="#F04100"/>
<path d="M60.175 323.31C60.055 327.9 56.015 331.81 51.445 331.77C46.665 331.72 42.595 327.4 42.875 322.67C43.145 318.07 47.305 314.27 51.845 314.46C56.445 314.66 60.295 318.75 60.175 323.31Z" fill="#F04100"/>
<path d="M286.055 730.23C285.985 734.91 282.065 738.72 277.395 738.65C272.715 738.58 268.905 734.66 268.975 729.99C269.045 725.31 272.965 721.5 277.635 721.57C282.315 721.64 286.125 725.56 286.055 730.23Z" fill="#F04100"/>
<path d="M602.705 96.2C602.655 100.88 599.115 104.34 594.425 104.29C589.745 104.24 586.285 100.7 586.335 96.01C586.385 91.33 589.925 87.87 594.615 87.92C599.295 87.97 602.755 91.51 602.705 96.2Z" fill="#F04100"/>
<path d="M142.615 150.29C137.925 150.34 134.385 146.88 134.335 142.2C134.285 137.51 137.745 133.97 142.425 133.92C147.115 133.87 150.655 137.33 150.705 142.01C150.755 146.7 147.295 150.24 142.615 150.29Z" fill="#F04100"/>
<path d="M96.425 585.92C101.115 585.87 104.655 589.33 104.705 594.01C104.755 598.7 101.295 602.24 96.615 602.29C91.925 602.34 88.385 598.88 88.335 594.2C88.285 589.51 91.745 585.97 96.425 585.92Z" fill="#F04100"/>
<path d="M187.545 693.46C182.735 693.47 179.055 689.69 179.175 684.88C179.285 680.28 182.895 676.77 187.505 676.76C192.315 676.75 195.995 680.53 195.875 685.34C195.765 689.94 192.155 693.45 187.545 693.46Z" fill="#F04100"/>
<path d="M51.5552 269.13C55.8752 269.15 59.4452 272.7 59.4952 277.02C59.5452 281.52 55.7352 285.25 51.2352 285.08C46.9252 284.92 43.4552 281.25 43.5452 276.95C43.6352 272.64 47.2452 269.11 51.5552 269.13Z" fill="#F04100"/>
<path d="M195.465 96.49C195.245 100.78 191.395 104.27 187.135 104.05C182.845 103.83 179.355 99.98 179.575 95.72C179.795 91.43 183.645 87.94 187.905 88.16C192.195 88.38 195.685 92.23 195.465 96.49Z" fill="#F04100"/>
<path d="M51.7649 512.17C47.1549 512.3 43.5149 508.82 43.4549 504.23C43.3949 499.62 46.9149 496.04 51.5249 496.05C55.9349 496.05 59.4049 499.37 59.5849 503.75C59.7749 508.36 56.3449 512.06 51.7649 512.18V512.17Z" fill="#F04100"/>
<path d="M512.585 51.1001C512.585 55.7101 509.015 59.2301 504.405 59.1701C499.815 59.1101 496.335 55.4701 496.465 50.8601C496.585 46.4701 500.005 43.1001 504.405 43.0401C509.015 42.9701 512.595 46.5001 512.595 51.1001H512.585Z" fill="#F04100"/>
<path d="M104.465 187.03C104.515 191.32 100.905 195.01 96.605 195.05C92.315 195.1 88.625 191.49 88.585 187.19C88.535 182.9 92.145 179.21 96.445 179.17C100.735 179.12 104.425 182.73 104.465 187.03Z" fill="#F04100"/>
<path d="M285.495 50.8999C285.605 55.1999 282.155 58.8999 277.845 59.0799C273.355 59.2699 269.515 55.5599 269.545 51.0599C269.575 46.7399 273.125 43.1799 277.445 43.1299C281.755 43.0799 285.385 46.5899 285.495 50.8999Z" fill="#F04100"/>
<path d="M549.645 737.97C545.445 738.04 541.665 734.31 541.665 730.1C541.665 725.89 545.465 722.16 549.655 722.24C553.675 722.32 557.245 725.84 557.385 729.86C557.535 734.04 553.855 737.89 549.645 737.96V737.97Z" fill="#F04100"/>
<path d="M232.355 722.71C236.435 722.62 239.705 725.65 239.925 729.7C240.145 733.97 236.955 737.43 232.695 737.52C228.415 737.61 225.085 734.31 225.125 730.04C225.165 725.96 228.285 722.81 232.355 722.72V722.71Z" fill="#F04100"/>
<path d="M542.465 51.25C542.395 47.38 545.295 44.24 549.125 44.05C553.195 43.84 556.495 46.9 556.575 50.96C556.655 55.02 553.485 58.22 549.415 58.16C545.545 58.11 542.535 55.12 542.465 51.25Z" fill="#F04100"/>
<path d="M639.445 678.05C643.315 678.01 646.415 680.94 646.585 684.78C646.755 688.85 643.675 692.12 639.615 692.17C635.555 692.21 632.385 689.01 632.475 684.95C632.555 681.08 635.575 678.1 639.445 678.06V678.05Z" fill="#F04100"/>
<path d="M58.5749 549.27C58.4849 553.32 55.1749 556.38 51.1049 556.16C47.2649 555.95 44.3749 552.81 44.4649 548.94C44.5549 544.89 47.8649 541.83 51.9349 542.05C55.7749 542.26 58.6649 545.4 58.5749 549.27Z" fill="#F04100"/>
<path d="M413.325 768.08C417.165 767.98 420.385 770.96 420.555 774.79C420.735 778.83 417.515 782.17 413.475 782.14C409.625 782.11 406.535 779.03 406.495 775.19C406.455 771.34 409.485 768.19 413.325 768.09V768.08Z" fill="#F04100"/>
<path d="M368.555 782.06C364.825 782.08 361.585 778.87 361.565 775.14C361.545 771.41 364.745 768.17 368.485 768.15C372.215 768.13 375.455 771.33 375.475 775.07C375.495 778.8 372.295 782.04 368.555 782.06Z" fill="#F04100"/>
<path d="M451.715 774.73C451.945 771.18 455.265 768.15 458.775 768.3C462.535 768.46 465.685 772.05 465.295 775.73C464.915 779.31 461.525 782.19 458.015 781.9C454.445 781.6 451.485 778.23 451.705 774.73H451.715Z" fill="#F04100"/>
<path d="M58.4449 232.22C58.3749 235.95 55.0049 239.16 51.2949 239.03C47.5649 238.89 44.255 235.43 44.655 231.76C45.095 227.78 47.4849 225.43 51.5249 225.24C55.2449 225.06 58.5249 228.51 58.4549 232.23L58.4449 232.22Z" fill="#F04100"/>
<path d="M232.435 44.19C236.165 44.14 239.465 47.41 239.445 51.14C239.425 54.87 236.085 58.26 232.375 57.99C228.355 57.69 225.985 55.33 225.655 51.32C225.345 47.62 228.715 44.24 232.445 44.19H232.435Z" fill="#F04100"/>
<path d="M149.265 684.9C149.385 688.39 146.375 691.66 142.855 691.86C139.175 692.07 135.755 688.79 135.775 685.08C135.795 681.54 138.895 678.42 142.435 678.37C145.955 678.32 149.145 681.37 149.265 684.91V684.9Z" fill="#F04100"/>
<path d="M646.085 95.9499C646.175 99.5699 643.185 102.65 639.555 102.67C635.925 102.69 632.785 99.6399 632.995 96.0199C633.215 92.1799 635.425 89.9199 639.245 89.5799C642.835 89.2599 645.995 92.3199 646.085 95.9499Z" fill="#F04100"/>
<path d="M330.085 775.32C329.965 778.94 326.785 781.86 323.185 781.67C319.565 781.47 316.595 778.23 317.005 774.65C317.445 770.83 319.775 768.7 323.615 768.58C327.235 768.47 330.205 771.7 330.085 775.32Z" fill="#F04100"/>
<path d="M96.3449 645.67C92.7249 645.56 89.7849 642.41 89.9649 638.8C90.1449 635.18 93.3649 632.19 96.9549 632.59C100.775 633.02 102.925 635.33 103.055 639.17C103.185 642.79 99.9649 645.78 96.3449 645.67Z" fill="#F04100"/>
<path d="M594.445 736.41C590.565 736.02 588.255 733.98 588.315 730.03C588.375 726.09 590.675 723.86 594.605 723.91C598.545 723.96 600.765 726.26 600.725 730.19C600.695 734.16 598.305 736.11 594.435 736.41H594.445Z" fill="#F04100"/>
<path d="M12.6949 413.17C12.3349 416.79 10.4849 418.99 6.73491 419.2C3.13491 419.4 0.404914 416.67 0.424914 413.07C0.444914 409.49 3.23491 406.78 6.82491 407.02C10.5649 407.28 12.3949 409.5 12.7049 413.17H12.6949Z" fill="#F04100"/>
<path d="M419.635 5.90011C419.745 9.50011 417.075 12.3101 413.485 12.1901C409.765 12.0601 407.665 10.0201 407.445 6.31011C407.225 2.72011 409.975 -0.0198912 413.575 0.000108787C416.965 0.0201088 419.535 2.53011 419.645 5.90011H419.635Z" fill="#F04100"/>
<path d="M369.195 0.0300497C372.165 0.33005 374.355 2.16005 374.585 5.88005C374.795 9.43005 372.065 12.1901 368.505 12.18C364.955 12.17 362.305 9.39005 362.445 5.83005C362.585 2.49005 365.185 0.0100497 369.195 0.0200497V0.0300497Z" fill="#F04100"/>
<path d="M12.6649 368.15C12.2949 371.75 10.4549 373.94 6.73493 374.16C3.18493 374.37 0.424932 371.62 0.444932 368.07C0.464932 364.52 3.25493 361.8 6.80493 362.05C10.5249 362.31 12.3349 364.52 12.6649 368.15Z" fill="#F04100"/>
<path d="M148.555 96.36C147.965 99.91 146.005 102.18 142.295 102.02C138.625 101.85 136.465 99.56 136.615 95.88C136.765 92.21 139.075 90.06 142.755 90.2C146.455 90.33 148.265 92.7201 148.565 96.3701L148.555 96.36Z" fill="#F04100"/>
<path d="M58.0953 595.41C55.8653 596.9 53.7553 599.35 51.3653 599.66C48.0453 600.1 45.7453 597.46 45.8253 593.99C45.9053 590.54 48.2853 587.97 51.6053 588.56C53.9853 588.98 55.9853 591.51 58.1553 593.09C58.1353 593.86 58.1153 594.64 58.1053 595.41H58.0953Z" fill="#F04100"/>
<path d="M187.255 736.12C183.665 735.47 181.365 733.46 181.645 729.72C181.915 726.05 184.315 723.93 188.035 724.23C191.465 724.51 193.525 726.76 193.415 730.24C193.295 733.98 190.905 735.8 187.255 736.12Z" fill="#F04100"/>
<path d="M96.3649 136.07C99.9949 136.43 102.365 138.25 102.435 141.97C102.515 145.65 100.345 147.93 96.6649 148.02C92.9849 148.11 90.7149 145.93 90.6049 142.26C90.4949 138.54 92.7849 136.62 96.3549 136.08L96.3649 136.07Z" fill="#F04100"/>
<path d="M498.465 775.39C498.975 771.5 500.885 769.14 504.625 769.23C508.325 769.32 510.515 771.64 510.405 775.34C510.305 778.79 508.125 780.93 504.655 781C500.885 781.08 499.065 778.67 498.455 775.39H498.465Z" fill="#F04100"/>
<path d="M593.485 57.74C591.905 55.57 589.385 53.56 588.965 51.18C588.385 47.86 590.955 45.49 594.405 45.41C597.875 45.33 600.515 47.64 600.065 50.96C599.745 53.35 597.295 55.45 595.805 57.68C595.035 57.7 594.255 57.71 593.485 57.73V57.74Z" fill="#F04100"/>
<path d="M5.22524 329.68C3.73524 327.45 1.28524 325.34 0.975243 322.95C0.535243 319.63 3.17524 317.33 6.64524 317.41C10.0952 317.49 12.6652 319.87 12.0752 323.19C11.6552 325.57 9.12524 327.57 7.53524 329.74C6.76524 329.72 5.99524 329.7 5.21524 329.68H5.22524Z" fill="#F04100"/>
<path d="M464.545 6.12003C464.045 9.74003 462.135 12.1 458.385 11.99C454.685 11.88 452.505 9.55003 452.635 5.85003C452.755 2.40003 454.945 0.260027 458.405 0.220027C462.155 0.170027 464.055 2.50003 464.535 6.12003H464.545Z" fill="#F04100"/>
<path d="M278.555 768.48C280.135 770.65 282.655 772.66 283.075 775.03C283.655 778.35 281.085 780.72 277.635 780.8C274.165 780.88 271.525 778.57 271.975 775.25C272.295 772.86 274.745 770.76 276.245 768.53C277.015 768.51 277.795 768.5 278.565 768.48H278.555Z" fill="#F04100"/>
<path d="M12.5749 457.87C12.0449 461.74 10.1249 464.1 6.3849 463.99C2.6849 463.88 0.504899 461.55 0.634899 457.85C0.754899 454.4 2.9449 452.27 6.4049 452.22C10.1649 452.17 11.9849 454.57 12.5649 457.88L12.5749 457.87Z" fill="#F04100"/>
<path d="M330.095 7.40992C327.865 8.89992 325.755 11.3499 323.365 11.6599C320.045 12.0999 317.745 9.45992 317.825 5.98992C317.905 2.53992 320.285 -0.030084 323.605 0.559916C325.985 0.979916 327.985 3.50992 330.155 5.08992C330.135 5.85992 330.115 6.63992 330.105 7.40992H330.095Z" fill="#F04100"/>
<path d="M185.795 56.9601C184.665 54.7901 182.415 52.4401 182.725 50.5001C183.005 48.7501 185.955 46.4201 187.955 46.1801C191.255 45.7801 193.305 48.5401 192.465 51.7101C191.925 53.7601 189.665 55.3501 188.185 57.1501C187.385 57.0801 186.595 57.0201 185.795 56.9501V56.9601Z" fill="#F04100"/>
<path d="M57.505 185.91C56.445 190.43 54.555 192.82 51.355 192.03C49.405 191.55 47.005 189.05 46.595 187.08C45.925 183.84 48.455 181.53 51.715 182.13C53.805 182.51 55.585 184.59 57.505 185.91Z" fill="#F04100"/>
<path d="M510.235 7.53993C508.215 8.72993 505.945 11.1199 504.235 10.7699C502.395 10.3999 500.085 7.54993 499.895 5.58993C499.765 4.26993 502.935 1.43993 504.635 1.42993C506.545 1.42993 508.455 3.83993 510.365 5.19993L510.235 7.52993V7.53993Z" fill="#F04100"/>
<path d="M12.2752 505.39C10.2852 506.63 8.09517 509.07 6.37517 508.77C4.52517 508.45 2.13517 505.68 1.88517 503.73C1.71517 502.41 4.79517 499.49 6.49517 499.43C8.39517 499.37 10.3852 501.73 12.3352 503.03C12.3152 503.82 12.2952 504.6 12.2752 505.39Z" fill="#F04100"/>
<path d="M270.605 5.92011C273.915 3.75011 275.945 1.38011 277.605 1.62011C279.365 1.87011 280.765 4.60011 282.325 6.24011C280.675 7.80011 279.125 10.4501 277.365 10.6001C275.695 10.7401 273.795 8.27011 270.605 5.92011Z" fill="#F04100"/>
<path d="M6.71498 284.02C4.36498 280.83 1.89498 278.94 2.03498 277.26C2.18498 275.49 4.83498 273.94 6.39498 272.3C8.03498 273.86 10.765 275.26 11.015 277.02C11.245 278.68 8.88498 280.71 6.71498 284.02Z" fill="#F04100"/>
<path d="M556.435 775.29C553.135 777.46 551.105 779.84 549.445 779.6C547.685 779.36 545.025 776.6 545.065 775C545.105 773.4 547.905 770.78 549.665 770.62C551.335 770.47 553.235 772.95 556.425 775.29H556.435Z" fill="#F04100"/>
<path d="M232.775 768.73C234.735 771.84 236.855 773.73 236.615 775.24C236.355 776.84 233.865 778.08 232.345 779.48C230.945 777.96 228.555 776.52 228.435 774.9C228.315 773.38 230.585 771.67 232.785 768.73H232.775Z" fill="#F04100"/>
<path d="M639.775 736.48C637.575 733.54 635.315 731.83 635.435 730.3C635.565 728.68 637.905 726.1 639.365 726.05C640.825 725.99 643.365 728.37 643.625 729.98C643.865 731.49 641.745 733.37 639.785 736.48H639.775Z" fill="#F04100"/>
<path d="M6.76505 554.64C4.84505 552.21 2.68505 550.62 2.89505 549.46C3.18505 547.88 5.27505 546.62 6.59505 545.23C7.86505 546.51 9.98505 547.68 10.1651 549.09C10.3351 550.44 8.47505 552.04 6.77505 554.64H6.76505Z" fill="#F04100"/>
<path d="M102.555 685.34C99.5751 687.19 97.8151 689.16 96.4051 688.93C94.9051 688.69 93.7451 686.37 92.4351 684.96C93.8451 683.65 95.1851 681.43 96.6951 681.3C98.1151 681.18 99.7251 683.27 102.555 685.34Z" fill="#F04100"/>
<path d="M148.045 730.42C145.415 732.09 143.615 734.07 142.485 733.74C140.945 733.29 139.915 731.08 138.665 729.63C140.075 728.5 141.455 726.5 142.885 726.47C144.245 726.44 145.645 728.47 148.045 730.42Z" fill="#F04100"/>
<path d="M549.385 0.580068C551.265 3.05007 553.385 4.68007 553.155 5.83007C552.835 7.41007 550.725 8.62007 549.385 9.99007C548.135 8.69007 546.045 7.48007 545.895 6.06007C545.755 4.71007 547.645 3.15007 549.395 0.570068L549.385 0.580068Z" fill="#F04100"/>
<path d="M56.5852 639.16C54.1552 640.79 52.7152 642.51 51.5152 642.35C50.2452 642.18 48.2952 640.23 48.3052 639.07C48.3152 637.91 50.3052 636 51.5752 635.86C52.7752 635.73 54.1852 637.48 56.5752 639.15L56.5852 639.16Z" fill="#F04100"/>
<path d="M413.655 815.04C415.245 817.5 416.935 818.97 416.765 820.17C416.575 821.44 414.585 823.35 413.435 823.32C412.285 823.29 410.405 821.27 410.285 819.99C410.175 818.79 411.945 817.41 413.665 815.04H413.655Z" fill="#F04100"/>
<path d="M368.385 825.17C366.795 822.71 365.105 821.24 365.275 820.04C365.465 818.77 367.425 817.76 368.615 816.63C369.735 817.82 371.645 818.93 371.755 820.22C371.865 821.42 370.095 822.8 368.375 825.17H368.385Z" fill="#F04100"/>
<path d="M6.57522 237.17C4.89522 234.77 3.14522 233.37 3.28522 232.17C3.42522 230.89 5.34522 229.81 6.49522 228.64C7.66522 229.78 9.60522 230.83 9.77522 232.1C9.93522 233.3 8.21522 234.74 6.58522 237.17H6.57522Z" fill="#F04100"/>
<path d="M96.745 101.17C94.995 98.8399 93.195 97.4899 93.285 96.2799C93.385 94.9999 95.265 93.8499 96.375 92.6399C97.585 93.7399 99.565 94.7199 99.775 95.9899C99.975 97.1799 98.295 98.6799 96.755 101.17H96.745Z" fill="#F04100"/>
<path d="M232.385 11.1699C230.795 8.70988 229.105 7.23988 229.275 6.03988C229.465 4.76988 231.425 3.75988 232.615 2.62988C233.735 3.81988 235.645 4.92988 235.755 6.21988C235.865 7.41988 234.095 8.79988 232.375 11.1699H232.385Z" fill="#F04100"/>
<path d="M644.585 51.2401C642.125 52.8301 640.655 54.5201 639.455 54.3501C638.185 54.1601 637.175 52.2001 636.045 51.0101C637.235 49.8901 638.345 47.9801 639.635 47.8701C640.835 47.7601 642.215 49.5301 644.585 51.2501V51.2401Z" fill="#F04100"/>
<path d="M142.305 55.57C140.955 53.32 139.455 51.91 139.685 50.88C139.925 49.76 141.695 48.48 142.955 48.27C143.655 48.16 145.435 50.16 145.375 51.12C145.305 52.33 143.845 53.46 142.305 55.57Z" fill="#F04100"/>
<path d="M55.9749 141.8C53.8949 143.39 52.6849 145.04 51.6249 144.95C50.4949 144.85 48.9949 143.24 48.6749 142.02C48.4849 141.31 50.2349 139.31 51.1949 139.26C52.4049 139.19 53.6949 140.51 55.9749 141.81V141.8Z" fill="#F04100"/>
<path d="M598.985 774.98C596.845 776.49 595.565 778.08 594.505 777.95C593.385 777.8 591.955 776.14 591.675 774.9C591.515 774.19 593.355 772.27 594.315 772.25C595.535 772.23 596.765 773.59 598.995 774.98H598.985Z" fill="#F04100"/>
<path d="M458.195 815.67C459.795 817.72 461.265 818.8 461.375 820.01C461.465 820.94 459.745 822.94 459.015 822.86C457.755 822.71 455.935 821.48 455.685 820.39C455.445 819.36 456.905 817.92 458.195 815.66V815.67Z" fill="#F04100"/>
<path d="M325.675 822.16C324.015 821.68 322.365 821.2 320.705 820.72C320.495 820.3 320.285 819.87 320.075 819.45C321.555 818.7 323.135 817.24 324.485 817.43C325.445 817.57 326.075 819.93 326.855 821.3C326.465 821.59 326.065 821.87 325.675 822.16Z" fill="#F04100"/>
</g>
<defs>
<clipPath id="clip0_2385_8833">
<rect width="825.17" height="825.17" fill="white" transform="translate(0.415039)"/>
</clipPath>
</defs>
</svg>
