<svg width="391" height="469" viewBox="0 0 391 469" fill="none" xmlns="http://www.w3.org/2000/svg">
<g clip-path="url(#clip0_2386_9414)">
<path d="M246.069 235.136C246.046 241.284 241.198 246.092 235.045 246.069C228.897 246.046 224.089 241.198 224.112 235.045C224.135 228.897 228.982 224.089 235.136 224.112C241.284 224.135 246.092 228.982 246.069 235.136Z" fill="#E7E7E7"/>
<path d="M209.478 224.22C215.648 224.191 220.445 228.988 220.411 235.164C220.383 241.199 215.643 245.933 209.608 245.956C203.438 245.984 198.641 241.187 198.675 235.011C198.704 228.977 203.444 224.243 209.478 224.22Z" fill="#E7E7E7"/>
<path d="M245.955 209.654C245.91 215.796 241.034 220.513 234.835 220.417C228.829 220.32 224.174 215.506 224.214 209.438C224.26 203.296 229.136 198.579 235.335 198.675C241.34 198.772 245.995 203.586 245.955 209.654Z" fill="#E7E7E7"/>
<path d="M209.33 220.36C203.376 220.275 198.67 215.41 198.732 209.398C198.789 203.319 203.75 198.579 209.904 198.732C215.836 198.879 220.479 203.807 220.36 209.83C220.246 215.773 215.347 220.445 209.33 220.36Z" fill="#E7E7E7"/>
<path d="M271.165 234.96C271.256 240.784 266.465 245.626 260.624 245.621C254.885 245.615 250.196 240.977 250.105 235.221C250.014 229.397 254.805 224.555 260.646 224.561C266.385 224.566 271.074 229.204 271.165 234.96Z" fill="#E7E7E7"/>
<path d="M234.971 271.165C229.113 271.08 224.384 266.181 224.566 260.374C224.742 254.607 229.499 250.026 235.215 250.105C241.074 250.19 245.802 255.089 245.621 260.896C245.445 266.664 240.688 271.245 234.971 271.165Z" fill="#E7E7E7"/>
<path d="M219.991 260.709C219.945 266.533 215.296 271.12 209.472 271.074C203.648 271.029 199.061 266.38 199.107 260.556C199.152 254.732 203.801 250.145 209.625 250.19C215.449 250.236 220.036 254.885 219.991 260.709Z" fill="#E7E7E7"/>
<path d="M271.08 209.597C271.046 215.427 266.408 220.019 260.584 219.985C254.754 219.951 250.162 215.313 250.196 209.489C250.23 203.659 254.868 199.067 260.692 199.101C266.522 199.135 271.114 203.773 271.08 209.597Z" fill="#E7E7E7"/>
<path d="M184.047 245.405C178.183 245.422 173.647 240.869 173.687 234.994C173.727 229.266 178.217 224.793 183.956 224.776C189.82 224.759 194.355 229.312 194.316 235.187C194.276 240.914 189.786 245.388 184.047 245.405Z" fill="#E7E7E7"/>
<path d="M194.282 209.671C194.23 215.387 189.695 219.849 183.944 219.826C178.103 219.803 173.613 215.166 173.721 209.279C173.823 203.591 178.432 199.186 184.2 199.265C189.899 199.339 194.333 203.92 194.282 209.671Z" fill="#E7E7E7"/>
<path d="M235.102 194.315C229.244 194.315 224.725 189.746 224.776 183.871C224.827 178.149 229.334 173.692 235.079 173.687C240.937 173.687 245.456 178.256 245.405 184.132C245.354 189.859 240.846 194.31 235.102 194.315Z" fill="#E7E7E7"/>
<path d="M219.826 183.757C219.923 189.53 215.54 194.157 209.858 194.282C203.96 194.412 199.3 189.939 199.26 184.103C199.22 178.347 203.659 173.789 209.37 173.721C215.132 173.653 219.73 178.064 219.826 183.757Z" fill="#E7E7E7"/>
<path d="M260.584 270.825C254.942 270.796 250.332 266.085 250.44 260.442C250.542 254.913 255.146 250.412 260.681 250.44C266.323 250.468 270.933 255.18 270.825 260.823C270.723 266.352 266.119 270.853 260.584 270.825Z" fill="#E7E7E7"/>
<path d="M184.132 270.751C178.682 270.842 173.976 266.255 173.886 260.766C173.795 255.31 178.381 250.61 183.871 250.519C189.326 250.429 194.026 255.015 194.117 260.505C194.208 265.96 189.627 270.66 184.132 270.751Z" fill="#E7E7E7"/>
<path d="M270.751 184.03C270.728 189.508 266.073 194.14 260.607 194.117C255.129 194.094 250.497 189.439 250.519 183.973C250.542 178.495 255.197 173.863 260.663 173.886C266.141 173.908 270.773 178.563 270.751 184.03Z" fill="#E7E7E7"/>
<path d="M193.969 184.03C193.946 189.473 189.479 193.941 184.041 193.969C178.5 193.998 173.908 189.343 174.033 183.825C174.152 178.364 178.688 173.959 184.103 174.027C189.553 174.096 193.992 178.597 193.969 184.03Z" fill="#E7E7E7"/>
<path d="M296.568 234.977C296.625 240.534 292.333 244.888 286.787 244.911C281.236 244.934 276.91 240.608 276.927 235.062C276.944 229.624 281.145 225.355 286.566 225.27C292.123 225.185 296.517 229.442 296.568 234.977Z" fill="#E7E7E7"/>
<path d="M235.107 296.568C229.561 296.579 225.242 292.248 225.264 286.696C225.287 281.15 229.652 276.87 235.204 276.927C240.631 276.984 244.86 281.224 244.905 286.657C244.951 292.208 240.648 296.556 235.107 296.568Z" fill="#E7E7E7"/>
<path d="M219.327 286.628C219.378 292.214 215.092 296.54 209.523 296.528C204.068 296.517 199.816 292.311 199.765 286.867C199.714 281.281 203.994 276.955 209.569 276.967C215.024 276.978 219.276 281.185 219.327 286.628Z" fill="#E7E7E7"/>
<path d="M286.73 219.327C281.162 219.321 276.893 214.978 276.961 209.393C277.029 203.954 281.298 199.759 286.753 199.765C292.322 199.771 296.591 204.113 296.523 209.699C296.454 215.137 292.186 219.332 286.73 219.327Z" fill="#E7E7E7"/>
<path d="M148.21 234.846C148.313 229.471 152.752 225.276 158.195 225.412C163.566 225.548 167.726 230.021 167.556 235.471C167.392 240.722 163.032 244.837 157.713 244.763C152.326 244.69 148.103 240.285 148.205 234.846H148.21Z" fill="#E7E7E7"/>
<path d="M244.763 157.9C244.758 163.316 240.427 167.602 235 167.562C229.596 167.522 225.344 163.162 225.412 157.73C225.48 152.445 229.738 148.233 235.034 148.21C240.455 148.188 244.775 152.485 244.763 157.9Z" fill="#E7E7E7"/>
<path d="M260.624 277.108C265.982 277.108 270.336 281.513 270.268 286.883C270.2 292.123 265.886 296.386 260.635 296.386C255.276 296.386 250.922 291.981 250.991 286.611C251.059 281.372 255.373 277.108 260.624 277.108Z" fill="#E7E7E7"/>
<path d="M286.696 270.274C281.338 270.251 277.012 265.812 277.109 260.448C277.205 255.208 281.542 250.974 286.798 251.002C292.157 251.025 296.483 255.464 296.386 260.828C296.29 266.068 291.953 270.302 286.696 270.274Z" fill="#E7E7E7"/>
<path d="M157.787 219.207C152.411 219.162 148.148 214.78 148.222 209.376C148.301 204.006 152.718 199.771 158.127 199.884C163.378 199.992 167.562 204.295 167.55 209.58C167.539 214.967 163.185 219.259 157.787 219.213V219.207Z" fill="#E7E7E7"/>
<path d="M209.421 167.55C204.045 167.494 199.793 163.094 199.884 157.69C199.975 152.326 204.403 148.102 209.813 148.222C215.058 148.341 219.236 152.661 219.207 157.94C219.185 163.321 214.819 167.607 209.421 167.55Z" fill="#E7E7E7"/>
<path d="M193.583 286.702C193.612 291.896 189.241 296.301 184.041 296.33C178.847 296.358 174.442 291.987 174.413 286.787C174.385 281.593 178.756 277.188 183.956 277.16C189.15 277.131 193.555 281.502 193.583 286.702Z" fill="#E7E7E7"/>
<path d="M296.33 183.933C296.375 189.127 292.015 193.544 286.81 193.583C281.616 193.629 277.2 189.269 277.16 184.064C277.114 178.87 281.474 174.453 286.679 174.413C291.873 174.368 296.29 178.728 296.33 183.933Z" fill="#E7E7E7"/>
<path d="M157.838 251.104C163.004 251.07 167.431 255.487 167.414 260.652C167.397 265.835 162.958 270.223 157.792 270.155C152.712 270.087 148.443 265.829 148.358 260.749C148.273 255.589 152.644 251.138 157.838 251.104Z" fill="#E7E7E7"/>
<path d="M270.16 157.792C270.229 162.952 265.841 167.397 260.658 167.414C255.492 167.431 251.076 163.003 251.11 157.838C251.144 152.763 255.379 148.477 260.471 148.358C265.619 148.239 270.092 152.598 270.16 157.792Z" fill="#E7E7E7"/>
<path d="M157.883 193.413C152.746 193.413 148.523 189.212 148.477 184.069C148.432 178.836 152.814 174.487 158.037 174.589C163.191 174.692 167.352 178.955 167.301 184.075C167.25 189.224 163.021 193.413 157.883 193.413Z" fill="#E7E7E7"/>
<path d="M183.61 167.284C178.427 167.017 174.379 162.657 174.595 157.565C174.822 152.28 179.352 148.142 184.529 148.5C189.735 148.857 193.697 153.268 193.39 158.349C193.078 163.548 188.696 167.545 183.61 167.284Z" fill="#E7E7E7"/>
<path d="M244.213 312.326C244.196 317.447 240.126 321.46 234.988 321.415C229.885 321.369 225.894 317.259 225.974 312.116C226.048 307.138 230.061 303.187 235.056 303.17C240.182 303.153 244.23 307.195 244.213 312.326Z" fill="#E7E7E7"/>
<path d="M295.892 286.861C295.847 291.97 291.777 295.938 286.628 295.892C281.519 295.847 277.551 291.777 277.597 286.628C277.642 281.519 281.712 277.551 286.861 277.597C291.97 277.642 295.938 281.712 295.892 286.861Z" fill="#E7E7E7"/>
<path d="M321.414 235.204C321.363 240.307 317.248 244.292 312.11 244.213C307.019 244.133 303.062 239.984 303.175 234.835C303.283 229.862 307.325 225.951 312.338 225.968C317.458 225.985 321.465 230.067 321.414 235.204Z" fill="#E7E7E7"/>
<path d="M321.409 209.461C321.443 214.587 317.418 218.657 312.309 218.663C307.2 218.668 303.153 214.604 303.181 209.489C303.204 204.505 307.166 200.497 312.145 200.429C317.276 200.361 321.38 204.363 321.415 209.461H321.409Z" fill="#E7E7E7"/>
<path d="M209.466 303.176C214.587 303.141 218.657 307.172 218.657 312.286C218.657 317.395 214.592 321.437 209.478 321.409C204.494 321.38 200.492 317.412 200.429 312.44C200.367 307.308 204.369 303.21 209.466 303.176Z" fill="#E7E7E7"/>
<path d="M166.954 286.702C166.977 291.663 162.958 295.756 158.002 295.813C152.927 295.875 148.767 291.726 148.823 286.645C148.874 281.69 152.956 277.665 157.917 277.676C162.879 277.693 166.932 281.741 166.954 286.702Z" fill="#E7E7E7"/>
<path d="M295.813 157.758C295.881 162.725 291.896 166.852 286.946 166.954C281.871 167.062 277.671 162.947 277.682 157.872C277.688 152.911 281.729 148.846 286.691 148.818C291.658 148.789 295.75 152.797 295.819 157.758H295.813Z" fill="#E7E7E7"/>
<path d="M132.242 218.549C127.343 218.481 123.228 214.235 123.341 209.376C123.455 204.465 127.729 200.384 132.588 200.543C137.396 200.702 141.37 204.8 141.347 209.574C141.325 214.462 137.113 218.617 132.242 218.549Z" fill="#E7E7E7"/>
<path d="M132.571 226.076C137.487 226.229 141.546 230.532 141.347 235.386C141.149 240.301 136.812 244.332 131.97 244.088C127.139 243.844 123.228 239.7 123.33 234.926C123.432 230.01 127.701 225.923 132.571 226.076Z" fill="#E7E7E7"/>
<path d="M244.099 132.333C244.099 137.232 239.921 141.393 235.028 141.353C230.129 141.313 225.991 137.084 226.082 132.208C226.167 127.4 230.214 123.381 235.011 123.33C239.904 123.279 244.094 127.428 244.099 132.333Z" fill="#E7E7E7"/>
<path d="M312.196 269.644C307.291 269.581 303.17 265.341 303.283 260.47C303.391 255.554 307.666 251.473 312.53 251.626C317.339 251.78 321.318 255.878 321.301 260.658C321.284 265.557 317.083 269.706 312.196 269.644Z" fill="#E7E7E7"/>
<path d="M209.432 123.341C214.297 123.268 218.521 127.417 218.549 132.305C218.577 137.192 214.405 141.37 209.517 141.347C204.732 141.33 200.662 137.334 200.543 132.526C200.418 127.667 204.533 123.415 209.432 123.341Z" fill="#E7E7E7"/>
<path d="M158.025 148.92C162.941 149.016 167.045 153.325 166.852 158.167C166.654 162.998 162.515 166.949 157.747 166.852C152.831 166.756 148.727 162.447 148.92 157.605C149.113 152.774 153.262 148.823 158.025 148.92Z" fill="#E7E7E7"/>
<path d="M260.527 303.284C265.42 303.215 269.621 307.348 269.644 312.258C269.667 317.151 265.489 321.324 260.595 321.301C255.799 321.278 251.734 317.276 251.621 312.468C251.507 307.598 255.623 303.352 260.527 303.284Z" fill="#E7E7E7"/>
<path d="M312.298 175.055C317.174 175.061 321.341 179.301 321.233 184.149C321.125 188.951 317.06 192.948 312.281 192.942C307.399 192.936 303.238 188.701 303.346 183.848C303.454 179.046 307.518 175.049 312.298 175.055Z" fill="#E7E7E7"/>
<path d="M192.942 312.343C192.902 317.231 188.645 321.375 183.803 321.233C178.995 321.097 175.015 317.004 175.055 312.235C175.095 307.348 179.352 303.204 184.194 303.346C189.002 303.482 192.982 307.575 192.942 312.343Z" fill="#E7E7E7"/>
<path d="M269.44 132.287C269.474 137.158 265.489 141.16 260.618 141.154C255.742 141.143 251.768 137.13 251.825 132.259C251.876 127.485 255.731 123.614 260.505 123.534C265.369 123.455 269.405 127.406 269.44 132.287Z" fill="#E7E7E7"/>
<path d="M132.395 269.44C127.525 269.474 123.523 265.489 123.534 260.613C123.546 255.736 127.565 251.769 132.435 251.825C137.209 251.882 141.075 255.736 141.154 260.51C141.234 265.375 137.277 269.406 132.395 269.44Z" fill="#E7E7E7"/>
<path d="M183.995 123.648C188.94 123.648 192.76 127.525 192.692 132.48C192.624 137.306 188.838 141.035 184.001 141.035C179.057 141.035 175.236 137.158 175.305 132.202C175.373 127.377 179.159 123.648 183.995 123.648Z" fill="#E7E7E7"/>
<path d="M141.035 183.893C141.086 188.843 137.254 192.709 132.31 192.692C127.479 192.675 123.704 188.934 123.653 184.109C123.602 179.159 127.434 175.293 132.378 175.31C137.209 175.327 140.984 179.068 141.035 183.893Z" fill="#E7E7E7"/>
<path d="M295.308 312.423C295.251 317.237 291.397 320.938 286.543 320.847C281.741 320.756 278.068 316.873 278.193 312.008C278.312 307.325 282.087 303.698 286.816 303.726C291.641 303.755 295.37 307.569 295.313 312.423H295.308Z" fill="#E7E7E7"/>
<path d="M320.852 286.668C320.886 291.51 317.134 295.302 312.298 295.308C307.461 295.308 303.703 291.527 303.732 286.685C303.76 281.968 307.439 278.25 312.145 278.187C316.998 278.125 320.818 281.849 320.852 286.668Z" fill="#E7E7E7"/>
<path d="M157.985 303.789C162.617 303.84 166.404 307.677 166.387 312.315C166.37 317.055 162.39 320.921 157.65 320.79C153.024 320.659 149.3 316.754 149.391 312.122C149.482 307.49 153.348 303.738 157.985 303.789Z" fill="#E7E7E7"/>
<path d="M312.332 149.385C316.964 149.408 320.773 153.223 320.79 157.855C320.807 162.6 316.856 166.483 312.11 166.381C307.478 166.285 303.732 162.407 303.794 157.77C303.857 153.138 307.7 149.363 312.337 149.38L312.332 149.385Z" fill="#E7E7E7"/>
<path d="M286.719 140.814C282.115 140.797 278.261 136.914 278.278 132.316C278.295 127.718 282.178 123.858 286.776 123.875C291.379 123.892 295.234 127.775 295.217 132.373C295.2 136.971 291.317 140.831 286.719 140.814Z" fill="#E7E7E7"/>
<path d="M132.236 295.217C127.633 295.155 123.807 291.232 123.869 286.645C123.932 282.042 127.854 278.216 132.441 278.278C137.045 278.341 140.871 282.263 140.808 286.85C140.746 291.459 136.829 295.279 132.236 295.217Z" fill="#E7E7E7"/>
<path d="M209.319 346.255C204.698 346.096 200.883 342.009 201.133 337.468C201.383 332.938 205.323 329.265 209.773 329.418C214.394 329.577 218.208 333.664 217.959 338.206C217.709 342.735 213.769 346.408 209.319 346.255Z" fill="#E7E7E7"/>
<path d="M243.52 337.729C243.588 342.293 239.7 346.244 235.119 346.267C230.549 346.289 226.627 342.367 226.655 337.797C226.678 333.324 230.424 329.515 234.915 329.401C239.467 329.288 243.452 333.142 243.52 337.729Z" fill="#E7E7E7"/>
<path d="M346.267 235.153C346.221 239.734 342.259 243.611 337.701 243.52C333.108 243.43 329.265 239.433 329.401 234.881C329.538 230.39 333.358 226.655 337.826 226.655C342.401 226.655 346.306 230.583 346.267 235.153Z" fill="#E7E7E7"/>
<path d="M337.967 201.122C342.582 201.213 346.437 205.26 346.249 209.818C346.062 214.337 342.162 218.049 337.701 217.964C333.085 217.873 329.231 213.826 329.418 209.268C329.606 204.749 333.506 201.037 337.967 201.122Z" fill="#E7E7E7"/>
<path d="M132.316 166.256C127.82 166.234 124.005 162.43 123.977 157.929C123.949 153.336 127.945 149.397 132.515 149.522C137.033 149.641 140.78 153.512 140.712 157.985C140.643 162.493 136.8 166.273 132.316 166.256Z" fill="#E7E7E7"/>
<path d="M157.792 140.712C153.285 140.643 149.505 136.806 149.522 132.322C149.539 127.718 153.563 123.812 158.127 123.977C162.651 124.142 166.375 128.047 166.256 132.509C166.143 137.027 162.271 140.774 157.792 140.712Z" fill="#E7E7E7"/>
<path d="M268.878 337.848C268.866 342.423 265.12 346.13 260.55 346.079C255.969 346.028 252.296 342.242 252.393 337.678C252.489 333.205 256.111 329.623 260.578 329.589C265.148 329.555 268.889 333.273 268.878 337.848Z" fill="#E7E7E7"/>
<path d="M346.079 260.601C346.102 265.171 342.372 268.9 337.803 268.877C333.227 268.855 329.526 265.097 329.594 260.527C329.663 256.06 333.261 252.455 337.735 252.393C342.304 252.324 346.062 256.02 346.085 260.601H346.079Z" fill="#E7E7E7"/>
<path d="M235.227 98.6424C239.859 98.7162 243.384 102.429 243.237 107.078C243.095 111.591 239.484 115.019 234.949 114.951C230.317 114.877 226.791 111.165 226.939 106.516C227.081 102.003 230.691 98.5742 235.227 98.6424Z" fill="#E7E7E7"/>
<path d="M217.675 106.714C217.714 111.278 214.246 114.855 209.699 114.928C205.022 115.008 201.383 111.415 201.411 106.737C201.44 102.179 204.971 98.6707 209.529 98.665C214.087 98.6594 217.635 102.156 217.675 106.714Z" fill="#E7E7E7"/>
<path d="M337.706 192.102C333.165 192.045 329.702 188.503 329.731 183.944C329.759 179.29 333.415 175.77 338.104 175.901C342.628 176.026 346.028 179.63 345.937 184.2C345.846 188.73 342.276 192.164 337.706 192.102Z" fill="#E7E7E7"/>
<path d="M192.102 338.007C192.022 342.543 188.463 345.983 183.899 345.937C179.244 345.886 175.753 342.213 175.901 337.524C176.048 333.006 179.664 329.623 184.24 329.736C188.764 329.85 192.181 333.443 192.102 338.007Z" fill="#E7E7E7"/>
<path d="M114.951 235.113C114.94 239.757 111.284 243.327 106.635 243.242C102.111 243.163 98.631 239.598 98.6424 235.068C98.6537 230.424 102.309 226.854 106.959 226.939C111.483 227.018 114.963 230.583 114.951 235.113Z" fill="#E7E7E7"/>
<path d="M114.928 209.682C114.86 214.235 111.295 217.709 106.731 217.68C102.065 217.646 98.5287 213.957 98.6649 209.273C98.8012 204.738 102.429 201.315 107.004 201.417C111.545 201.519 114.996 205.118 114.928 209.682Z" fill="#E7E7E7"/>
<path d="M320.302 312.264C320.313 316.794 316.782 320.319 312.247 320.302C307.723 320.285 304.231 316.72 304.283 312.179C304.334 307.774 307.791 304.328 312.196 304.283C316.737 304.243 320.29 307.74 320.302 312.264Z" fill="#E7E7E7"/>
<path d="M114.798 260.635C114.798 265.148 111.244 268.667 106.72 268.633C102.207 268.599 98.7274 265.023 98.7899 260.487C98.8523 256.099 102.326 252.659 106.726 252.631C111.25 252.603 114.798 256.122 114.792 260.635H114.798Z" fill="#E7E7E7"/>
<path d="M260.607 114.798C256.094 114.787 252.586 111.227 252.631 106.698C252.671 102.19 256.259 98.7219 260.8 98.79C265.188 98.8582 268.617 102.344 268.634 106.749C268.651 111.267 265.125 114.809 260.607 114.792V114.798Z" fill="#E7E7E7"/>
<path d="M106.834 176.031C111.233 176.048 114.752 179.568 114.764 183.967C114.781 188.48 111.142 192.056 106.618 191.971C102.241 191.892 98.7786 188.298 98.8297 183.893C98.8807 179.5 102.429 176.014 106.834 176.031Z" fill="#E7E7E7"/>
<path d="M191.971 106.748C191.994 111.153 188.514 114.713 184.126 114.769C179.602 114.826 175.992 111.227 176.037 106.709C176.077 102.315 179.625 98.8239 184.024 98.8296C188.423 98.8409 191.949 102.355 191.971 106.748Z" fill="#E7E7E7"/>
<path d="M312.389 124.403C316.748 124.454 320.285 128.076 320.234 132.435C320.183 136.795 316.561 140.326 312.196 140.28C307.836 140.229 304.305 136.607 304.351 132.248C304.402 127.888 308.023 124.357 312.383 124.403H312.389Z" fill="#E7E7E7"/>
<path d="M132.259 304.351C136.624 304.305 140.235 307.847 140.28 312.207C140.32 316.572 136.783 320.183 132.424 320.228C128.059 320.273 124.448 316.731 124.403 312.372C124.357 308.006 127.9 304.396 132.259 304.351Z" fill="#E7E7E7"/>
<path d="M165.723 337.95C165.643 342.157 162.027 345.699 157.843 345.665C153.541 345.631 149.879 341.827 150.055 337.576C150.231 333.364 153.921 329.873 158.076 329.997C162.288 330.128 165.802 333.778 165.723 337.95Z" fill="#E7E7E7"/>
<path d="M286.776 329.918C291.096 329.935 294.678 333.545 294.666 337.86C294.649 342.179 291.039 345.761 286.725 345.75C282.405 345.733 278.823 342.123 278.834 337.808C278.851 333.489 282.462 329.907 286.776 329.918Z" fill="#E7E7E7"/>
<path d="M345.75 286.657C345.801 290.971 342.242 294.61 337.922 294.661C333.608 294.712 329.969 291.153 329.918 286.833C329.867 282.518 333.426 278.88 337.746 278.829C342.06 278.778 345.699 282.337 345.75 286.657Z" fill="#E7E7E7"/>
<path d="M337.695 165.723C333.483 165.626 329.952 162.004 329.998 157.821C330.043 153.512 333.858 149.868 338.109 150.061C342.333 150.254 345.801 153.949 345.665 158.099C345.523 162.311 341.856 165.819 337.695 165.723Z" fill="#E7E7E7"/>
<path d="M140.167 132.384C140.138 136.573 136.562 140.144 132.373 140.167C128.093 140.189 124.391 136.414 124.516 132.163C124.641 127.956 128.286 124.448 132.452 124.522C136.647 124.596 140.195 128.212 140.167 132.384Z" fill="#E7E7E7"/>
<path d="M106.703 278.988C110.881 278.925 114.491 282.45 114.554 286.651C114.616 290.829 111.091 294.439 106.89 294.502C102.712 294.564 99.1021 291.039 99.0396 286.838C98.9772 282.66 102.502 279.05 106.703 278.988Z" fill="#E7E7E7"/>
<path d="M294.507 106.805C294.502 111 290.931 114.565 286.742 114.56C282.547 114.554 278.982 110.983 278.988 106.794C278.993 102.599 282.564 99.0341 286.753 99.0398C290.948 99.0455 294.513 102.61 294.507 106.805Z" fill="#E7E7E7"/>
<path d="M114.378 157.861C114.395 162.09 111.12 165.416 106.902 165.467C102.565 165.518 99.1646 162.118 99.2214 157.775C99.2782 153.558 102.616 150.288 106.839 150.311C111.068 150.333 114.361 153.631 114.378 157.861Z" fill="#E7E7E7"/>
<path d="M165.467 106.811C165.461 111.034 162.169 114.35 157.946 114.378C153.609 114.412 150.231 110.989 150.305 106.646C150.379 102.434 153.739 99.176 157.968 99.2214C162.192 99.2612 165.473 102.588 165.467 106.811Z" fill="#E7E7E7"/>
<path d="M242.572 363.506C242.516 367.758 239.178 370.954 234.886 370.863C230.646 370.778 227.478 367.412 227.597 363.109C227.711 358.982 230.969 355.865 235.136 355.894C239.399 355.916 242.623 359.22 242.567 363.506H242.572Z" fill="#E7E7E7"/>
<path d="M363.483 242.572C359.198 242.617 355.905 239.388 355.894 235.119C355.877 230.844 359.141 227.58 363.415 227.597C367.571 227.614 370.789 230.776 370.863 234.909C370.942 239.195 367.735 242.527 363.483 242.572Z" fill="#E7E7E7"/>
<path d="M363.518 217.016C359.243 217.079 355.94 213.86 355.905 209.614C355.877 205.345 359.124 202.075 363.382 202.075C367.525 202.075 370.761 205.226 370.852 209.336C370.943 213.616 367.752 216.954 363.518 217.016Z" fill="#E7E7E7"/>
<path d="M217.016 363.489C216.965 367.73 213.639 370.931 209.364 370.852C205.135 370.772 201.968 367.412 202.075 363.126C202.183 359.016 205.436 355.888 209.586 355.905C213.837 355.922 217.067 359.215 217.016 363.489Z" fill="#E7E7E7"/>
<path d="M319.683 337.939C319.632 342.009 316.334 345.239 312.258 345.222C308.074 345.205 304.776 341.777 304.901 337.582C305.026 333.523 308.381 330.35 312.468 330.44C316.532 330.526 319.734 333.852 319.683 337.939Z" fill="#E7E7E7"/>
<path d="M260.754 370.772C256.673 370.835 253.335 367.639 253.239 363.574C253.142 359.379 256.457 355.979 260.647 355.99C264.722 356.002 267.992 359.254 268.02 363.33C268.049 367.412 264.825 370.71 260.754 370.772Z" fill="#E7E7E7"/>
<path d="M370.772 260.516C370.829 264.597 367.633 267.93 363.569 268.026C359.374 268.123 355.979 264.802 355.991 260.612C356.002 256.537 359.26 253.267 363.336 253.244C367.417 253.222 370.716 256.446 370.772 260.516Z" fill="#E7E7E7"/>
<path d="M345.228 312.161C345.296 316.243 342.105 319.581 338.041 319.683C333.846 319.785 330.446 316.47 330.446 312.281C330.446 308.205 333.698 304.929 337.774 304.901C341.856 304.873 345.16 308.091 345.228 312.161Z" fill="#E7E7E7"/>
<path d="M242.425 81.6524C242.181 85.6771 238.599 88.8616 234.619 88.5778C230.589 88.294 227.444 84.678 227.768 80.7044C228.086 76.7819 231.543 73.7165 235.426 73.9095C239.456 74.1082 242.669 77.6617 242.43 81.6467L242.425 81.6524Z" fill="#E7E7E7"/>
<path d="M81.1186 227.745C85.1263 227.666 88.555 231.003 88.5947 235.028C88.6344 239.047 85.2625 242.436 81.2435 242.43C77.3324 242.43 74.0286 239.206 73.9094 235.289C73.7902 231.287 77.0996 227.825 81.1186 227.745Z" fill="#E7E7E7"/>
<path d="M370.738 183.927C370.778 187.98 367.435 191.358 363.381 191.358C359.328 191.358 355.979 187.986 356.019 183.927C356.059 179.982 359.289 176.718 363.234 176.639C367.287 176.559 370.693 179.869 370.738 183.927Z" fill="#E7E7E7"/>
<path d="M184.024 356.019C188.083 356.03 191.415 359.419 191.358 363.472C191.301 367.531 187.884 370.829 183.831 370.738C179.886 370.648 176.661 367.372 176.639 363.427C176.61 359.374 179.965 356.008 184.024 356.019Z" fill="#E7E7E7"/>
<path d="M106.76 319.564C102.883 319.535 99.545 316.197 99.5223 312.32C99.4996 308.347 103.025 304.89 106.976 305.015C110.864 305.134 114.145 308.545 114.071 312.4C113.998 316.283 110.626 319.592 106.76 319.564Z" fill="#E7E7E7"/>
<path d="M132.276 330.537C136.159 330.491 139.554 333.795 139.644 337.7C139.735 341.68 136.255 345.188 132.27 345.142C128.371 345.097 125.044 341.725 125.044 337.837C125.044 333.943 128.376 330.582 132.276 330.537Z" fill="#E7E7E7"/>
<path d="M312.247 99.5222C316.107 99.4938 319.49 102.798 319.569 106.68C319.649 110.643 316.169 114.134 312.201 114.071C308.318 114.009 305.003 110.637 305.02 106.771C305.037 102.894 308.37 99.5505 312.252 99.5222H312.247Z" fill="#E7E7E7"/>
<path d="M337.854 125.044C341.748 125.056 345.103 128.393 345.137 132.293C345.171 136.284 341.651 139.752 337.672 139.644C333.767 139.537 330.474 136.131 330.531 132.253C330.588 128.354 333.965 125.033 337.854 125.044Z" fill="#E7E7E7"/>
<path d="M81.2549 202.212C85.2739 202.212 88.6742 205.674 88.5834 209.688C88.4982 213.605 85.1604 216.874 81.2492 216.874C77.2245 216.874 73.8299 213.412 73.9207 209.398C74.0059 205.481 77.3437 202.212 81.2549 202.212Z" fill="#E7E7E7"/>
<path d="M216.874 81.3686C216.806 85.3933 213.287 88.7425 209.29 88.5835C205.368 88.4303 202.149 85.0413 202.217 81.1415C202.285 77.1168 205.805 73.7676 209.801 73.9266C213.724 74.0798 216.942 77.4688 216.874 81.3686Z" fill="#E7E7E7"/>
<path d="M88.4641 260.533C88.5322 264.433 85.2001 267.822 81.2832 267.844C77.3777 267.867 74.0172 264.501 74.0456 260.595C74.074 256.786 77.2642 253.539 81.0846 253.426C84.9673 253.312 88.396 256.616 88.4641 260.538V260.533Z" fill="#E7E7E7"/>
<path d="M260.709 74.0457C264.631 74.0968 267.941 77.5141 267.844 81.4026C267.742 85.3308 264.297 88.6119 260.414 88.4643C256.588 88.3167 253.42 85.047 253.42 81.2493C253.42 77.3382 256.803 73.9947 260.709 74.0457Z" fill="#E7E7E7"/>
<path d="M191.125 81.2719C191.114 85.2285 187.782 88.4812 183.842 88.379C179.988 88.2825 176.866 85.0809 176.877 81.2379C176.888 77.2813 180.221 74.0286 184.16 74.1308C188.014 74.2273 191.137 77.4289 191.125 81.2719Z" fill="#E7E7E7"/>
<path d="M81.2379 176.877C85.1888 176.866 88.4585 180.181 88.3791 184.126C88.3053 187.98 85.115 191.114 81.272 191.125C77.3211 191.137 74.0513 187.821 74.1308 183.876C74.2046 180.022 77.3949 176.888 81.2379 176.877Z" fill="#E7E7E7"/>
<path d="M370.415 286.776C370.398 290.698 367.344 293.764 363.421 293.781C359.396 293.803 356.252 290.602 356.342 286.571C356.433 282.666 359.561 279.652 363.478 279.703C367.395 279.754 370.432 282.853 370.415 286.77V286.776Z" fill="#E7E7E7"/>
<path d="M132.429 113.861C128.524 113.912 125.362 110.858 125.277 106.959C125.186 102.945 128.382 99.704 132.395 99.7324C136.306 99.7607 139.4 102.872 139.406 106.777C139.417 110.688 136.34 113.81 132.429 113.861Z" fill="#E7E7E7"/>
<path d="M363.45 164.837C359.47 164.871 356.433 161.862 356.433 157.889C356.433 153.915 359.476 150.912 363.455 150.946C367.31 150.98 370.267 153.91 370.33 157.753C370.392 161.743 367.418 164.809 363.45 164.837Z" fill="#E7E7E7"/>
<path d="M106.555 139.406C102.656 139.275 99.6357 136.074 99.7322 132.168C99.8287 128.155 103.167 125.073 107.18 125.288C111.085 125.498 114.032 128.745 113.856 132.651C113.685 136.556 110.461 139.536 106.555 139.406Z" fill="#E7E7E7"/>
<path d="M157.747 370.329C153.79 370.267 150.844 367.168 150.941 363.171C151.037 359.226 154.171 356.308 158.167 356.439C161.999 356.564 164.865 359.578 164.831 363.449C164.797 367.417 161.738 370.392 157.747 370.329Z" fill="#E7E7E7"/>
<path d="M286.782 370.415C282.865 370.432 279.765 367.395 279.709 363.484C279.652 359.453 282.825 356.286 286.85 356.343C290.767 356.399 293.798 359.499 293.781 363.416C293.764 367.338 290.704 370.398 286.776 370.415H286.782Z" fill="#E7E7E7"/>
<path d="M88.1011 286.753C88.1011 290.568 85.1209 293.565 81.3176 293.599C77.3894 293.627 74.3353 290.539 74.4035 286.6C74.4716 282.802 77.5086 279.862 81.3289 279.896C85.1322 279.93 88.1067 282.938 88.1011 286.753Z" fill="#E7E7E7"/>
<path d="M279.896 81.0221C280.004 77.2358 283.086 74.3294 286.906 74.4032C290.812 74.477 293.769 77.6786 293.588 81.6295C293.417 85.3988 290.273 88.2428 286.441 88.1008C282.666 87.9589 279.788 84.8482 279.896 81.0221Z" fill="#E7E7E7"/>
<path d="M344.614 337.968C344.535 341.708 341.277 344.774 337.558 344.615C333.931 344.456 330.979 341.317 331.053 337.701C331.133 333.96 334.391 330.894 338.109 331.059C341.736 331.218 344.688 334.357 344.614 337.973V337.968Z" fill="#E7E7E7"/>
<path d="M164.667 81.2152C164.689 84.9504 161.516 88.0952 157.781 88.0327C154.154 87.976 151.128 84.9163 151.105 81.289C151.083 77.5538 154.256 74.4089 157.991 74.4714C161.618 74.5281 164.644 77.5878 164.667 81.2152Z" fill="#E7E7E7"/>
<path d="M88.0327 158.025C87.9475 161.766 84.6892 164.831 80.971 164.661C77.3436 164.502 74.3918 161.357 74.4713 157.741C74.5564 154.001 77.8148 150.941 81.533 151.105C85.1603 151.264 88.1121 154.404 88.0327 158.025Z" fill="#E7E7E7"/>
<path d="M331.195 106.663C331.286 103.047 334.47 100.022 338.041 100.158C341.668 100.294 344.654 103.507 344.473 107.078C344.291 110.614 341.265 113.487 337.774 113.441C334.164 113.396 331.11 110.245 331.195 106.663Z" fill="#E7E7E7"/>
<path d="M370.023 312.4C369.949 316.01 366.776 319.053 363.2 318.934C359.572 318.815 356.575 315.613 356.74 312.042C356.904 308.517 359.924 305.628 363.416 305.651C367.02 305.679 370.091 308.812 370.017 312.4H370.023Z" fill="#E7E7E7"/>
<path d="M312.178 356.74C315.766 356.666 318.905 359.737 318.928 363.341C318.956 366.946 315.863 370.046 312.252 370.023C308.75 370 305.758 367.082 305.645 363.563C305.526 359.992 308.568 356.813 312.178 356.74Z" fill="#E7E7E7"/>
<path d="M389.636 241.687C386.008 241.778 382.897 238.735 382.897 235.085C382.897 231.548 385.81 228.574 389.357 228.489C392.985 228.398 396.096 231.441 396.096 235.091C396.096 238.627 393.183 241.602 389.636 241.687Z" fill="#E7E7E7"/>
<path d="M241.687 389.494C241.687 393.138 238.576 396.186 234.943 396.09C231.395 395.999 228.489 393.025 228.489 389.488C228.489 385.844 231.599 382.795 235.232 382.892C238.78 382.983 241.687 385.957 241.687 389.494Z" fill="#E7E7E7"/>
<path d="M113.441 337.843C113.441 341.447 110.313 344.53 106.72 344.479C103.11 344.427 100.056 341.271 100.158 337.689C100.255 334.176 103.235 331.241 106.737 331.195C110.336 331.15 113.447 334.238 113.441 337.843Z" fill="#E7E7E7"/>
<path d="M216.091 389.522C216.074 393.092 213.156 396.016 209.585 396.044C205.913 396.073 202.887 392.99 202.995 389.323C203.097 385.747 206.077 382.886 209.642 382.943C213.219 383.005 216.108 385.951 216.091 389.522Z" fill="#E7E7E7"/>
<path d="M389.437 202.995C393.002 202.961 395.965 205.839 396.044 209.415C396.124 213.088 393.087 216.148 389.409 216.091C385.832 216.04 382.937 213.099 382.943 209.529C382.949 205.958 385.861 203.029 389.437 202.995Z" fill="#E7E7E7"/>
<path d="M363.37 125.901C367.003 125.896 369.813 128.694 369.819 132.327C369.824 135.96 367.026 138.77 363.393 138.776C359.76 138.782 356.95 135.983 356.944 132.35C356.938 128.717 359.737 125.907 363.37 125.901Z" fill="#E7E7E7"/>
<path d="M138.782 363.489C138.725 367.111 135.87 369.876 132.237 369.825C128.615 369.768 125.85 366.912 125.907 363.279C125.964 359.658 128.819 356.893 132.452 356.95C136.074 357.007 138.838 359.862 138.787 363.495L138.782 363.489Z" fill="#E7E7E7"/>
<path d="M215.802 55.5457C215.603 59.0027 212.645 61.6026 209.137 61.3983C205.68 61.1996 203.08 58.2421 203.285 54.7339C203.483 51.2769 206.441 48.677 209.949 48.8814C213.406 49.0801 216.006 52.0376 215.802 55.5457Z" fill="#E7E7E7"/>
<path d="M235.005 61.4266C231.486 61.3868 228.767 58.5883 228.807 55.0574C228.846 51.5379 231.645 48.8188 235.176 48.8586C238.695 48.8983 241.414 51.6969 241.375 55.2277C241.335 58.7472 238.536 61.4663 235.005 61.4266Z" fill="#E7E7E7"/>
<path d="M87.5901 312.156C87.6526 315.817 84.8938 318.627 81.2494 318.622C77.7129 318.622 74.9824 315.942 74.92 312.423C74.8575 308.761 77.6164 305.951 81.2607 305.957C84.7972 305.957 87.5277 308.636 87.5901 312.156Z" fill="#E7E7E7"/>
<path d="M55.5457 203.285C59.0027 203.483 61.6026 206.441 61.3983 209.949C61.1996 213.406 58.2421 216.006 54.7339 215.802C51.2769 215.603 48.677 212.645 48.8814 209.137C49.0801 205.68 52.0376 203.08 55.5457 203.285Z" fill="#E7E7E7"/>
<path d="M395.857 260.539C395.903 264.223 393.127 267.022 389.443 266.999C385.889 266.976 383.17 264.274 383.125 260.726C383.079 257.042 385.855 254.244 389.539 254.266C393.093 254.289 395.812 256.991 395.857 260.539Z" fill="#E7E7E7"/>
<path d="M395.801 183.899C395.846 187.441 393.172 190.228 389.664 190.308C386.008 190.387 383.164 187.6 383.187 183.956C383.204 180.431 385.94 177.7 389.465 177.689C393.002 177.677 395.755 180.374 395.801 183.899Z" fill="#E7E7E7"/>
<path d="M190.308 389.727C190.2 393.229 187.384 395.874 183.836 395.801C180.209 395.727 177.518 392.792 177.7 389.119C177.87 385.634 180.748 383.045 184.302 383.187C187.793 383.323 190.416 386.173 190.308 389.727Z" fill="#E7E7E7"/>
<path d="M113.163 106.749C113.186 110.427 110.393 113.203 106.709 113.163C103.161 113.123 100.459 110.404 100.436 106.851C100.413 103.172 103.206 100.396 106.89 100.436C110.438 100.476 113.14 103.195 113.163 106.749Z" fill="#E7E7E7"/>
<path d="M312.326 74.92C315.965 74.937 318.707 77.7697 318.627 81.4311C318.548 84.9449 315.8 87.6072 312.258 87.5902C308.619 87.5731 305.878 84.7405 305.957 81.0791C306.036 77.5653 308.784 74.903 312.326 74.92Z" fill="#E7E7E7"/>
<path d="M55.0577 241.375C51.5382 241.335 48.8191 238.536 48.8588 235.005C48.8986 231.486 51.6971 228.767 55.228 228.807C58.7474 228.846 61.4665 231.645 61.4268 235.176C61.3871 238.695 58.5885 241.414 55.0577 241.375Z" fill="#E7E7E7"/>
<path d="M260.664 383.13C264.331 383.142 267.078 385.98 266.999 389.664C266.925 393.201 264.166 395.869 260.607 395.857C256.94 395.846 254.192 393.008 254.272 389.324C254.345 385.787 257.104 383.119 260.664 383.13Z" fill="#E7E7E7"/>
<path d="M81.1075 138.594C77.6335 138.515 74.886 135.608 75.0052 132.128C75.1187 128.66 78.0649 125.947 81.5446 126.1C84.8995 126.248 87.5448 129.057 87.505 132.424C87.4653 135.898 84.5873 138.674 81.1075 138.6V138.594Z" fill="#E7E7E7"/>
<path d="M138.594 81.3402C138.549 84.8143 135.665 87.5844 132.185 87.505C128.711 87.4198 125.97 84.5077 126.094 81.028C126.214 77.6731 128.995 74.9995 132.361 75.0051C135.841 75.0108 138.64 77.8605 138.594 81.3402Z" fill="#E7E7E7"/>
<path d="M184.018 48.9834C187.311 48.9948 190.172 51.8671 190.16 55.1596C190.149 58.452 187.277 61.313 183.984 61.3016C180.692 61.2903 177.831 58.4179 177.842 55.1255C177.853 51.8331 180.726 48.9721 184.018 48.9834Z" fill="#E7E7E7"/>
<path d="M286.691 383.335C289.978 383.301 292.873 386.145 292.907 389.443C292.941 392.73 290.097 395.625 286.799 395.659C283.512 395.693 280.617 392.849 280.583 389.551C280.549 386.27 283.393 383.369 286.691 383.335Z" fill="#E7E7E7"/>
<path d="M260.664 61.3302C257.36 61.3472 254.51 58.5544 254.448 55.2449C254.385 51.8446 257.343 48.8871 260.749 48.9553C264.058 49.0234 266.851 51.8844 266.823 55.1825C266.8 58.5033 263.984 61.3075 260.664 61.3302Z" fill="#E7E7E7"/>
<path d="M389.607 280.588C392.911 280.662 395.727 283.586 395.653 286.867C395.579 290.17 392.656 292.986 389.375 292.912C386.071 292.838 383.255 289.915 383.329 286.634C383.403 283.33 386.326 280.515 389.607 280.588Z" fill="#E7E7E7"/>
<path d="M55.171 254.448C58.4918 254.465 61.3017 257.269 61.3301 260.59C61.3585 264.002 58.3726 266.925 54.9723 266.823C51.6629 266.721 48.8927 263.826 48.9551 260.539C49.0176 257.224 51.8672 254.431 55.171 254.448Z" fill="#E7E7E7"/>
<path d="M61.3017 184.03C61.2847 187.333 58.4123 190.183 55.1142 190.16C51.8105 190.143 48.9608 187.271 48.9835 183.973C49.0006 180.675 51.8786 177.819 55.171 177.842C58.4748 177.859 61.3244 180.732 61.3017 184.03Z" fill="#E7E7E7"/>
<path d="M389.454 163.918C386.224 163.895 383.482 161.159 383.465 157.923C383.443 154.591 386.349 151.747 389.67 151.86C392.905 151.974 395.585 154.778 395.522 157.997C395.454 161.233 392.684 163.94 389.46 163.918H389.454Z" fill="#E7E7E7"/>
<path d="M163.917 389.596C163.855 392.831 161.085 395.539 157.86 395.522C154.517 395.499 151.713 392.565 151.872 389.25C152.025 386.003 154.858 383.357 158.071 383.465C161.306 383.573 163.986 386.383 163.923 389.596H163.917Z" fill="#E7E7E7"/>
<path d="M337.797 369.376C334.561 369.353 331.859 366.651 331.837 363.415C331.814 360.072 334.681 357.279 338.007 357.387C341.248 357.495 343.888 360.259 343.826 363.489C343.763 366.73 341.027 369.398 337.797 369.376Z" fill="#E7E7E7"/>
<path d="M363.501 331.842C366.742 331.916 369.404 334.652 369.376 337.888C369.342 341.237 366.447 343.985 363.12 343.826C359.873 343.667 357.273 340.868 357.387 337.644C357.5 334.402 360.276 331.769 363.501 331.842Z" fill="#E7E7E7"/>
<path d="M55.0688 292.537C51.7196 292.503 49.2446 289.909 49.3468 286.532C49.4433 283.302 51.9467 280.917 55.2107 280.952C58.5599 280.986 61.0349 283.58 60.9327 286.957C60.8362 290.187 58.3328 292.572 55.0688 292.537Z" fill="#E7E7E7"/>
<path d="M157.866 60.8532C154.653 60.8419 152.167 58.3385 152.178 55.1199C152.19 51.9069 154.693 49.4206 157.912 49.4319C161.125 49.4433 163.611 51.9467 163.6 55.1653C163.588 58.3782 161.085 60.8646 157.866 60.8532Z" fill="#E7E7E7"/>
<path d="M55.2335 152.178C58.4408 152.224 60.8931 154.767 60.8477 157.986C60.8023 161.193 58.2592 163.645 55.0405 163.6C51.8333 163.554 49.381 161.011 49.4264 157.793C49.4718 154.585 52.0149 152.133 55.2335 152.178Z" fill="#E7E7E7"/>
<path d="M101.06 362.973C101.248 359.782 103.87 357.478 107.14 357.637C110.45 357.796 112.805 360.549 112.533 363.932C112.277 367.1 109.592 369.342 106.323 369.115C103.144 368.893 100.873 366.242 101.066 362.973H101.06Z" fill="#E7E7E7"/>
<path d="M343.57 81.272C343.559 84.5247 341.073 86.994 337.814 86.9826C334.562 86.9713 332.092 84.4849 332.104 81.2266C332.115 77.9739 334.601 75.5046 337.86 75.5159C341.112 75.5273 343.582 78.0136 343.57 81.272Z" fill="#E7E7E7"/>
<path d="M86.9883 337.933C86.9429 341.174 84.4168 343.615 81.1585 343.57C77.9171 343.524 75.4762 340.998 75.5216 337.74C75.567 334.499 78.0931 332.058 81.3515 332.103C84.5928 332.149 87.0337 334.675 86.9883 337.933Z" fill="#E7E7E7"/>
<path d="M369.126 106.754C369.149 110.001 366.725 112.493 363.495 112.55C360.134 112.607 357.586 110.064 357.631 106.703C357.676 103.467 360.157 101.038 363.404 101.049C366.645 101.06 369.109 103.513 369.126 106.754Z" fill="#E7E7E7"/>
<path d="M286.855 60.9328C283.472 60.9839 280.94 58.4805 280.957 55.1086C280.974 51.8616 283.404 49.398 286.645 49.3526C290.029 49.3015 292.56 51.8049 292.543 55.1824C292.526 58.4294 290.097 60.8931 286.855 60.9385V60.9328Z" fill="#E7E7E7"/>
<path d="M389.596 317.94C386.564 317.997 383.948 315.505 383.845 312.468C383.743 309.329 386.389 306.621 389.533 306.65C392.576 306.672 395.125 309.227 395.142 312.264C395.159 315.301 392.633 317.884 389.596 317.94Z" fill="#E7E7E7"/>
<path d="M312.354 395.142C309.323 395.176 306.718 392.667 306.644 389.63C306.564 386.491 309.227 383.8 312.372 383.851C315.414 383.897 317.946 386.468 317.94 389.505C317.94 392.542 315.397 395.108 312.354 395.142Z" fill="#E7E7E7"/>
<path d="M106.703 86.869C103.694 86.8122 101.123 84.1556 101.185 81.164C101.242 78.1554 103.899 75.5839 106.89 75.6464C109.899 75.7031 112.471 78.3598 112.408 81.3514C112.351 84.3599 109.695 86.9258 106.703 86.869Z" fill="#E7E7E7"/>
<path d="M75.641 106.578C75.7773 103.57 78.4963 101.049 81.4766 101.185C84.4851 101.322 87.0055 104.041 86.8693 107.021C86.7331 110.03 84.014 112.55 81.0338 112.414C78.0252 112.278 75.5048 109.558 75.641 106.578Z" fill="#E7E7E7"/>
<path d="M137.862 389.488C137.862 392.485 135.183 395.102 132.202 395.012C129.302 394.921 126.821 392.378 126.821 389.494C126.821 386.497 129.5 383.88 132.481 383.971C135.381 384.061 137.862 386.604 137.862 389.488Z" fill="#E7E7E7"/>
<path d="M395.011 132.412C394.966 135.421 392.253 137.998 389.284 137.862C386.383 137.731 383.931 135.149 383.97 132.276C384.016 129.268 386.729 126.69 389.698 126.827C392.599 126.957 395.051 129.54 395.006 132.412H395.011Z" fill="#E7E7E7"/>
<path d="M209.472 409.629C212.452 409.583 214.91 411.973 214.956 414.959C215.001 417.939 212.611 420.397 209.625 420.442C206.645 420.488 204.187 418.098 204.142 415.112C204.096 412.132 206.486 409.674 209.472 409.629Z" fill="#E7E7E7"/>
<path d="M235.17 420.482C232.241 420.528 229.737 418.132 229.647 415.186C229.556 412.149 232.105 409.555 235.153 409.595C238.093 409.634 240.529 412.092 240.534 415.027C240.534 417.962 238.11 420.431 235.17 420.477V420.482Z" fill="#E7E7E7"/>
<path d="M55.0972 317.605C52.0603 317.583 49.7669 315.216 49.8294 312.173C49.8918 309.142 52.2873 306.877 55.33 306.973C58.2478 307.07 60.4446 309.329 60.4559 312.264C60.4673 315.306 58.1399 317.628 55.0972 317.6V317.605Z" fill="#E7E7E7"/>
<path d="M260.595 409.816C263.559 409.799 265.801 411.984 265.852 414.931C265.903 418.002 263.598 420.312 260.527 420.261C257.581 420.21 255.396 417.968 255.413 415.01C255.43 412.053 257.638 409.839 260.595 409.822V409.816Z" fill="#E7E7E7"/>
<path d="M317.605 55.0689C317.645 58.1115 315.335 60.456 312.292 60.456C309.249 60.456 306.939 58.1172 306.979 55.0745C307.013 52.1454 309.227 49.9032 312.15 49.8294C315.193 49.7556 317.566 52.0376 317.605 55.0689Z" fill="#E7E7E7"/>
<path d="M137.51 55.2279C137.47 58.14 135.182 60.3539 132.253 60.3085C129.341 60.2687 127.127 57.9811 127.173 55.0519C127.213 52.1398 129.5 49.926 132.429 49.9714C135.347 50.0111 137.555 52.2988 137.51 55.2279Z" fill="#E7E7E7"/>
<path d="M189.167 415.158C189.11 418.064 186.806 420.267 183.876 420.204C180.97 420.147 178.767 417.843 178.83 414.914C178.887 412.007 181.191 409.805 184.12 409.867C187.027 409.924 189.229 412.228 189.167 415.158Z" fill="#E7E7E7"/>
<path d="M60.3083 132.429C60.2686 135.347 57.9866 137.555 55.0575 137.516C52.1397 137.476 49.9315 135.194 49.9712 132.265C50.011 129.347 52.2986 127.139 55.2221 127.179C58.1398 127.218 60.348 129.5 60.3083 132.429Z" fill="#E7E7E7"/>
<path d="M24.5005 209.552C24.5005 206.793 26.7541 204.488 29.5186 204.448C32.3909 204.403 34.7694 206.804 34.6956 209.677C34.6218 212.435 32.3001 214.672 29.5356 214.638C26.7768 214.604 24.5062 212.31 24.5005 209.552Z" fill="#E7E7E7"/>
<path d="M34.7071 235.079C34.7128 237.946 32.3343 240.273 29.4676 240.199C26.7145 240.131 24.4949 237.855 24.4893 235.096C24.4836 232.229 26.8621 229.902 29.7288 229.976C32.4819 230.044 34.7015 232.32 34.7071 235.079Z" fill="#E7E7E7"/>
<path d="M240.199 29.5469C240.228 32.3001 238.031 34.6105 235.283 34.707C232.417 34.8091 230.01 32.5158 229.981 29.6491C229.953 26.7824 232.315 24.438 235.181 24.4891C237.94 24.5345 240.177 26.7881 240.205 29.5469H240.199Z" fill="#E7E7E7"/>
<path d="M214.638 29.7116C214.575 32.4704 212.254 34.7184 209.495 34.69C206.622 34.6616 204.301 32.198 204.448 29.337C204.59 26.5838 206.98 24.3983 209.728 24.5005C212.486 24.6027 214.7 26.9528 214.638 29.7116Z" fill="#E7E7E7"/>
<path d="M368.524 363.353C368.536 366.26 366.248 368.547 363.336 368.525C360.43 368.502 358.182 366.18 358.238 363.268C358.295 360.481 360.498 358.29 363.285 358.239C366.197 358.188 368.513 360.453 368.524 363.353Z" fill="#E7E7E7"/>
<path d="M291.737 414.942C291.8 417.632 289.393 420.062 286.696 420.028C284.102 420 281.809 417.729 281.752 415.129C281.69 412.438 284.097 410.009 286.793 410.043C289.393 410.071 291.681 412.342 291.737 414.942Z" fill="#E7E7E7"/>
<path d="M260.51 34.5878C257.797 34.5084 255.481 31.9993 255.645 29.3256C255.81 26.7144 258.183 24.5232 260.76 24.597C263.473 24.6765 265.79 27.1856 265.625 29.8592C265.46 32.4705 263.087 34.6616 260.51 34.5878Z" fill="#E7E7E7"/>
<path d="M389.477 332.841C392.179 332.83 394.569 335.271 394.489 337.962C394.41 340.562 392.105 342.821 389.511 342.832C386.809 342.843 384.419 340.403 384.498 337.712C384.578 335.112 386.882 332.853 389.477 332.841Z" fill="#E7E7E7"/>
<path d="M337.695 384.498C340.38 384.413 342.826 386.792 342.826 389.494C342.826 392.082 340.573 394.398 337.973 394.483C335.282 394.569 332.841 392.19 332.841 389.488C332.841 386.899 335.095 384.583 337.695 384.498Z" fill="#E7E7E7"/>
<path d="M34.5876 260.613C34.6046 263.315 32.1637 265.704 29.473 265.631C26.8731 265.557 24.6138 263.258 24.5968 260.658C24.5797 257.956 27.0207 255.566 29.7114 255.64C32.3169 255.714 34.5705 258.013 34.5876 260.613Z" fill="#E7E7E7"/>
<path d="M86.2222 363.365C86.2335 366.05 83.8039 368.428 81.1303 368.349C78.5474 368.269 76.2995 365.976 76.2881 363.399C76.2768 360.714 78.7064 358.335 81.38 358.415C83.9629 358.494 86.2108 360.787 86.2222 363.365Z" fill="#E7E7E7"/>
<path d="M368.348 81.1243C368.428 83.798 366.055 86.2275 363.37 86.2219C360.793 86.2162 358.494 83.9682 358.414 81.3854C358.335 78.7117 360.708 76.2821 363.393 76.2935C365.97 76.2992 368.269 78.5471 368.348 81.13V81.1243Z" fill="#E7E7E7"/>
<path d="M183.967 34.5082C181.367 34.4912 179.108 32.2376 179.085 29.6377C179.057 26.9356 181.481 24.5742 184.171 24.682C186.783 24.7842 188.974 27.1059 188.911 29.6944C188.849 32.3 186.561 34.5252 183.967 34.5082Z" fill="#E7E7E7"/>
<path d="M34.5084 184.115C34.4403 186.72 32.147 188.94 29.5528 188.917C26.8393 188.889 24.529 186.437 24.6879 183.752C24.8412 181.14 27.2026 178.983 29.7798 179.091C32.3911 179.205 34.5765 181.526 34.5084 184.115Z" fill="#E7E7E7"/>
<path d="M162.731 415.106C162.691 417.763 160.466 419.926 157.815 419.886C155.159 419.846 152.996 417.621 153.035 414.97C153.075 412.314 155.3 410.151 157.951 410.19C160.608 410.23 162.771 412.455 162.731 415.106Z" fill="#E7E7E7"/>
<path d="M394.234 106.663C394.307 109.399 392.218 111.545 389.488 111.545C386.865 111.545 384.816 109.553 384.748 106.941C384.674 104.205 386.763 102.06 389.494 102.06C392.116 102.06 394.165 104.052 394.234 106.663Z" fill="#E7E7E7"/>
<path d="M342.48 55.1937C342.452 57.8503 340.442 59.8144 337.78 59.786C335.123 59.7577 333.159 57.7481 333.188 55.0858C333.216 52.4292 335.225 50.4651 337.888 50.4935C340.544 50.5219 342.509 52.5314 342.48 55.1937Z" fill="#E7E7E7"/>
<path d="M81.306 85.8983C78.6437 85.9267 76.6342 83.9626 76.6058 81.306C76.5774 78.6437 78.5415 76.6342 81.1981 76.6058C83.8605 76.5774 85.87 78.5415 85.8983 81.1981C85.9267 83.8605 83.9626 85.87 81.306 85.8983Z" fill="#E7E7E7"/>
<path d="M55.0858 333.188C57.7481 333.159 59.7577 335.124 59.786 337.78C59.8144 340.442 57.8503 342.452 55.1937 342.48C52.5314 342.509 50.5219 340.545 50.4935 337.888C50.4651 335.226 52.4292 333.216 55.0858 333.188Z" fill="#E7E7E7"/>
<path d="M106.811 394.234C104.081 394.24 101.992 392.094 102.06 389.363C102.122 386.752 104.171 384.76 106.788 384.754C109.519 384.748 111.608 386.894 111.54 389.624C111.477 392.236 109.428 394.228 106.811 394.234Z" fill="#E7E7E7"/>
<path d="M29.6148 153.359C32.0671 153.37 34.0936 155.385 34.122 157.838C34.1504 160.392 31.9876 162.51 29.4332 162.413C26.9866 162.322 25.0168 160.239 25.0679 157.798C25.119 155.351 27.1682 153.348 29.6148 153.359Z" fill="#E7E7E7"/>
<path d="M111.307 55.3585C111.182 57.7937 108.996 59.7748 106.578 59.65C104.143 59.5251 102.162 57.3396 102.287 54.9214C102.411 52.4861 104.597 50.505 107.015 50.6299C109.45 50.7548 111.432 52.9402 111.307 55.3585Z" fill="#E7E7E7"/>
<path d="M29.7343 291.323C27.1174 291.396 25.0511 289.421 25.017 286.815C24.983 284.198 26.9811 282.166 29.598 282.172C32.1014 282.172 34.0712 284.057 34.1734 286.543C34.2812 289.16 32.3342 291.26 29.7343 291.328V291.323Z" fill="#E7E7E7"/>
<path d="M291.323 29.5923C291.323 32.2092 289.296 34.2073 286.679 34.1733C284.074 34.1392 282.098 32.0729 282.172 29.456C282.24 26.964 284.182 25.051 286.679 25.0169C289.296 24.9772 291.329 26.981 291.329 29.5923H291.323Z" fill="#E7E7E7"/>
<path d="M59.65 106.754C59.6784 109.189 57.6291 111.284 55.1882 111.307C52.7529 111.335 50.6583 109.286 50.6355 106.845C50.6072 104.41 52.6564 102.315 55.0973 102.292C57.5326 102.264 59.6273 104.313 59.65 106.754Z" fill="#E7E7E7"/>
<path d="M162.413 29.4789C162.476 31.9198 160.517 34.0202 158.071 34.1223C155.522 34.2302 153.342 32.1242 153.359 29.5697C153.376 27.1174 155.391 25.0966 157.843 25.0682C160.29 25.0398 162.351 27.0323 162.413 29.4789Z" fill="#E7E7E7"/>
<path d="M312.36 419.5C309.976 419.54 307.83 417.423 307.83 415.033C307.83 412.643 309.987 410.526 312.366 410.571C314.648 410.616 316.674 412.615 316.754 414.897C316.839 417.269 314.75 419.455 312.36 419.495V419.5Z" fill="#E7E7E7"/>
<path d="M132.248 410.838C134.564 410.786 136.42 412.506 136.545 414.805C136.67 417.229 134.859 419.193 132.441 419.245C130.011 419.296 128.121 417.422 128.144 414.998C128.166 412.682 129.937 410.894 132.248 410.843V410.838Z" fill="#E7E7E7"/>
<path d="M389.556 359.374C391.861 359.408 393.603 361.275 393.496 363.586C393.393 365.765 391.622 367.417 389.426 367.383C387.121 367.349 385.378 365.482 385.486 363.171C385.588 360.991 387.359 359.34 389.556 359.374Z" fill="#E7E7E7"/>
<path d="M308.284 29.6774C308.245 27.4806 309.891 25.6981 312.065 25.5903C314.375 25.471 316.249 27.2081 316.294 29.5128C316.339 31.8175 314.54 33.634 312.23 33.5999C310.033 33.5715 308.324 31.8742 308.284 29.6774Z" fill="#E7E7E7"/>
<path d="M363.336 385.486C365.533 385.463 367.293 387.127 367.389 389.306C367.486 391.617 365.737 393.473 363.433 393.501C361.128 393.524 359.328 391.708 359.379 389.403C359.425 387.206 361.139 385.514 363.336 385.492V385.486Z" fill="#E7E7E7"/>
<path d="M33.6002 312.383C33.5491 314.682 31.6701 316.419 29.3598 316.294C27.18 316.175 25.5394 314.393 25.5905 312.196C25.6416 309.897 27.5206 308.16 29.8309 308.285C32.0107 308.404 33.6513 310.186 33.6002 312.383Z" fill="#E7E7E7"/>
<path d="M234.977 436.592C237.157 436.535 238.985 438.227 239.081 440.401C239.183 442.695 237.355 444.591 235.062 444.573C232.877 444.556 231.123 442.808 231.1 440.628C231.077 438.443 232.797 436.655 234.977 436.598V436.592Z" fill="#E7E7E7"/>
<path d="M209.563 444.528C207.446 444.539 205.606 442.717 205.595 440.6C205.584 438.482 207.4 436.643 209.523 436.632C211.641 436.621 213.48 438.437 213.491 440.56C213.503 442.677 211.686 444.517 209.563 444.528Z" fill="#E7E7E7"/>
<path d="M393.32 81.3344C393.269 83.3439 391.48 85.0866 389.477 85.0809C387.371 85.0752 385.52 83.1111 385.662 81.0278C385.798 79.0183 387.66 77.3324 389.641 77.4232C391.651 77.514 393.365 79.3419 393.32 81.3344Z" fill="#E7E7E7"/>
<path d="M256.769 440.367C256.9 438.352 258.784 436.632 260.777 436.717C262.911 436.808 264.699 438.846 264.478 440.935C264.262 442.967 262.338 444.602 260.346 444.438C258.319 444.267 256.639 442.354 256.764 440.367H256.769Z" fill="#E7E7E7"/>
<path d="M33.5264 132.407C33.4866 134.524 31.5736 136.346 29.4676 136.273C27.3502 136.193 25.4713 134.229 25.6984 132.146C25.9481 129.886 27.3048 128.552 29.5982 128.445C31.7099 128.342 33.5718 130.301 33.532 132.412L33.5264 132.407Z" fill="#E7E7E7"/>
<path d="M132.293 25.6698C134.41 25.6414 136.284 27.4976 136.272 29.615C136.261 31.7324 134.365 33.6567 132.259 33.5034C129.977 33.3332 128.632 31.9935 128.444 29.7172C128.268 27.6168 130.181 25.6981 132.299 25.6698H132.293Z" fill="#E7E7E7"/>
<path d="M85.0811 389.375C85.1492 391.356 83.4406 393.212 81.4424 393.326C79.3534 393.445 77.412 391.583 77.4234 389.477C77.4347 387.467 79.1945 385.696 81.204 385.668C83.2022 385.639 85.013 387.371 85.0811 389.38V389.375Z" fill="#E7E7E7"/>
<path d="M367.105 55.0519C367.156 57.1068 365.459 58.8552 363.398 58.8666C361.338 58.8779 359.555 57.1466 359.675 55.0916C359.799 52.9118 361.054 51.6289 363.222 51.4359C365.26 51.2543 367.054 52.9913 367.105 55.0519Z" fill="#E7E7E7"/>
<path d="M187.725 440.702C187.657 442.757 185.852 444.415 183.808 444.307C181.753 444.193 180.067 442.354 180.3 440.322C180.55 438.153 181.873 436.944 184.052 436.876C186.107 436.814 187.793 438.647 187.725 440.702Z" fill="#E7E7E7"/>
<path d="M55.0407 367.105C52.9857 367.043 51.3168 365.254 51.419 363.205C51.5212 361.15 53.349 359.453 55.3869 359.68C57.5554 359.924 58.7759 361.235 58.8497 363.415C58.9235 365.47 57.0956 367.167 55.0407 367.105Z" fill="#E7E7E7"/>
<path d="M337.791 418.615C335.589 418.393 334.278 417.235 334.312 414.993C334.346 412.757 335.651 411.491 337.882 411.519C340.119 411.547 341.379 412.853 341.356 415.084C341.339 417.338 339.983 418.444 337.786 418.615H337.791Z" fill="#E7E7E7"/>
<path d="M7.55557 235.125C7.35121 237.179 6.30104 238.428 4.17232 238.547C2.12875 238.661 0.579041 237.111 0.590394 235.068C0.601747 233.036 2.18552 231.497 4.22341 231.633C6.34645 231.781 7.38527 233.041 7.56124 235.125H7.55557Z" fill="#E7E7E7"/>
<path d="M238.559 3.93421C238.621 5.97778 237.106 7.5729 235.068 7.50478C232.956 7.43099 231.764 6.27296 231.639 4.16695C231.514 2.12905 233.075 0.57367 235.119 0.585023C237.043 0.596376 238.502 2.0212 238.565 3.93421H238.559Z" fill="#E7E7E7"/>
<path d="M209.926 0.601885C211.612 0.772183 212.855 1.811 212.986 3.92269C213.105 5.93788 211.555 7.50462 209.535 7.49894C207.519 7.49326 206.015 5.91517 206.095 3.89431C206.174 1.99833 207.65 0.590532 209.926 0.596209V0.601885Z" fill="#E7E7E7"/>
<path d="M7.5389 209.568C7.32887 211.612 6.28438 212.855 4.17269 212.98C2.1575 213.099 0.590759 211.538 0.602112 209.523C0.613465 207.508 2.19723 205.964 4.21242 206.106C6.32411 206.253 7.35158 207.508 7.5389 209.568Z" fill="#E7E7E7"/>
<path d="M84.678 55.2846C84.3431 57.2998 83.2305 58.5884 81.1245 58.4976C79.0412 58.4011 77.815 57.1011 77.9002 55.0121C77.9853 52.9288 79.2966 51.7084 81.3856 51.7878C83.4859 51.8616 84.5134 53.2183 84.6837 55.2903L84.678 55.2846Z" fill="#E7E7E7"/>
<path d="M33.3277 338.575C32.0618 339.42 30.864 340.811 29.5073 340.987C27.6227 341.237 26.3171 339.738 26.3625 337.769C26.4079 335.81 27.7589 334.351 29.6435 334.686C30.9946 334.925 32.1299 336.361 33.3617 337.258C33.3504 337.695 33.339 338.138 33.3333 338.575H33.3277Z" fill="#E7E7E7"/>
<path d="M106.646 418.45C104.608 418.081 103.303 416.94 103.462 414.817C103.615 412.734 104.977 411.53 107.089 411.701C109.036 411.859 110.206 413.137 110.143 415.112C110.075 417.235 108.718 418.268 106.646 418.45Z" fill="#E7E7E7"/>
<path d="M55.0517 77.8264C57.1123 78.0308 58.4576 79.0639 58.4973 81.1756C58.5428 83.2646 57.3109 84.5588 55.222 84.6099C53.133 84.661 51.8444 83.4235 51.7819 81.3402C51.7195 79.2285 53.0194 78.1386 55.046 77.8321L55.0517 77.8264Z" fill="#E7E7E7"/>
<path d="M283.307 440.742C283.597 438.534 284.681 437.194 286.804 437.245C288.905 437.296 290.148 438.613 290.085 440.713C290.029 442.672 288.791 443.887 286.821 443.926C284.681 443.972 283.648 442.604 283.302 440.742H283.307Z" fill="#E7E7E7"/>
<path d="M337.246 33.3615C336.349 32.1296 334.919 30.9886 334.681 29.6376C334.351 27.753 335.81 26.4076 337.769 26.3622C339.738 26.3168 341.237 27.6281 340.982 29.5127C340.8 30.8694 339.409 32.0615 338.563 33.3274C338.126 33.3388 337.683 33.3444 337.246 33.3558V33.3615Z" fill="#E7E7E7"/>
<path d="M3.31528 187.731C2.46947 186.465 1.07871 185.267 0.902734 183.91C0.652964 182.026 2.15158 180.72 4.12136 180.766C6.07978 180.811 7.53867 182.162 7.20375 184.047C6.96533 185.398 5.52915 186.533 4.62658 187.765C4.18948 187.753 3.75238 187.742 3.30961 187.731H3.31528Z" fill="#E7E7E7"/>
<path d="M264.053 4.05911C263.769 6.11403 262.684 7.45371 260.556 7.39127C258.455 7.32882 257.218 6.00618 257.292 3.90584C257.36 1.94742 258.603 0.732627 260.567 0.709921C262.696 0.681538 263.774 2.00418 264.047 4.05911H264.053Z" fill="#E7E7E7"/>
<path d="M158.474 436.819C159.37 438.051 160.801 439.192 161.039 440.538C161.369 442.422 159.91 443.767 157.951 443.813C155.982 443.858 154.483 442.547 154.738 440.662C154.92 439.306 156.311 438.114 157.162 436.848C157.599 436.836 158.042 436.831 158.479 436.819H158.474Z" fill="#E7E7E7"/>
<path d="M7.48751 260.499C7.18666 262.696 6.09675 264.035 3.97371 263.973C1.87337 263.91 0.635872 262.588 0.709668 260.487C0.777787 258.529 2.02096 257.32 3.98506 257.291C6.11946 257.263 7.1526 258.625 7.48184 260.504L7.48751 260.499Z" fill="#E7E7E7"/>
<path d="M187.731 4.79121C186.465 5.63702 185.267 7.02778 183.91 7.20376C182.026 7.45353 180.72 5.95491 180.766 3.98513C180.811 2.02671 182.162 0.567827 184.047 0.902746C185.398 1.14116 186.533 2.57734 187.765 3.47424C187.753 3.91134 187.742 4.35411 187.736 4.79121H187.731Z" fill="#E7E7E7"/>
<path d="M105.818 32.9189C105.176 31.6871 103.899 30.3531 104.075 29.2518C104.234 28.2584 105.908 26.9358 107.044 26.7996C108.917 26.5725 110.081 28.1392 109.604 29.9387C109.297 31.1024 108.014 32.005 107.174 33.0268C106.72 32.987 106.272 32.953 105.818 32.9132V32.9189Z" fill="#E7E7E7"/>
<path d="M32.9924 106.118C32.3907 108.684 31.3178 110.041 29.5013 109.592C28.3944 109.32 27.032 107.901 26.7992 106.783C26.4189 104.943 27.8551 103.632 29.7056 103.973C30.8921 104.188 31.9025 105.369 32.9924 106.118Z" fill="#E7E7E7"/>
<path d="M289.989 4.86512C288.842 5.54064 287.553 6.89734 286.583 6.69866C285.538 6.48863 284.227 4.8708 284.119 3.75819C284.045 3.00888 285.845 1.40241 286.81 1.39673C287.894 1.39673 288.978 2.76479 290.063 3.5368L289.989 4.85945V4.86512Z" fill="#E7E7E7"/>
<path d="M7.31734 287.474C6.1877 288.178 4.94452 289.563 3.96815 289.393C2.91798 289.211 1.56128 287.639 1.41936 286.532C1.32286 285.783 3.07125 284.125 4.03627 284.091C5.11482 284.057 6.24446 285.397 7.3514 286.135C7.34004 286.583 7.32869 287.026 7.31734 287.474Z" fill="#E7E7E7"/>
<path d="M393.416 389.596C391.537 390.828 390.391 392.173 389.448 392.043C388.449 391.901 386.945 390.334 386.968 389.426C386.99 388.518 388.58 387.03 389.584 386.945C390.532 386.866 391.611 388.268 393.422 389.596H393.416Z" fill="#E7E7E7"/>
<path d="M153.961 3.94561C155.84 2.71379 156.992 1.36844 157.934 1.50467C158.933 1.64659 159.728 3.1963 160.614 4.12726C159.677 5.01281 158.797 6.5171 157.798 6.60225C156.85 6.68172 155.772 5.27961 153.961 3.94561Z" fill="#E7E7E7"/>
<path d="M4.16134 161.811C2.82734 160.001 1.42522 158.928 1.50469 157.974C1.58984 156.969 3.09414 156.089 3.97969 155.158C4.91065 156.044 6.46035 156.839 6.60227 157.838C6.73283 158.78 5.39316 159.932 4.16134 161.811Z" fill="#E7E7E7"/>
<path d="M316.215 440.685C314.341 441.917 313.189 443.268 312.247 443.132C311.248 442.995 309.738 441.429 309.76 440.52C309.783 439.612 311.372 438.125 312.371 438.034C313.319 437.949 314.398 439.357 316.209 440.685H316.215Z" fill="#E7E7E7"/>
<path d="M132.486 436.961C133.599 438.727 134.802 439.8 134.666 440.657C134.518 441.565 133.105 442.269 132.242 443.064C131.447 442.201 130.091 441.384 130.023 440.464C129.954 439.601 131.243 438.63 132.492 436.961H132.486Z" fill="#E7E7E7"/>
<path d="M363.523 418.654C362.274 416.985 360.992 416.015 361.06 415.146C361.134 414.226 362.462 412.762 363.291 412.734C364.119 412.699 365.561 414.051 365.709 414.964C365.845 415.822 364.642 416.889 363.529 418.654H363.523Z" fill="#E7E7E7"/>
<path d="M4.18976 315.432C3.09985 314.052 1.87371 313.15 1.99292 312.491C2.15754 311.594 3.34395 310.879 4.09326 310.09C4.81418 310.816 6.01762 311.481 6.1198 312.281C6.2163 313.047 5.16046 313.956 4.19544 315.432H4.18976Z" fill="#E7E7E7"/>
<path d="M58.5655 389.624C56.8739 390.674 55.8748 391.793 55.0744 391.662C54.2229 391.526 53.5644 390.209 52.8208 389.409C53.6212 388.665 54.3819 387.405 55.239 387.331C56.0451 387.263 56.959 388.449 58.5655 389.624Z" fill="#E7E7E7"/>
<path d="M84.3886 415.214C82.8957 416.162 81.8739 417.286 81.2324 417.099C80.3582 416.843 79.7735 415.589 79.064 414.766C79.8644 414.124 80.6477 412.989 81.4595 412.972C82.2315 412.955 83.0262 414.107 84.3886 415.214Z" fill="#E7E7E7"/>
<path d="M392.922 55.2732C391.231 56.3234 390.232 57.4416 389.431 57.3111C388.58 57.1748 387.32 55.8352 387.348 55.0632C387.376 54.2911 388.739 53.0536 389.596 52.9799C390.402 52.9117 391.316 54.0981 392.922 55.2732Z" fill="#E7E7E7"/>
<path d="M312.213 0.914124C313.28 2.31624 314.483 3.24152 314.353 3.89433C314.171 4.79123 312.973 5.4781 312.213 6.25579C311.503 5.51784 310.317 4.83097 310.231 4.02489C310.152 3.25855 311.225 2.37301 312.218 0.908447L312.213 0.914124Z" fill="#E7E7E7"/>
<path d="M32.4703 363.41C31.0908 364.335 30.2734 365.312 29.5922 365.221C28.8713 365.124 27.7644 364.017 27.77 363.359C27.7757 362.7 28.9054 361.616 29.6263 361.537C30.3075 361.463 31.1079 362.456 32.4646 363.404L32.4703 363.41Z" fill="#E7E7E7"/>
<path d="M235.164 463.25C236.067 464.646 237.026 465.48 236.93 466.162C236.822 466.883 235.692 467.967 235.039 467.95C234.387 467.933 233.319 466.786 233.251 466.059C233.189 465.378 234.194 464.595 235.17 463.25H235.164Z" fill="#E7E7E7"/>
<path d="M209.466 469C208.564 467.604 207.605 466.769 207.701 466.088C207.809 465.367 208.922 464.794 209.597 464.152C210.233 464.828 211.317 465.458 211.379 466.19C211.442 466.871 210.437 467.655 209.461 469H209.466Z" fill="#E7E7E7"/>
<path d="M4.08154 135.217C3.12788 133.854 2.13447 133.06 2.21395 132.378C2.29342 131.652 3.38332 131.039 4.03613 130.375C4.70029 131.022 5.80155 131.618 5.89805 132.339C5.98888 133.02 5.0125 133.837 4.08722 135.217H4.08154Z" fill="#E7E7E7"/>
<path d="M55.2677 58.015C54.2743 56.6923 53.2525 55.926 53.3036 55.2391C53.3604 54.5125 54.4276 53.8597 55.0577 53.1729C55.7445 53.7973 56.8685 54.3536 56.9877 55.0745C57.1012 55.75 56.1476 56.6015 55.2734 58.015H55.2677Z" fill="#E7E7E7"/>
<path d="M132.265 6.92569C131.362 5.52925 130.403 4.69479 130.499 4.0136C130.607 3.29267 131.72 2.71934 132.395 2.07788C133.031 2.75339 134.115 3.3835 134.178 4.11578C134.24 4.79697 133.236 5.58034 132.259 6.92569H132.265Z" fill="#E7E7E7"/>
<path d="M366.254 29.6719C364.857 30.5745 364.023 31.5338 363.342 31.4373C362.621 31.3294 362.047 30.2168 361.406 29.5413C362.082 28.9055 362.712 27.8213 363.444 27.7589C364.125 27.6964 364.908 28.7012 366.254 29.6776V29.6719Z" fill="#E7E7E7"/>
<path d="M81.13 32.1298C80.3637 30.8525 79.5122 30.0522 79.6427 29.4675C79.779 28.8317 80.7837 28.1051 81.499 27.9859C81.8963 27.9234 82.9068 29.0587 82.8727 29.6037C82.833 30.2906 82.0042 30.932 81.13 32.1298Z" fill="#E7E7E7"/>
<path d="M32.1242 81.0789C30.9435 81.9814 30.2566 82.9181 29.6549 82.867C29.0134 82.8102 28.1619 81.8963 27.9803 81.2038C27.8724 80.8007 28.8658 79.6654 29.4108 79.637C30.0977 79.5973 30.8299 80.3466 32.1242 81.0845V81.0789Z" fill="#E7E7E7"/>
<path d="M340.369 440.509C339.154 441.366 338.427 442.269 337.825 442.195C337.19 442.11 336.378 441.168 336.219 440.464C336.128 440.061 337.173 438.971 337.718 438.96C338.41 438.948 339.108 439.72 340.374 440.509H340.369Z" fill="#E7E7E7"/>
<path d="M260.448 463.607C261.356 464.771 262.19 465.384 262.253 466.071C262.304 466.599 261.328 467.734 260.913 467.689C260.198 467.604 259.165 466.905 259.023 466.287C258.887 465.702 259.715 464.884 260.448 463.602V463.607Z" fill="#E7E7E7"/>
<path d="M185.222 467.291C184.279 467.019 183.343 466.746 182.4 466.474C182.281 466.235 182.162 465.991 182.043 465.753C182.883 465.327 183.78 464.498 184.546 464.606C185.091 464.686 185.449 466.025 185.891 466.803C185.67 466.968 185.443 467.127 185.222 467.291Z" fill="#E7E7E7"/>
</g>
<defs>
<clipPath id="clip0_2386_9414">
<rect width="468.415" height="468.415" fill="white" transform="translate(0.584961 0.584961)"/>
</clipPath>
</defs>
</svg>
