<svg width="439" height="637" viewBox="0 0 439 637" fill="none" xmlns="http://www.w3.org/2000/svg">
<g clip-path="url(#clip0_2385_9121)">
<path d="M135.331 319.052C135.3 327.41 128.709 333.947 120.344 333.916C111.986 333.885 105.449 327.294 105.48 318.928C105.51 310.57 112.101 304.033 120.467 304.064C128.825 304.095 135.362 310.686 135.331 319.052Z" fill="#F04100"/>
<path d="M85.5837 304.211C93.9727 304.173 100.494 310.694 100.448 319.091C100.409 327.294 93.965 333.731 85.7612 333.762C77.3723 333.8 70.8509 327.279 70.8972 318.882C70.9358 310.678 77.38 304.242 85.5837 304.211Z" fill="#F04100"/>
<path d="M135.177 284.408C135.115 292.758 128.486 299.171 120.058 299.04C111.893 298.909 105.564 292.365 105.619 284.114C105.68 275.764 112.31 269.351 120.737 269.482C128.902 269.613 135.231 276.158 135.177 284.408Z" fill="#F04100"/>
<path d="M85.3827 298.963C77.287 298.847 70.8891 292.233 70.974 284.06C71.0512 275.795 77.7963 269.351 86.1621 269.559C94.227 269.76 100.54 276.459 100.378 284.647C100.224 292.727 93.5633 299.079 85.3827 298.963Z" fill="#F04100"/>
<path d="M169.45 318.813C169.574 326.731 163.06 333.314 155.119 333.306C147.316 333.299 140.942 326.993 140.818 319.168C140.695 311.249 147.208 304.666 155.15 304.674C162.952 304.682 169.327 310.987 169.45 318.813Z" fill="#F04100"/>
<path d="M120.243 368.035C112.278 367.919 105.85 361.259 106.097 353.364C106.336 345.523 112.803 339.295 120.575 339.403C128.539 339.519 134.968 346.179 134.721 354.074C134.482 361.915 128.015 368.143 120.243 368.035Z" fill="#F04100"/>
<path d="M99.8763 353.819C99.8145 361.738 93.4939 367.973 85.5756 367.912C77.6574 367.85 71.4216 361.529 71.4834 353.611C71.5451 345.693 77.8658 339.457 85.784 339.519C93.7022 339.581 99.938 345.901 99.8763 353.819Z" fill="#F04100"/>
<path d="M169.335 284.331C169.288 292.257 162.983 298.5 155.065 298.454C147.139 298.407 140.895 292.102 140.942 284.184C140.988 276.258 147.293 270.014 155.211 270.061C163.137 270.107 169.381 276.412 169.335 284.331Z" fill="#F04100"/>
<path d="M51.0087 333.013C43.0365 333.036 36.8702 326.847 36.9242 318.859C36.9782 311.072 43.0828 304.991 50.8852 304.967C58.8575 304.944 65.0238 311.134 64.9698 319.121C64.9158 326.908 58.8112 332.99 51.0087 333.013Z" fill="#F04100"/>
<path d="M64.9234 284.431C64.8539 292.203 58.6876 298.269 50.8697 298.238C42.9283 298.207 36.8237 291.902 36.9704 283.898C37.1093 276.165 43.3759 270.177 51.217 270.285C58.9654 270.385 64.9928 276.613 64.9234 284.431Z" fill="#F04100"/>
<path d="M120.421 263.555C112.456 263.555 106.313 257.342 106.382 249.355C106.452 241.575 112.58 235.517 120.39 235.509C128.354 235.509 134.497 241.722 134.428 249.71C134.359 257.497 128.231 263.547 120.421 263.555Z" fill="#F04100"/>
<path d="M99.6525 249.2C99.7837 257.049 93.8257 263.339 86.1005 263.509C78.0819 263.686 71.7458 257.605 71.6918 249.671C71.6377 241.845 77.6729 235.648 85.4367 235.556C93.2701 235.463 99.5213 241.459 99.6525 249.2Z" fill="#F04100"/>
<path d="M155.065 367.572C147.394 367.534 141.127 361.128 141.274 353.457C141.412 345.94 147.671 339.82 155.196 339.858C162.867 339.897 169.134 346.303 168.987 353.974C168.848 361.491 162.589 367.611 155.065 367.572Z" fill="#F04100"/>
<path d="M51.1244 367.472C43.7155 367.595 37.3177 361.359 37.1942 353.897C37.0707 346.48 43.3065 340.09 50.7694 339.966C58.186 339.843 64.5761 346.079 64.6996 353.542C64.823 360.958 58.595 367.348 51.1244 367.472Z" fill="#F04100"/>
<path d="M168.887 249.571C168.856 257.018 162.528 263.316 155.096 263.285C147.648 263.254 141.351 256.926 141.381 249.494C141.412 242.046 147.741 235.749 155.173 235.779C162.62 235.81 168.918 242.139 168.887 249.571Z" fill="#F04100"/>
<path d="M64.4991 249.571C64.4682 256.972 58.3945 263.045 51.001 263.084C43.4687 263.123 37.2252 256.794 37.395 249.293C37.5571 241.868 43.7234 235.88 51.086 235.972C58.4948 236.065 64.53 242.185 64.4991 249.571Z" fill="#F04100"/>
<path d="M203.987 318.836C204.064 326.391 198.229 332.311 190.689 332.341C183.141 332.372 177.261 326.492 177.284 318.951C177.307 311.558 183.018 305.754 190.388 305.639C197.944 305.523 203.917 311.311 203.987 318.836Z" fill="#F04100"/>
<path d="M120.428 402.571C112.888 402.587 107.015 396.698 107.046 389.15C107.077 381.61 113.012 375.791 120.559 375.868C127.937 375.946 133.687 381.711 133.749 389.096C133.811 396.644 127.961 402.556 120.428 402.571Z" fill="#F04100"/>
<path d="M98.9733 389.058C99.0427 396.652 93.216 402.533 85.645 402.517C78.2285 402.502 72.448 396.783 72.3785 389.382C72.3091 381.788 78.1281 375.907 85.7068 375.923C93.1233 375.938 98.9038 381.657 98.9733 389.058Z" fill="#F04100"/>
<path d="M190.612 297.558C183.041 297.551 177.237 291.647 177.33 284.053C177.422 276.659 183.226 270.956 190.643 270.964C198.213 270.971 204.017 276.875 203.924 284.469C203.832 291.863 198.028 297.566 190.612 297.558Z" fill="#F04100"/>
<path d="M2.28803 318.658C2.42694 311.35 8.46207 305.646 15.8632 305.832C23.164 306.017 28.821 312.098 28.5895 319.507C28.3657 326.646 22.4386 332.241 15.2072 332.141C7.88325 332.04 2.14138 326.052 2.2803 318.658H2.28803Z" fill="#F04100"/>
<path d="M133.556 214.047C133.548 221.409 127.66 227.236 120.282 227.182C112.935 227.128 107.154 221.201 107.247 213.815C107.339 206.63 113.127 200.904 120.328 200.873C127.698 200.842 133.571 206.684 133.556 214.047Z" fill="#F04100"/>
<path d="M155.119 376.115C162.404 376.115 168.324 382.104 168.231 389.405C168.138 396.528 162.273 402.324 155.134 402.324C147.849 402.324 141.929 396.335 142.022 389.035C142.115 381.911 147.98 376.115 155.119 376.115Z" fill="#F04100"/>
<path d="M190.565 366.824C183.28 366.793 177.399 360.758 177.53 353.465C177.662 346.341 183.558 340.584 190.704 340.623C197.99 340.653 203.871 346.689 203.739 353.982C203.608 361.105 197.712 366.862 190.565 366.824Z" fill="#F04100"/>
<path d="M15.3076 297.396C7.99909 297.335 2.2032 291.377 2.30353 284.03C2.41158 276.729 8.41585 270.971 15.7707 271.126C22.9094 271.272 28.5973 277.122 28.5818 284.307C28.5664 291.631 22.647 297.466 15.3076 297.404V297.396Z" fill="#F04100"/>
<path d="M85.5065 227.167C78.198 227.089 72.4175 221.108 72.541 213.761C72.6645 206.468 78.6842 200.726 86.039 200.888C93.17 201.05 98.8502 206.924 98.8116 214.101C98.7807 221.417 92.8459 227.244 85.5065 227.167Z" fill="#F04100"/>
<path d="M63.9745 389.158C64.0131 396.22 58.0706 402.209 51.0013 402.247C43.9397 402.286 37.9509 396.343 37.9123 389.274C37.8737 382.212 43.8162 376.224 50.8855 376.185C57.9471 376.146 63.9359 382.089 63.9745 389.158Z" fill="#F04100"/>
<path d="M203.662 249.439C203.724 256.501 197.797 262.505 190.72 262.559C183.658 262.621 177.654 256.694 177.6 249.617C177.538 242.555 183.465 236.551 190.542 236.497C197.604 236.435 203.608 242.362 203.662 249.439Z" fill="#F04100"/>
<path d="M15.3768 340.761C22.3998 340.715 28.4195 346.719 28.3963 353.742C28.3732 360.789 22.338 366.754 15.3151 366.662C8.40785 366.569 2.60424 360.781 2.48848 353.874C2.37272 346.858 8.31523 340.808 15.3768 340.761Z" fill="#F04100"/>
<path d="M168.084 213.9C168.177 220.915 162.211 226.958 155.165 226.981C148.142 227.005 142.138 220.985 142.184 213.962C142.23 207.062 147.987 201.236 154.91 201.074C161.91 200.911 167.991 206.839 168.084 213.9Z" fill="#F04100"/>
<path d="M15.4384 262.328C8.45399 262.328 2.71212 256.617 2.65038 249.625C2.58864 242.509 8.54659 236.597 15.6467 236.736C22.6543 236.875 28.3113 242.671 28.2418 249.632C28.1724 256.632 22.4228 262.328 15.4384 262.328Z" fill="#F04100"/>
<path d="M50.4146 226.804C43.3685 226.441 37.8659 220.514 38.1591 213.591C38.4679 206.406 44.6265 200.78 51.6649 201.266C58.7419 201.753 64.1287 207.749 63.712 214.656C63.2875 221.726 57.3296 227.159 50.4146 226.804Z" fill="#F04100"/>
<path d="M132.807 423.995C132.784 430.956 127.251 436.413 120.266 436.351C113.328 436.289 107.903 430.702 108.011 423.71C108.111 416.941 113.568 411.57 120.359 411.547C127.328 411.524 132.831 417.018 132.807 423.995Z" fill="#F04100"/>
<path d="M203.068 389.374C203.006 396.32 197.473 401.715 190.473 401.653C183.527 401.591 178.133 396.058 178.194 389.058C178.256 382.112 183.79 376.718 190.789 376.779C197.735 376.841 203.13 382.375 203.068 389.374Z" fill="#F04100"/>
<path d="M237.766 319.144C237.697 326.083 232.101 331.5 225.117 331.392C218.194 331.284 212.815 325.643 212.97 318.643C213.116 311.882 218.611 306.565 225.426 306.588C232.387 306.611 237.836 312.16 237.766 319.144Z" fill="#F04100"/>
<path d="M237.758 284.145C237.805 291.114 232.333 296.648 225.387 296.655C218.441 296.663 212.939 291.137 212.977 284.184C213.008 277.408 218.395 271.959 225.163 271.867C232.14 271.774 237.72 277.215 237.766 284.145H237.758Z" fill="#F04100"/>
<path d="M85.5681 411.554C92.5294 411.508 98.0628 416.988 98.0628 423.941C98.0628 430.887 92.5371 436.382 85.5835 436.343C78.8075 436.305 73.3666 430.91 73.2817 424.15C73.1968 417.173 78.6377 411.601 85.5681 411.554Z" fill="#F04100"/>
<path d="M27.7713 389.158C27.8021 395.903 22.3381 401.468 15.6007 401.545C8.70117 401.63 3.04421 395.988 3.12139 389.081C3.19084 382.344 8.73976 376.872 15.4849 376.887C22.2301 376.91 27.7404 382.413 27.7713 389.158Z" fill="#F04100"/>
<path d="M202.96 213.854C203.053 220.607 197.635 226.217 190.905 226.356C184.006 226.503 178.295 220.908 178.31 214.008C178.318 207.263 183.813 201.737 190.558 201.699C197.311 201.66 202.875 207.109 202.968 213.854H202.96Z" fill="#F04100"/>
<path d="M132.653 179.287C132.653 185.947 126.973 191.604 120.32 191.55C113.66 191.496 108.034 185.746 108.157 179.117C108.273 172.58 113.776 167.116 120.297 167.047C126.95 166.977 132.645 172.619 132.653 179.287Z" fill="#F04100"/>
<path d="M225.233 365.967C218.565 365.882 212.962 360.117 213.116 353.495C213.263 346.812 219.074 341.263 225.688 341.471C232.225 341.68 237.635 347.252 237.612 353.75C237.589 360.41 231.878 366.052 225.233 365.967Z" fill="#F04100"/>
<path d="M85.5216 167.062C92.1355 166.962 97.8774 172.603 97.916 179.248C97.9546 185.893 92.2822 191.573 85.6374 191.542C79.1315 191.519 73.598 186.086 73.4359 179.549C73.2661 172.943 78.8613 167.162 85.5216 167.062Z" fill="#F04100"/>
<path d="M15.6315 201.838C22.3149 201.969 27.8947 207.826 27.6323 214.409C27.3622 220.977 21.7361 226.349 15.2533 226.217C8.56994 226.086 2.99015 220.228 3.25255 213.645C3.51494 207.078 9.15649 201.706 15.6315 201.838Z" fill="#F04100"/>
<path d="M154.987 411.701C161.64 411.608 167.351 417.227 167.382 423.903C167.413 430.555 161.733 436.227 155.08 436.197C148.559 436.166 143.033 430.725 142.879 424.188C142.724 417.566 148.319 411.794 154.987 411.701Z" fill="#F04100"/>
<path d="M225.372 237.369C232.001 237.377 237.666 243.142 237.519 249.733C237.372 256.262 231.847 261.695 225.349 261.687C218.711 261.679 213.054 255.922 213.201 249.324C213.348 242.795 218.873 237.361 225.372 237.369Z" fill="#F04100"/>
<path d="M63.1021 424.018C63.0481 430.663 57.2599 436.297 50.6769 436.104C44.1401 435.919 38.7301 430.355 38.7841 423.872C38.8381 417.227 44.6263 411.593 51.2094 411.786C57.7461 411.971 63.1561 417.536 63.1021 424.018Z" fill="#F04100"/>
<path d="M167.104 179.225C167.15 185.847 161.733 191.288 155.111 191.28C148.482 191.264 143.079 185.808 143.157 179.187C143.226 172.696 148.466 167.433 154.957 167.325C161.571 167.217 167.058 172.588 167.104 179.225Z" fill="#F04100"/>
<path d="M50.9394 167.479C57.6614 167.479 62.8553 172.75 62.7627 179.488C62.6701 186.047 57.5224 191.118 50.9471 191.118C44.2251 191.118 39.0312 185.847 39.1238 179.109C39.2164 172.549 44.364 167.479 50.9394 167.479Z" fill="#F04100"/>
<path d="M202.273 424.127C202.196 430.671 196.956 435.703 190.357 435.579C183.828 435.456 178.835 430.177 179.005 423.563C179.167 417.196 184.299 412.265 190.728 412.303C197.288 412.342 202.358 417.528 202.281 424.127H202.273Z" fill="#F04100"/>
<path d="M237.002 389.112C237.048 395.695 231.947 400.85 225.372 400.858C218.796 400.858 213.687 395.718 213.726 389.135C213.764 382.722 218.765 377.667 225.163 377.582C231.762 377.497 236.956 382.56 237.002 389.112Z" fill="#F04100"/>
<path d="M15.5777 412.388C21.8752 412.457 27.0228 417.674 26.9997 423.98C26.9765 430.424 21.5665 435.68 15.1224 435.502C8.83256 435.325 3.76984 430.015 3.89333 423.717C4.01681 417.42 9.27245 412.318 15.5777 412.388Z" fill="#F04100"/>
<path d="M225.418 202.47C231.715 202.501 236.894 207.688 236.917 213.985C236.94 220.437 231.569 225.716 225.117 225.577C218.819 225.446 213.726 220.175 213.811 213.869C213.896 207.572 219.12 202.44 225.426 202.463L225.418 202.47Z" fill="#F04100"/>
<path d="M190.596 190.817C184.337 190.794 179.097 185.515 179.12 179.264C179.143 173.012 184.422 167.765 190.673 167.788C196.932 167.811 202.173 173.09 202.149 179.341C202.126 185.592 196.847 190.84 190.596 190.817Z" fill="#F04100"/>
<path d="M85.3676 470.123C79.0855 469.907 73.8994 464.35 74.2389 458.176C74.5785 452.018 79.9345 447.024 85.9851 447.233C92.2672 447.449 97.4533 453.006 97.1138 459.18C96.7742 465.338 91.4182 470.331 85.3676 470.123Z" fill="#F04100"/>
<path d="M131.866 458.531C131.958 464.736 126.672 470.108 120.444 470.139C114.231 470.169 108.898 464.837 108.937 458.624C108.968 452.542 114.061 447.364 120.166 447.21C126.355 447.055 131.773 452.295 131.866 458.531Z" fill="#F04100"/>
<path d="M271.554 319.075C271.492 325.303 266.105 330.574 259.908 330.451C253.664 330.327 248.44 324.894 248.625 318.704C248.81 312.6 254.004 307.522 260.078 307.522C266.298 307.522 271.608 312.862 271.554 319.075Z" fill="#F04100"/>
<path d="M260.271 272.808C266.545 272.932 271.785 278.434 271.531 284.631C271.276 290.775 265.974 295.822 259.908 295.706C253.634 295.583 248.393 290.08 248.648 283.883C248.903 277.74 254.205 272.692 260.271 272.808Z" fill="#F04100"/>
<path d="M15.3149 190.678C9.18714 190.585 4.04724 185.368 4.07039 179.271C4.09354 173.012 9.5653 167.703 15.7702 167.927C21.9211 168.15 26.9838 173.46 26.8218 179.526C26.6674 185.669 21.404 190.763 15.3149 190.678Z" fill="#F04100"/>
<path d="M166.34 458.693C166.325 464.914 161.231 469.953 155.018 469.884C148.79 469.814 143.797 464.667 143.928 458.462C144.06 452.381 148.983 447.511 155.057 447.464C161.27 447.418 166.356 452.473 166.34 458.693Z" fill="#F04100"/>
<path d="M271.299 353.673C271.33 359.885 266.259 364.956 260.047 364.925C253.826 364.894 248.794 359.785 248.887 353.573C248.98 347.499 253.873 342.598 259.954 342.513C266.167 342.421 271.276 347.445 271.307 353.673H271.299Z" fill="#F04100"/>
<path d="M120.59 133.483C126.888 133.583 131.68 138.631 131.48 144.951C131.287 151.087 126.378 155.748 120.212 155.656C113.914 155.555 109.122 150.508 109.322 144.187C109.515 138.052 114.424 133.39 120.59 133.483Z" fill="#F04100"/>
<path d="M96.7277 144.457C96.7818 150.662 92.0663 155.524 85.8846 155.625C79.5253 155.733 74.5783 150.848 74.6169 144.488C74.6555 138.291 79.4558 133.522 85.653 133.514C91.8502 133.506 96.6737 138.26 96.7277 144.457Z" fill="#F04100"/>
<path d="M259.916 260.545C253.742 260.468 249.034 255.652 249.073 249.455C249.111 243.127 254.081 238.342 260.456 238.519C266.607 238.689 271.23 243.59 271.106 249.802C270.983 255.961 266.128 260.63 259.916 260.545Z" fill="#F04100"/>
<path d="M61.9603 458.909C61.8522 465.076 57.0133 469.753 50.8084 469.691C44.48 469.621 39.7337 464.628 39.9344 458.253C40.135 452.11 45.0511 447.511 51.2715 447.665C57.4224 447.819 62.0683 452.704 61.9603 458.909Z" fill="#F04100"/>
<path d="M236.253 423.91C236.269 430.069 231.468 434.862 225.302 434.838C219.151 434.815 214.405 429.969 214.474 423.795C214.544 417.806 219.244 413.121 225.233 413.06C231.407 413.006 236.238 417.76 236.253 423.91Z" fill="#F04100"/>
<path d="M155.096 155.447C148.96 155.432 144.191 150.593 144.253 144.434C144.307 138.307 149.184 133.591 155.358 133.684C161.324 133.776 165.985 138.515 166.008 144.504C166.032 150.647 161.239 155.463 155.096 155.44V155.447Z" fill="#F04100"/>
<path d="M61.7824 144.504C61.8133 150.493 57.0824 155.332 51.1168 155.409C44.9659 155.486 40.0575 150.593 40.1192 144.45C40.1733 138.476 44.9967 133.73 50.9778 133.738C56.959 133.753 61.7516 138.53 61.7824 144.504Z" fill="#F04100"/>
<path d="M225.495 168.505C231.422 168.575 236.23 173.499 236.161 179.426C236.091 185.353 231.167 190.153 225.233 190.091C219.306 190.022 214.505 185.098 214.567 179.171C214.636 173.244 219.56 168.444 225.487 168.505H225.495Z" fill="#F04100"/>
<path d="M26.0964 458.832C25.9883 464.551 21.0722 469.367 15.3844 469.321C9.53446 469.274 4.55663 464.103 4.79588 458.323C5.03512 452.597 10.0515 447.85 15.7008 448.02C21.4272 448.198 26.2044 453.16 26.0964 458.832Z" fill="#F04100"/>
<path d="M190.673 447.912C196.546 447.935 201.416 452.843 201.401 458.709C201.378 464.582 196.469 469.452 190.604 469.436C184.731 469.413 179.861 464.505 179.877 458.639C179.9 452.766 184.808 447.896 190.673 447.912Z" fill="#F04100"/>
<path d="M270.851 389.096C270.921 394.962 266.082 399.909 260.209 399.978C254.343 400.048 249.396 395.209 249.327 389.336C249.257 383.47 254.096 378.523 259.969 378.454C265.835 378.384 270.782 383.223 270.851 389.096Z" fill="#F04100"/>
<path d="M259.9 224.682C254.174 224.55 249.373 219.627 249.435 213.939C249.497 208.081 254.683 203.126 260.464 203.389C266.205 203.651 270.921 208.675 270.736 214.317C270.543 220.043 265.557 224.813 259.9 224.682Z" fill="#F04100"/>
<path d="M201.185 144.581C201.177 150.284 196.323 155.131 190.627 155.123C184.924 155.115 180.077 150.261 180.085 144.565C180.093 138.862 184.947 134.015 190.643 134.023C196.346 134.031 201.193 138.878 201.185 144.581Z" fill="#F04100"/>
<path d="M25.7495 144.589C25.7418 150.33 21.2656 154.837 15.5237 154.876C9.62751 154.922 5.03556 150.269 5.13589 144.365C5.23622 138.638 9.80502 134.208 15.5546 134.27C21.2965 134.324 25.7572 138.847 25.7495 144.589Z" fill="#F04100"/>
<path d="M130.577 493.577C130.5 499.357 125.962 503.702 120.127 503.579C114.362 503.463 110.056 498.887 110.218 493.037C110.372 487.426 114.802 483.189 120.467 483.228C126.263 483.258 130.646 487.75 130.569 493.577H130.577Z" fill="#F04100"/>
<path d="M294.961 329.162C289.134 329.223 284.658 324.832 284.643 319.029C284.62 313.217 289.057 308.78 294.868 308.803C300.518 308.826 304.894 313.125 304.994 318.743C305.102 324.57 300.741 329.1 294.961 329.162Z" fill="#F04100"/>
<path d="M295.007 294.417C289.196 294.502 284.704 290.126 284.658 284.354C284.619 278.55 289.034 274.105 294.822 274.105C300.456 274.105 304.855 278.388 304.978 283.975C305.102 289.795 300.764 294.332 295.007 294.417Z" fill="#F04100"/>
<path d="M95.8324 493.554C95.7629 499.319 91.2404 503.671 85.4291 503.563C79.6795 503.455 75.3731 498.886 75.5197 493.06C75.6664 487.472 80.0885 483.22 85.7301 483.243C91.5105 483.266 95.9018 487.742 95.8324 493.554Z" fill="#F04100"/>
<path d="M235.412 458.817C235.343 464.35 230.859 468.742 225.318 468.718C219.63 468.695 215.146 464.034 215.316 458.331C215.485 452.813 220.047 448.498 225.603 448.622C231.129 448.738 235.482 453.26 235.412 458.817Z" fill="#F04100"/>
<path d="M155.296 503.455C149.747 503.54 145.209 499.195 145.078 493.669C144.947 487.966 149.454 483.343 155.149 483.359C160.691 483.374 165.136 487.796 165.175 493.337C165.213 498.886 160.83 503.37 155.296 503.455Z" fill="#F04100"/>
<path d="M304.87 353.557C304.948 359.106 300.603 363.636 295.077 363.767C289.374 363.899 284.759 359.384 284.774 353.688C284.789 348.147 289.219 343.702 294.76 343.671C300.309 343.64 304.793 348.024 304.87 353.557Z" fill="#F04100"/>
<path d="M270.141 423.771C270.234 429.32 265.897 433.858 260.371 433.997C254.668 434.136 250.045 429.629 250.045 423.933C250.045 418.392 254.467 413.939 260.008 413.901C265.557 413.862 270.049 418.238 270.141 423.771Z" fill="#F04100"/>
<path d="M130.376 110.384C130.044 115.856 125.175 120.186 119.765 119.8C114.285 119.414 110.01 114.498 110.45 109.096C110.882 103.763 115.582 99.5953 120.861 99.8577C126.34 100.128 130.708 104.959 130.384 110.377L130.376 110.384Z" fill="#F04100"/>
<path d="M304.824 249.432C304.878 254.942 300.332 259.534 294.822 259.534C289.312 259.534 284.758 254.95 284.812 249.432C284.867 244.068 289.258 239.63 294.621 239.522C300.132 239.414 304.762 243.914 304.824 249.432Z" fill="#F04100"/>
<path d="M50.9778 483.397C56.4958 483.413 61.0261 488.02 60.9489 493.53C60.8717 499.048 56.2257 503.532 50.7154 503.409C45.3517 503.285 40.9681 498.832 40.9373 493.469C40.8987 487.958 45.4597 483.382 50.9778 483.397Z" fill="#F04100"/>
<path d="M225.302 134.679C230.55 134.641 235.15 139.132 235.258 144.411C235.366 149.798 230.635 154.544 225.24 154.459C219.962 154.374 215.454 149.79 215.478 144.535C215.501 139.263 220.031 134.718 225.31 134.679H225.302Z" fill="#F04100"/>
<path d="M260.116 169.377C265.411 169.393 269.972 173.931 270.018 179.233C270.064 184.658 265.279 189.374 259.869 189.227C254.56 189.08 250.083 184.45 250.161 179.179C250.238 173.877 254.83 169.362 260.116 169.377Z" fill="#F04100"/>
<path d="M95.6396 109.999C95.547 115.47 90.7621 120.024 85.3289 119.808C79.9961 119.599 75.6203 114.992 75.7129 109.69C75.8055 104.218 80.5904 99.6648 86.0235 99.8809C91.3564 100.089 95.7322 104.697 95.6396 109.999Z" fill="#F04100"/>
<path d="M155.235 100.043C160.567 100.112 165.067 104.758 164.936 110.045C164.797 115.385 160.112 119.846 154.833 119.645C149.632 119.445 145.325 114.999 145.325 109.836C145.325 104.519 149.925 99.9733 155.235 100.043Z" fill="#F04100"/>
<path d="M60.6328 109.867C60.6174 115.247 56.0872 119.669 50.7312 119.53C45.491 119.399 41.2463 115.046 41.2618 109.821C41.2772 104.442 45.8074 100.02 51.1634 100.159C56.4036 100.29 60.6483 104.643 60.6328 109.867Z" fill="#F04100"/>
<path d="M304.384 389.259C304.361 394.591 300.209 398.759 294.876 398.782C289.404 398.813 285.129 394.46 285.252 388.981C285.376 383.671 289.628 379.573 294.953 379.642C300.278 379.712 304.407 383.926 304.384 389.251V389.259Z" fill="#F04100"/>
<path d="M294.915 223.478C289.505 223.524 285.376 219.434 285.376 214.031C285.376 208.629 289.513 204.546 294.923 204.593C300.163 204.639 304.184 208.621 304.269 213.846C304.353 219.271 300.309 223.439 294.915 223.478Z" fill="#F04100"/>
<path d="M15.2536 502.853C9.87441 502.768 5.869 498.555 6.0002 493.121C6.1314 487.758 10.3915 483.791 15.8247 483.968C21.034 484.138 24.9314 488.236 24.8851 493.5C24.8388 498.894 20.679 502.938 15.2536 502.853Z" fill="#F04100"/>
<path d="M190.681 502.969C185.356 502.992 181.142 498.863 181.065 493.546C180.988 488.066 185.302 483.76 190.774 483.837C196.099 483.914 200.22 488.128 200.197 493.453C200.174 498.786 196.014 502.946 190.673 502.969H190.681Z" fill="#F04100"/>
<path d="M181.32 109.528C181.467 104.38 185.657 100.429 190.851 100.529C196.161 100.629 200.182 104.982 199.935 110.353C199.703 115.478 195.428 119.344 190.218 119.151C185.086 118.959 181.173 114.729 181.32 109.528Z" fill="#F04100"/>
<path d="M269.308 458.856C269.2 463.941 264.77 468.109 259.715 467.893C254.783 467.677 250.77 463.409 250.87 458.493C250.979 453.407 255.408 449.239 260.463 449.463C265.395 449.679 269.408 453.947 269.308 458.863V458.856Z" fill="#F04100"/>
<path d="M24.661 109.79C24.6919 114.868 20.3778 119.144 15.2997 119.059C10.3681 118.982 6.25467 114.822 6.2238 109.89C6.19293 104.812 10.507 100.537 15.5852 100.622C20.5167 100.699 24.6302 104.859 24.661 109.79Z" fill="#F04100"/>
<path d="M251.063 144.388C251.187 139.472 255.516 135.358 260.371 135.544C265.302 135.729 269.362 140.097 269.115 144.951C268.868 149.759 264.754 153.664 260.008 153.603C255.1 153.541 250.948 149.258 251.063 144.388Z" fill="#F04100"/>
<path d="M303.852 424.096C303.751 429.004 299.437 433.141 294.575 432.978C289.644 432.816 285.569 428.464 285.792 423.609C286.016 418.817 290.122 414.888 294.868 414.919C299.769 414.958 303.944 419.218 303.844 424.096H303.852Z" fill="#F04100"/>
<path d="M225.21 484.378C230.087 484.277 234.355 488.452 234.386 493.353C234.425 498.254 230.218 502.467 225.31 502.437C220.548 502.406 216.481 498.439 216.327 493.654C216.165 488.8 220.301 484.478 225.21 484.378Z" fill="#F04100"/>
<path d="M330.516 327.958C325.584 328.081 321.355 323.945 321.355 318.982C321.355 314.174 325.314 310.13 330.138 310.015C335.069 309.891 339.298 314.028 339.298 318.99C339.298 323.798 335.339 327.842 330.516 327.958Z" fill="#F04100"/>
<path d="M129.373 528.908C129.373 533.862 125.144 538.007 120.205 537.876C115.381 537.752 111.43 533.708 111.43 528.9C111.43 523.945 115.659 519.801 120.598 519.932C125.422 520.056 129.373 524.1 129.373 528.908Z" fill="#F04100"/>
<path d="M94.5743 528.946C94.5512 533.801 90.5843 537.775 85.73 537.814C80.7367 537.852 76.6233 533.662 76.7699 528.676C76.9088 523.814 80.9605 519.924 85.8072 520.002C90.6692 520.087 94.5975 524.092 94.5743 528.946Z" fill="#F04100"/>
<path d="M330.246 275.355C335.093 275.309 339.121 279.221 339.229 284.083C339.337 289.077 335.208 293.236 330.207 293.159C325.345 293.09 321.409 289.092 321.417 284.238C321.425 279.383 325.384 275.401 330.246 275.355Z" fill="#F04100"/>
<path d="M294.807 170.543C299.746 170.535 303.566 174.34 303.574 179.279C303.581 184.218 299.777 188.038 294.837 188.046C289.898 188.054 286.078 184.249 286.07 179.31C286.063 174.371 289.867 170.55 294.807 170.543Z" fill="#F04100"/>
<path d="M94.181 74.8914C93.9109 79.5914 89.89 83.126 85.1206 82.8482C80.4206 82.5781 76.8859 78.5572 77.1638 73.7878C77.4339 69.0878 81.4547 65.5532 86.2242 65.831C90.9242 66.1011 94.4588 70.122 94.181 74.8914Z" fill="#F04100"/>
<path d="M120.289 82.8868C115.505 82.8328 111.808 79.028 111.862 74.2277C111.916 69.4428 115.721 65.7461 120.521 65.8001C125.306 65.8542 129.003 69.6589 128.949 74.4593C128.895 79.2441 125.09 82.9408 120.289 82.8868Z" fill="#F04100"/>
<path d="M338.974 353.588C339.036 358.597 335.262 362.401 330.253 362.37C325.422 362.34 321.726 358.666 321.664 353.843C321.602 348.834 325.376 345.029 330.385 345.06C335.216 345.091 338.913 348.764 338.974 353.588Z" fill="#F04100"/>
<path d="M338.897 249.393C338.959 254.209 335.324 257.998 330.554 258.106C325.584 258.214 321.718 254.425 321.749 249.47C321.772 244.678 325.492 240.966 330.284 240.95C335.092 240.935 338.835 244.601 338.897 249.393Z" fill="#F04100"/>
<path d="M59.5211 529.224C59.3745 533.986 55.5466 537.582 50.7231 537.482C45.7916 537.382 42.1335 533.392 42.3805 528.398C42.612 523.66 46.5248 520.141 51.356 520.333C56.1023 520.519 59.6678 524.393 59.5211 529.224Z" fill="#F04100"/>
<path d="M225.41 101.231C230.357 101.254 234.085 105.106 233.977 110.083C233.869 114.861 230.134 118.48 225.318 118.457C220.371 118.434 216.643 114.583 216.751 109.605C216.859 104.828 220.595 101.208 225.41 101.231Z" fill="#F04100"/>
<path d="M155.173 520.256C160.158 520.272 163.894 524.131 163.786 529.139C163.685 533.947 159.934 537.575 155.096 537.559C150.11 537.544 146.375 533.685 146.483 528.676C146.583 523.868 150.334 520.241 155.173 520.256Z" fill="#F04100"/>
<path d="M50.9705 65.9698C55.4467 65.9852 59.3363 69.8903 59.3209 74.3665C59.3054 78.8427 55.4003 82.7323 50.9242 82.7169C46.448 82.7014 42.5583 78.7964 42.5738 74.3202C42.5892 69.844 46.4943 65.9543 50.9705 65.9698Z" fill="#F04100"/>
<path d="M190.558 520.534C195.026 520.488 198.962 524.354 199.009 528.838C199.055 533.307 195.188 537.243 190.705 537.289C186.236 537.335 182.3 533.469 182.254 528.985C182.208 524.524 186.074 520.58 190.558 520.534Z" fill="#F04100"/>
<path d="M155.173 82.7555C150.681 82.7787 146.807 78.9817 146.722 74.4823C146.637 69.8595 150.658 65.8386 155.289 65.9313C159.788 66.0239 163.585 69.9135 163.546 74.3974C163.515 78.9122 159.688 82.7247 155.173 82.7555Z" fill="#F04100"/>
<path d="M330.477 380.846C334.969 380.947 338.797 384.921 338.696 389.382C338.596 393.874 334.621 397.702 330.161 397.601C325.669 397.501 321.841 393.526 321.941 389.066C322.042 384.574 326.016 380.746 330.477 380.846Z" fill="#F04100"/>
<path d="M330.269 222.227C325.877 222.197 322.15 218.477 322.127 214.078C322.096 209.547 326.047 205.681 330.562 205.835C334.961 205.99 338.604 209.802 338.519 214.178C338.426 218.577 334.66 222.258 330.276 222.227H330.269Z" fill="#F04100"/>
<path d="M23.6423 529.047C23.5574 533.446 19.7912 537.127 15.4076 537.104C10.862 537.073 7.0495 533.083 7.26559 528.576C7.47397 524.162 11.325 520.565 15.6932 520.712C20.0922 520.858 23.7349 524.679 23.65 529.047H23.6423Z" fill="#F04100"/>
<path d="M260.039 501.557C255.64 501.526 251.967 497.852 251.936 493.453C251.905 488.908 255.802 485.111 260.325 485.257C264.731 485.404 268.32 489.162 268.235 493.554C268.15 497.96 264.43 501.588 260.039 501.557Z" fill="#F04100"/>
<path d="M294.984 450.528C299.391 450.629 303.01 454.348 302.972 458.747C302.926 463.301 298.99 467.036 294.467 466.82C290.053 466.604 286.518 462.799 286.672 458.416C286.827 454.009 290.601 450.428 294.984 450.528Z" fill="#F04100"/>
<path d="M15.4157 82.1074C11.0475 82.0919 7.66723 78.6885 7.68267 74.3126C7.6981 69.9445 11.1016 66.5642 15.4774 66.5796C19.8456 66.5951 23.2259 69.9985 23.2104 74.3744C23.195 78.7425 19.7915 82.1228 15.4157 82.1074Z" fill="#F04100"/>
<path d="M267.888 109.867C267.872 114.29 264.492 117.647 260.062 117.631C255.64 117.616 252.283 114.236 252.298 109.806C252.314 105.384 255.694 102.026 260.124 102.042C264.546 102.057 267.903 105.438 267.888 109.867Z" fill="#F04100"/>
<path d="M302.632 144.512C302.663 148.926 299.368 152.314 294.976 152.391C290.408 152.468 286.942 149.011 287.004 144.442C287.066 140.043 290.439 136.74 294.853 136.755C299.26 136.771 302.609 140.105 302.632 144.512Z" fill="#F04100"/>
<path d="M190.781 82.2153C186.182 82.2848 182.74 78.8813 182.763 74.2971C182.786 69.8827 186.089 66.5332 190.496 66.4715C195.095 66.402 198.538 69.8055 198.514 74.3974C198.491 78.8119 195.188 82.1613 190.781 82.223V82.2153Z" fill="#F04100"/>
<path d="M330.461 431.628C326.34 431.705 322.782 428.317 322.644 424.188C322.505 419.92 326.101 416.239 330.377 416.278C334.513 416.309 337.978 419.781 338.002 423.91C338.025 428.039 334.59 431.551 330.461 431.628Z" fill="#F04100"/>
<path d="M225.449 536.587C221.328 536.633 217.785 533.222 217.685 529.093C217.577 524.825 221.196 521.167 225.472 521.237C229.609 521.298 233.051 524.794 233.043 528.923C233.043 533.052 229.585 536.541 225.449 536.587Z" fill="#F04100"/>
<path d="M337.824 179.395C337.763 183.485 334.074 186.989 330.037 186.804C326.094 186.626 322.76 183.115 322.814 179.21C322.875 175.119 326.564 171.616 330.601 171.801C334.544 171.978 337.878 175.49 337.817 179.395H337.824Z" fill="#F04100"/>
<path d="M85.5758 556.282C89.6275 556.22 92.9692 559.469 93.031 563.529C93.0927 567.581 89.8436 570.922 85.7842 570.984C81.7324 571.046 78.3907 567.797 78.329 563.737C78.2673 559.686 81.5164 556.344 85.5758 556.282Z" fill="#F04100"/>
<path d="M365.152 276.906C369.212 276.968 372.461 280.302 372.407 284.354C372.345 288.413 369.011 291.662 364.959 291.608C360.9 291.546 357.651 288.212 357.705 284.161C357.767 280.101 361.1 276.852 365.152 276.906Z" fill="#F04100"/>
<path d="M372.453 319.044C372.414 323.042 369.088 326.36 365.09 326.391C360.946 326.414 357.496 322.864 357.65 318.743C357.805 314.738 361.224 311.496 365.206 311.589C369.211 311.681 372.491 315.054 372.453 319.044Z" fill="#F04100"/>
<path d="M120.513 571.038C116.531 571.1 113.128 567.843 113.004 563.837C112.881 559.709 116.346 556.182 120.49 556.236C124.488 556.29 127.799 559.631 127.806 563.621C127.806 567.611 124.511 570.969 120.513 571.03V571.038Z" fill="#F04100"/>
<path d="M365.06 346.619C369.081 346.619 372.106 349.613 372.145 353.634C372.183 357.809 369.027 360.912 364.844 360.811C360.854 360.719 357.898 357.632 357.952 353.603C358.006 349.59 361.039 346.611 365.06 346.619Z" fill="#F04100"/>
<path d="M155.08 556.537C159.109 556.514 162.157 559.485 162.226 563.49C162.296 567.665 159.163 570.807 154.987 570.737C150.982 570.668 148.011 567.619 148.034 563.598C148.057 559.577 151.059 556.568 155.08 556.544V556.537Z" fill="#F04100"/>
<path d="M232.588 74.2431C232.642 78.3797 229.501 81.5671 225.364 81.5671C221.227 81.5671 218.086 78.3874 218.14 74.2508C218.187 70.2686 221.196 67.2201 225.171 67.1198C229.308 67.0195 232.534 70.1219 232.588 74.2431Z" fill="#F04100"/>
<path d="M57.97 563.799C57.8928 567.75 54.7595 570.745 50.7772 570.66C46.8258 570.583 43.8314 567.449 43.9163 563.467C43.9935 559.516 47.1268 556.521 51.1091 556.606C55.0605 556.683 58.0549 559.817 57.97 563.799Z" fill="#F04100"/>
<path d="M372.075 249.401C372.136 253.383 369.134 256.493 365.175 256.555C361.193 256.617 358.083 253.615 358.021 249.656C357.959 245.673 360.961 242.563 364.92 242.501C368.903 242.44 372.013 245.442 372.075 249.401Z" fill="#F04100"/>
<path d="M127.351 39.5449C127.39 43.288 124.403 46.429 120.668 46.5602C116.77 46.6991 113.498 43.5812 113.459 39.6839C113.421 35.7865 116.631 32.5991 120.529 32.6686C124.279 32.7303 127.32 35.7942 127.359 39.5449H127.351Z" fill="#F04100"/>
<path d="M92.5989 39.7688C92.514 43.5196 89.3575 46.5757 85.6068 46.5371C81.7017 46.4986 78.5452 43.1491 78.7459 39.2595C78.9388 35.5165 82.1879 32.5452 85.9232 32.6841C89.6739 32.823 92.6838 36.0181 92.5989 39.7688Z" fill="#F04100"/>
<path d="M301.814 493.369C301.83 497.32 298.72 500.43 294.76 500.399C290.809 500.368 287.753 497.212 287.83 493.253C287.907 489.463 290.902 486.484 294.691 486.415C298.65 486.346 301.799 489.425 301.814 493.369Z" fill="#F04100"/>
<path d="M371.836 389.405C371.712 393.094 368.301 396.235 364.666 395.996C361.116 395.764 358.145 392.531 358.261 389.027C358.384 385.338 361.795 382.197 365.43 382.436C368.98 382.668 371.952 385.901 371.836 389.405Z" fill="#F04100"/>
<path d="M197.419 563.506C197.504 567.164 194.231 570.467 190.565 570.421C187.038 570.382 183.921 567.295 183.843 563.76C183.759 560.102 187.031 556.799 190.697 556.845C194.231 556.884 197.341 559.971 197.419 563.506Z" fill="#F04100"/>
<path d="M154.965 46.3981C151.276 46.2901 148.127 42.8789 148.351 39.2439C148.574 35.6939 151.8 32.7149 155.304 32.8152C158.993 32.9233 162.142 36.3344 161.918 39.9694C161.694 43.5195 158.468 46.4984 154.965 46.3981Z" fill="#F04100"/>
<path d="M330.3 451.887C333.973 451.871 337.222 455.19 337.114 458.848C337.006 462.382 333.873 465.454 330.346 465.469C326.672 465.485 323.423 462.166 323.531 458.508C323.639 454.974 326.773 451.902 330.3 451.887Z" fill="#F04100"/>
<path d="M259.9 522.116C263.551 522.001 266.877 525.234 266.877 528.908C266.877 532.427 263.813 535.576 260.278 535.692C256.62 535.807 253.302 532.574 253.302 528.9C253.302 525.381 256.366 522.232 259.9 522.116Z" fill="#F04100"/>
<path d="M301.575 109.667C301.683 113.302 298.457 116.605 294.807 116.597C291.303 116.589 288.177 113.533 288.069 110.022C287.961 106.387 291.187 103.083 294.837 103.099C298.341 103.107 301.467 106.163 301.575 109.674V109.667Z" fill="#F04100"/>
<path d="M50.9006 46.29C47.366 46.2668 44.2944 43.2029 44.2635 39.6683C44.2249 35.9947 47.5203 32.7842 51.1784 32.9309C54.7285 33.0698 57.7075 36.2263 57.6226 39.7455C57.5377 43.2878 54.4275 46.3131 50.9006 46.29Z" fill="#F04100"/>
<path d="M22.0295 563.73C21.9755 567.341 18.9502 570.282 15.3461 570.228C11.7343 570.174 8.79388 567.148 8.8479 563.544C8.90192 559.932 11.9272 556.992 15.5313 557.046C19.1431 557.1 22.0835 560.125 22.0295 563.73Z" fill="#F04100"/>
<path d="M364.959 207.44C368.563 207.386 371.589 210.327 371.635 213.939C371.689 217.543 368.749 220.56 365.137 220.614C361.533 220.668 358.515 217.728 358.461 214.116C358.407 210.512 361.348 207.487 364.959 207.44Z" fill="#F04100"/>
<path d="M336.767 144.388C336.867 148.108 334.027 151.025 330.315 151.025C326.749 151.025 323.963 148.316 323.871 144.766C323.77 141.046 326.61 138.129 330.323 138.129C333.888 138.129 336.674 140.838 336.767 144.388Z" fill="#F04100"/>
<path d="M266.406 74.4128C266.367 78.0246 263.635 80.6949 260.016 80.6563C256.404 80.6177 253.734 77.8857 253.772 74.2661C253.811 70.6543 256.543 67.984 260.163 68.0226C263.774 68.0612 266.445 70.7932 266.406 74.4128Z" fill="#F04100"/>
<path d="M196.856 39.6066C196.856 43.1644 194.1 45.881 190.543 45.8347C187 45.7884 184.315 42.9792 184.415 39.4214C184.507 36.0334 187.147 33.4326 190.543 33.3863C194.1 33.3323 196.863 36.0566 196.863 39.6066H196.856Z" fill="#F04100"/>
<path d="M21.5972 39.4523C21.6821 42.7708 19.0196 45.6263 15.6933 45.7652C12.2281 45.9119 9.26458 43.0487 9.28773 39.5758C9.31089 36.2418 12.0506 33.4943 15.3846 33.4557C18.7109 33.4171 21.5123 36.126 21.5972 39.4523Z" fill="#F04100"/>
<path d="M225.456 569.703C222.215 569.757 219.298 566.878 219.298 563.629C219.298 560.38 222.231 557.501 225.464 557.563C228.567 557.625 231.322 560.341 231.43 563.444C231.546 566.67 228.706 569.641 225.456 569.695V569.703Z" fill="#F04100"/>
<path d="M371.118 423.964C371.11 427.213 368.177 430.084 364.936 430.015C361.679 429.945 358.855 426.966 358.978 423.741C359.102 420.638 361.864 417.929 364.967 417.883C368.208 417.837 371.125 420.723 371.11 423.964H371.118Z" fill="#F04100"/>
<path d="M359.341 179.426C359.271 176.277 361.61 173.753 364.735 173.583C368.031 173.414 370.701 175.876 370.771 179.163C370.84 182.466 368.293 185.036 364.998 185.005C361.849 184.975 359.418 182.567 359.349 179.426H359.341Z" fill="#F04100"/>
<path d="M330.408 487.958C333.541 488.005 335.91 490.544 335.764 493.685C335.625 496.648 333.217 498.894 330.23 498.848C327.097 498.802 324.727 496.263 324.874 493.122C325.013 490.158 327.421 487.912 330.408 487.958Z" fill="#F04100"/>
<path d="M219.916 39.7225C219.861 36.7358 222.1 34.3125 225.055 34.1658C228.196 34.0038 230.743 36.3653 230.805 39.4987C230.867 42.632 228.42 45.1016 225.279 45.0553C222.293 45.0167 219.97 42.7092 219.916 39.7225Z" fill="#F04100"/>
<path d="M294.76 523.459C297.747 523.428 300.14 525.69 300.271 528.653C300.402 531.794 298.025 534.318 294.892 534.356C291.758 534.387 289.312 531.918 289.381 528.784C289.443 525.798 291.774 523.498 294.76 523.467V523.459Z" fill="#F04100"/>
<path d="M120.251 592.94C123.214 592.863 125.7 595.163 125.831 598.119C125.97 601.237 123.485 603.814 120.367 603.791C117.395 603.768 115.011 601.391 114.98 598.428C114.949 595.456 117.287 593.025 120.251 592.948V592.94Z" fill="#F04100"/>
<path d="M405.144 284.176C405.191 287.055 402.744 289.578 399.858 289.625C396.979 289.671 394.456 287.225 394.409 284.338C394.363 281.46 396.809 278.936 399.696 278.89C402.575 278.843 405.098 281.29 405.144 284.176Z" fill="#F04100"/>
<path d="M405.206 319.16C405.114 322.116 402.667 324.454 399.704 324.408C396.586 324.361 394.155 321.73 394.363 318.62C394.556 315.671 397.087 313.418 400.051 313.557C402.999 313.696 405.299 316.196 405.206 319.152V319.16Z" fill="#F04100"/>
<path d="M85.6994 603.73C82.8207 603.745 80.3202 601.268 80.3048 598.389C80.2893 595.51 82.759 593.01 85.6453 592.994C88.524 592.979 91.0245 595.449 91.0399 598.335C91.0553 601.214 88.5857 603.714 85.6994 603.73Z" fill="#F04100"/>
<path d="M335.524 109.952C335.455 112.684 333.024 115.054 330.3 115.046C327.436 115.038 324.921 112.368 325.113 109.536C325.299 106.804 327.83 104.511 330.523 104.635C333.255 104.758 335.586 107.243 335.524 109.952Z" fill="#F04100"/>
<path d="M399.735 348.463C402.467 348.433 404.952 350.825 405.037 353.572C405.121 356.428 402.49 359.06 399.634 358.967C396.887 358.882 394.494 356.397 394.525 353.665C394.556 350.925 396.995 348.487 399.735 348.463Z" fill="#F04100"/>
<path d="M149.878 598.072C150.056 595.333 152.618 592.994 155.327 593.11C158.229 593.234 160.66 596.004 160.359 598.844C160.066 601.607 157.449 603.83 154.74 603.606C151.985 603.374 149.701 600.774 149.871 598.072H149.878Z" fill="#F04100"/>
<path d="M299.885 74.22C299.954 77.0137 297.647 79.3908 294.845 79.4062C292.044 79.4216 289.621 77.0678 289.783 74.274C289.952 71.3105 291.658 69.5663 294.606 69.3039C297.377 69.0569 299.815 71.4185 299.885 74.22Z" fill="#F04100"/>
<path d="M56.0096 598.528C55.917 601.322 53.4628 603.575 50.6845 603.429C47.8907 603.274 45.5986 600.774 45.915 598.011C46.2546 595.063 48.0528 593.419 51.0163 593.326C53.8101 593.241 56.1022 595.734 56.0096 598.528Z" fill="#F04100"/>
<path d="M404.844 249.347C404.952 252.133 402.667 254.541 399.866 254.595C397.072 254.649 394.618 252.318 394.741 249.524C394.872 246.561 396.563 244.793 399.503 244.492C402.266 244.207 404.736 246.553 404.844 249.347Z" fill="#F04100"/>
<path d="M364.921 453.793C368.108 454.117 369.891 455.684 369.845 458.74C369.798 461.78 368.023 463.501 364.99 463.463C361.949 463.424 360.252 461.649 360.259 458.616C360.275 455.529 362.173 454.094 364.921 453.793Z" fill="#F04100"/>
<path d="M260.031 568.499C257.037 568.198 255.254 566.624 255.3 563.575C255.347 560.534 257.122 558.813 260.155 558.852C263.195 558.891 264.909 560.666 264.878 563.699C264.855 566.762 263.01 568.267 260.023 568.499H260.031Z" fill="#F04100"/>
<path d="M125.12 4.72337C125.205 7.50169 123.145 9.67032 120.374 9.57771C117.503 9.47738 115.882 7.903 115.713 5.03979C115.543 2.26918 117.665 0.154571 120.444 0.170006C123.06 0.185441 125.043 2.12255 125.128 4.72337H125.12Z" fill="#F04100"/>
<path d="M86.1929 0.193044C88.4851 0.42457 90.1752 1.83688 90.3527 4.70782C90.5148 7.44755 88.4079 9.5776 85.6604 9.56988C82.9207 9.56216 80.8755 7.41668 80.9836 4.66923C81.0916 2.09156 83.0982 0.177608 86.1929 0.185326V0.193044Z" fill="#F04100"/>
<path d="M185.958 598.582C186.351 595.58 187.826 593.758 190.712 593.828C193.567 593.897 195.258 595.688 195.173 598.543C195.095 601.206 193.413 602.857 190.735 602.911C187.826 602.973 186.421 601.113 185.95 598.582H185.958Z" fill="#F04100"/>
<path d="M259.29 44.7312C258.071 43.0565 256.126 41.5052 255.802 39.6685C255.354 37.1062 257.338 35.2772 260 35.2154C262.678 35.1537 264.716 36.9364 264.369 39.4987C264.122 41.3432 262.231 42.9639 261.081 44.6849C260.487 44.7003 259.885 44.708 259.29 44.7235V44.7312Z" fill="#F04100"/>
<path d="M159.78 4.89308C159.394 7.68684 157.92 9.50818 155.026 9.42329C152.171 9.3384 150.488 7.54021 150.589 4.68471C150.681 2.02215 152.371 0.370591 155.042 0.33972C157.936 0.301133 159.402 2.09932 159.773 4.89308H159.78Z" fill="#F04100"/>
<path d="M399.565 384.543C402.567 384.937 404.388 386.411 404.319 389.297C404.249 392.152 402.459 393.843 399.596 393.758C396.933 393.681 395.282 391.998 395.228 389.32C395.166 386.411 397.026 385.006 399.565 384.543Z" fill="#F04100"/>
<path d="M16.2413 593.249C17.4607 594.924 19.4055 596.475 19.7296 598.304C20.1773 600.866 18.1938 602.695 15.5313 602.757C12.8533 602.819 10.8159 601.036 11.1631 598.474C11.4101 596.629 13.3009 595.009 14.4585 593.288C15.0528 593.272 15.6548 593.264 16.249 593.249H16.2413Z" fill="#F04100"/>
<path d="M404.898 214.811C403.223 216.038 401.679 217.983 399.85 218.315C397.288 218.77 395.451 216.786 395.39 214.124C395.32 211.446 397.095 209.408 399.665 209.74C401.51 209.98 403.138 211.87 404.859 213.02C404.875 213.615 404.89 214.217 404.898 214.811Z" fill="#F04100"/>
<path d="M56.0174 5.88867C54.2964 7.03858 52.668 8.92938 50.8235 9.16863C48.2613 9.5082 46.4862 7.47077 46.5479 4.79277C46.6097 2.13021 48.4465 0.1468 51.0087 0.602136C52.8455 0.926273 54.389 2.87882 56.0637 4.09819C56.0483 4.69244 56.0328 5.29441 56.0251 5.88867H56.0174Z" fill="#F04100"/>
<path d="M369.721 144.357C369.327 147.359 367.853 149.181 364.967 149.111C362.111 149.042 360.421 147.251 360.506 144.388C360.583 141.725 362.266 140.074 364.944 140.02C367.853 139.958 369.258 141.818 369.721 144.357Z" fill="#F04100"/>
<path d="M195.042 5.98887C193.483 6.90726 191.731 8.75175 190.411 8.48164C188.991 8.19609 187.208 5.99659 187.062 4.48394C186.961 3.46523 189.408 1.28116 190.72 1.27344C192.194 1.27344 193.668 3.13337 195.142 4.18296L195.042 5.98115V5.98887Z" fill="#F04100"/>
<path d="M405.114 424.096C402.559 425.77 400.993 427.599 399.712 427.414C398.353 427.221 397.273 425.114 396.069 423.849C397.342 422.645 398.538 420.6 399.897 420.484C401.193 420.376 402.66 422.29 405.114 424.096Z" fill="#F04100"/>
<path d="M335.656 529.047C333.101 530.721 331.542 532.55 330.261 532.373C328.903 532.18 326.858 530.05 326.889 528.815C326.919 527.58 329.08 525.558 330.446 525.443C331.735 525.335 333.202 527.241 335.663 529.047H335.656Z" fill="#F04100"/>
<path d="M10.106 4.73877C12.6605 3.06406 14.2271 1.235 15.5082 1.42022C16.8665 1.61316 17.947 3.72005 19.1509 4.98573C17.8775 6.18967 16.6813 8.23483 15.323 8.35059C14.0342 8.45864 12.5679 6.5524 10.106 4.73877Z" fill="#F04100"/>
<path d="M230.697 598.505C228.15 600.179 226.584 602.016 225.303 601.831C223.944 601.646 221.891 599.516 221.922 598.281C221.953 597.046 224.114 595.024 225.472 594.901C226.761 594.785 228.227 596.699 230.689 598.505H230.697Z" fill="#F04100"/>
<path d="M364.851 498.323C363.338 495.923 361.702 494.464 361.887 493.299C362.088 492.064 364.048 490.228 365.175 490.274C366.302 490.32 368.108 492.311 368.208 493.561C368.301 494.735 366.549 496.054 364.851 498.323Z" fill="#F04100"/>
<path d="M399.85 174.371C401.425 176.74 403.092 178.152 402.937 179.318C402.775 180.56 400.861 182.443 399.735 182.428C398.608 182.412 396.748 180.467 396.617 179.225C396.493 178.052 398.206 176.686 399.843 174.371H399.85Z" fill="#F04100"/>
<path d="M295.015 568.553C293.317 566.284 291.573 564.964 291.666 563.784C291.766 562.533 293.572 560.542 294.699 560.504C295.825 560.457 297.786 562.294 297.986 563.537C298.172 564.702 296.535 566.153 295.023 568.553H295.015Z" fill="#F04100"/>
<path d="M364.982 105.576C366.41 107.498 368.039 108.771 367.853 109.659C367.599 110.871 365.963 111.797 364.913 112.846C363.964 111.835 362.351 110.886 362.243 109.79C362.142 108.748 363.616 107.552 364.982 105.584V105.576Z" fill="#F04100"/>
<path d="M334.984 74.5209C332.684 75.9486 331.326 77.469 330.238 77.2915C329.08 77.1063 327.367 75.2849 327.405 74.2353C327.444 73.1857 329.296 71.5033 330.462 71.403C331.557 71.3104 332.8 72.9233 334.984 74.5209Z" fill="#F04100"/>
<path d="M225.256 0.617581C226.707 2.52382 228.343 3.78178 228.165 4.6693C227.918 5.88868 226.29 6.8225 225.256 7.87981C224.291 6.87652 222.678 5.9427 222.562 4.8468C222.454 3.80493 223.913 2.60099 225.263 0.609863L225.256 0.617581Z" fill="#F04100"/>
<path d="M120.505 629.182C121.733 631.081 123.037 632.215 122.906 633.141C122.759 634.121 121.223 635.595 120.336 635.572C119.448 635.549 117.997 633.99 117.905 633.002C117.82 632.076 119.186 631.011 120.513 629.182H120.505Z" fill="#F04100"/>
<path d="M85.568 637C84.3409 635.101 83.0366 633.967 83.1678 633.041C83.3145 632.061 84.8271 631.281 85.7455 630.409C86.6099 631.328 88.0839 632.184 88.1688 633.18C88.2537 634.106 86.8877 635.171 85.5603 637H85.568Z" fill="#F04100"/>
<path d="M438.415 319.09C436.516 320.318 435.382 321.622 434.456 321.491C433.476 321.344 432.002 319.808 432.025 318.921C432.048 318.033 433.607 316.582 434.595 316.49C435.521 316.405 436.586 317.771 438.415 319.098V319.09Z" fill="#F04100"/>
<path d="M438.415 284.161C436.586 285.481 435.521 286.847 434.595 286.762C433.607 286.669 432.75 285.195 431.832 284.331C432.704 283.412 433.484 281.9 434.464 281.761C435.39 281.622 436.524 282.934 438.415 284.161Z" fill="#F04100"/>
<path d="M298.727 39.7147C296.828 40.9418 295.694 42.246 294.768 42.1149C293.788 41.9682 293.008 40.4556 292.136 39.5372C293.055 38.6728 293.911 37.1988 294.907 37.1139C295.833 37.029 296.898 38.395 298.727 39.7224V39.7147Z" fill="#F04100"/>
<path d="M263.535 598.265C261.883 599.431 260.895 600.658 260.077 600.558C259.213 600.442 258.109 599.161 257.893 598.204C257.77 597.656 259.19 596.174 259.931 596.159C260.872 596.143 261.822 597.193 263.543 598.265H263.535Z" fill="#F04100"/>
<path d="M437.921 353.835C436.2 354.908 435.243 355.957 434.332 355.926C433.584 355.896 432.187 354.421 432.31 353.874C432.526 352.924 433.622 351.659 434.502 351.535C435.289 351.419 436.27 352.662 437.921 353.843V353.835Z" fill="#F04100"/>
<path d="M403.223 458.578C401.571 459.743 400.583 460.97 399.765 460.87C398.901 460.754 397.797 459.473 397.581 458.516C397.458 457.968 398.878 456.486 399.619 456.471C400.56 456.455 401.51 457.505 403.231 458.578H403.223Z" fill="#F04100"/>
<path d="M154.88 629.668C156.114 631.25 157.249 632.084 157.334 633.018C157.403 633.736 156.076 635.279 155.512 635.217C154.54 635.102 153.135 634.152 152.943 633.311C152.757 632.516 153.884 631.405 154.88 629.661V629.668Z" fill="#F04100"/>
<path d="M435.019 252.272C434.07 251.477 432.611 250.829 432.334 249.841C432.11 249.053 433.321 247.857 434.425 245.897C435.274 248.513 435.714 249.856 436.146 251.199L435.019 252.272Z" fill="#F04100"/>
<path d="M52.6065 634.677C51.3254 634.306 50.052 633.936 48.7709 633.566C48.6088 633.241 48.4467 632.91 48.2847 632.585C49.4269 632.007 50.6462 630.88 51.6881 631.026C52.429 631.135 52.9152 632.956 53.5172 634.013C53.2162 634.237 52.9075 634.453 52.6065 634.677Z" fill="#F04100"/>
</g>
<defs>
<clipPath id="clip0_2385_9121">
<rect width="636.83" height="636.83" fill="white" transform="translate(-198.415 0.169922)"/>
</clipPath>
</defs>
</svg>
